<svg xmlns="http://www.w3.org/2000/svg" viewBox="0 0 216.61 192.81"><defs><style>.cls-1,.cls-2{fill:none;stroke-linecap:round;stroke-linejoin:round;stroke-width:2px;}.cls-1{stroke:#fff;}.cls-2{stroke:#cafffe;}</style></defs><g id="Ebene_2" data-name="Ebene 2"><g id="Ebene_1-2" data-name="Ebene 1"><path class="cls-1" d="M124.3,70.75C131.22,48.12,80,72,84.13,58.46c2-6.65,27.58-14.58,27.88-15.56,5.9-19.3-56.9-6.68-53.9-16.48,5-16.51,49.2-7.83,50.08-10.7.42-1.38-14.44-3.05-14.06-4.3.22-.73,7.69,5.42,8.93,1.36.06-.2-1.13,0-1-.31"/><path class="cls-1" d="M143.88,107c7.25-23.72-58.89-.46-54-16.5,8.58-28.07,72.73,13.85,74.88,6.81,0,0-98.34,2.72-89.18-27.27,8.41-27.49,95.65,23.79,100.66,7.4,6-19.47-38.83-3-36.36-11.11,5.27-17.26,35.69,16.27,37.63,9.93.1-.33-28-6.59-27.48-8.4C154,55,186.17,86.8,191,71.12c.91-3-37.95,7.64-32.57-10,6.75-22.07,44.53,14.81,46,9.84,3.1-10.14-48-8.43-46.22-14.13,2.63-8.61,24.94,12.62,28.5,1,2.21-7.26-32.44-5-31.06-9.5,1.81-5.92,18.23.28,19.07-2.45.28-.94-11-1.35-10.44-3.19s4.06-2.2,4.25-2.79-1.3,0-1.19-.37"/><path class="cls-1" d="M80.31,90.24c1-3.15-65.63,11.19-56.89-17.39.1-.33,1-4.49,1.22-5.35s-6.19-1.14-6-1.83"/><path class="cls-1" d="M11.34,117.71c.08-.25-7.83-1.21-7.5-2.29C5,111.63,18.86,124,20,120.27c.23-.76-7.2-1.24-6.93-2.12,4.43-14.49,74.06,39,83.69,7.51,2.5-8.2-86.1,7.38-76.67-23.44C26,83,105.29,133.22,107.2,127,111,114.56-8.71,135.44,3.57,95.29"/><path class="cls-1" d="M41.83,172.2c.08-.27-1.5-.36-1.47-.45,12.13-39.67,93,30.18,101.75,1.39,9.5-31.06-71.88-17.9-70.74-21.63,2.28-7.47,60.89,3.37,60.94,3.19,3.11-10.18-58.73-3.56-54.71-16.72,2-6.62,62.44,21.57,67.87,3.83,5.76-18.83-54.91-9.61-52.9-16.17,4.33-14.18,66.32,15.8,66.83,14.12C178,79-.22,112.2,5.72,92.78c22.41-73.3,190.36,73.6,200.71,39.73C217.12,97.57-8.82,136.82,10.79,72.7c14.91-48.79,176.16,76.18,186.92,41,.31-1-2.87-.18-2.67-.82"/><path class="cls-2" d="M73.7,78.92c1-3.29-69,2.34-62.44-19.09.86-2.82,7.38-.94,7.87-2.54.23-.77-6.15-1.29-6-1.83"/><path class="cls-2" d="M10,126.84c.09-.28-3.16.07-2.87-.88.62-2,69.62,24.92,75.56,5.5,6.54-21.41-85,.31-77.62-23.73"/><path class="cls-2" d="M61.23,165c1-3.41-19-5.75-18.95-5.79,1.45-4.74,22.1,4.93,24.52-3,2.26-7.41-12.69-3.36-12.55-3.83,8.14-26.62,49.83-5.43,53.55-17.58,3-10-83.4-2.69-77-23.55,12-39.28,81.8,40.8,91.68,8.46.14-.45-2-.16-1.86-.57"/><path class="cls-2" d="M26.38,112.84c1.16-3.79-16.67-3.82-16.31-5,1.6-5.24,12.81,7.6,14.53,2C24.89,108.9,0,106.15,1,102.63,5,89.79,11.94,85.37,14.94,75.58c1-3.1-2.89,1.31-2.28-.7.8-2.61,8.24.6,8.4.05.26-.84-9.82,3.64-8-2.44"/><path class="cls-2" d="M108.87,108.2c.58-1.88-8.55-1.61-8.27-2.52.48-1.56-13.4-18.78-8.53-34.7,1.21-4-26,1.62-23.31-7.13,3.12-10.22,2.71-15,6.3-26.73,1.7-5.57-11.36,6.65-8.53-2.61,1.3-4.27,17.34-5,19.06-10.61,2.55-8.34-13.41-.94-12.53-3.83,3-9.88,23.21,9.75,25.57,2,1-3.37-29.36-4.07-28-8.56"/><path class="cls-2" d="M126.31,58c2.44-8-5.38,3.57-3.92-1.2,1.78-5.82-8.66-25.8-8.4-26.65,2.14-7-20.45-2.35-19.36-5.92C97.16,16,110.48,5.91,110.92,4.48,111,4.09,99.44,1.35,99.55,1"/><path class="cls-2" d="M132.88,86.72c.1-.33-4.69-1.19-4.62-1.41,2.61-8.54,20-7.62,20.69-9.76,0,0-38.85-2.19-36.15-11,3.51-11.46,38.53-4.13,40.62-11,2.19-7.17-9.8.26-8.89-2.71,2.55-8.34,17.43,7.1,18.36,4,0-.12-16.23-4.24-16-4.9,1.52-4.95,13.87,4.65,15.71-1.37.31-1-3.7,5.47-1.85-.56"/><path class="cls-2" d="M156.24,99c.25-.82-6.35,6.2-4.07-1.25.35-1.13,17.79.59,18.7-2.37.83-2.71-9.27-.46-8.61-2.63,2.24-7.33,28.3-2.39,31-11.25.14-.46-13.34-3.38-13.15-4,3.14-10.28,12.76-15.72,16.16-26.84,3-9.74-31.6-1.54-29.33-9,1.06-3.46-.19-7.09,1.41-12.34,0,0-1.35.19-1.18-.36"/><path class="cls-2" d="M125,112.93c.07-.24-7.66-1.23-7.35-2.25,1.15-3.77,14.93,8.51,16.05,4.82.22-.71-7-1.24-6.76-2.06,3.5-11.46,58.38,32.49,66,7.59,1.66-5.42-55.64,5.29-49.4-15.1"/><path class="cls-2" d="M20.46,178.82c.08-.27-1.5-.36-1.47-.45,13.79-45.1,105.56,38.35,115.57,5.61C142,159.54,78.07,169.92,79,167c2.27-7.42,60.4,3.22,60.46,3,.81-2.65-13.63-.42-12.59-3.84.82-2.66,23.55-1.93,25.73-9.05,2.07-6.76-27.17-5.73-26.45-8.09,1.8-5.9,28.12,3,28.33,2.35,2-6.41-28.78-6.56-28.16-8.61,9.8-32,84.71,20.45,89.23,5.65,2.94-9.6-68.62-1.69-63.23-19.33,4.25-13.89,50.3-1.1,53.37-11.13,7.15-23.39-68.07-4.36-63.47-19.4,2.21-7.23,58.74,20.48,62.46,8.32.29-1-3.08.44-2.7-.82"/></g></g></svg>