<svg xmlns="http://www.w3.org/2000/svg" viewBox="0 0 1446.72 392.72"><defs><style>.cls-1,.cls-2{fill:none;stroke-linecap:round;stroke-linejoin:round;stroke-width:2px;}.cls-1{stroke:#a67c52;}.cls-2{stroke:#603813;}</style></defs><g id="Ebene_2" data-name="Ebene 2"><g id="Ebene_1-2" data-name="Ebene 1"><path class="cls-1" d="M9,31.94c1.55,1,8.17-19.36,11-17.6.29.18-9.33,12.77-4.82,15.59,7.56,4.73,6.16-22,11.63-18.61,3.3,2.07-30.81,35.29-10.41,48C28.08,66.66,34.89-.42,48.44,8.05,71,22.15,2.32,68.66,24.54,82.54c.71.45,23.29-88,46.08-73.75C89.63,20.66,6.52,73.65,28,87.05,53.89,103.25,73.89,3.79,78.28,6.54c14,8.74-63.84,79.79-34.78,97.95,28.79,18,21.41-121.06,60.41-96.69C151,37.22,57.84,116.46,59.05,117.21c6.53,4.08,16.83-122.13,59.61-95.4,17.49,10.93-98.1,71.55-55,98.48,47.92,29.94,49.21-110.84,63.63-101.83,5.18,3.24-78.65,120.18-56.66,133.92,15.48,9.67,26.75-173.7,85.57-136.94C213.66,51.36,82.41,147.81,83.5,148.5c20.34,12.7,39.11-169.27,87.05-139.31C189.22,20.86,72.16,151,85.83,159.53,94.67,165.05,139.2-9.75,176.89,13.8,217.36,39.09,48.72,149.55,98,180.31c30,18.77,41.67-197.69,100.54-160.9,43,26.89-92.18,156.94-80.8,164,41.52,26,59.36-195.44,104.5-167.24,24,15-109.93,175.81-90.1,188.2C151.11,216.3,232.79,21,242.78,27.26,311.22,70,59.72,176.83,135.62,224.26c77.57,48.47,61.74-250.65,130-208C324.48,53,52.35,178.63,157.92,244.6,250.61,302.52,245.23-18.33,300.6,16.27c72.65,45.39-182,205.1-141.84,230.17,68.33,42.7,104-237.56,136-217.59C387,86.48,156.87,246.32,180.94,261.36,245.45,301.67,289-8.85,332.73,18.45c111.2,69.49-136.47,239.4-126.13,245.87,93.51,58.43,99.26-280.58,154-246.4,13,8.14-220.43,231.67-143.57,279.7,6.3,3.94,90-335.61,176.09-281.8,91.13,56.94-172.43,264.27-145,281.39C265.35,308,319-35.4,417.47,26.11,461,53.3,149.82,236.06,248,297.4,375.81,377.27,316.46-36.47,417.26,26.52,462.48,54.78,121.1,227.73,258.58,313.63c113.63,71,98.28-340.54,180.63-289.08,116.88,73-317.82,207.52-175.75,296.3,4.05,2.52,134.67-318.61,181-289.66C507.22,70.41,209.53,285,287.89,333.92c77.44,48.39,51.68-403.19,195.71-313.2C592.16,88.56,192.39,265.47,317.88,343.88,364.48,373,446.26-4.9,510.68,35.35c128.74,80.45-264.94,266.35-172,324.45,121.34,75.82,133-387,211.27-338.1,153.25,95.76-185,345.47-184,346.09,63.52,39.7,194.4-354.07,213.71-342C659.4,75.61,375.93,355.4,395.28,367.49c59.1,36.93,133-377.15,206.83-331C643.25,62.2,281.38,292.66,407,371.16,558.61,465.9,534.16-26.77,621.53,27.83,717.18,87.6,361.15,319.11,437.14,366.59,543.49,433.05,473.59-69.3,643.26,36.72c16.39,10.25-310.12,268.47-201,336.64C595,468.82,546.13-33.1,654.06,34.35c134.44,84-252.93,295.56-190,334.89C517,402.34,560.54-34.82,672.75,35.3c90.23,56.38-295.41,270.84-185,339.81C581.3,433.59,652,12.67,696.73,40.62,749,73.28,446,341.24,503.59,377.23c89.47,55.91,196.6-363,218.31-349.38C888.24,131.79,393.73,291.32,530.68,376.91c83,51.84,107-415.16,216.61-346.65,76.71,47.93-223.88,336-197.72,352.32C625.2,429.84,645.48-34,763.72,39.87c34,21.28-346.88,242.19-194.14,337.63,37.07,23.16,46.64-447.63,214.26-342.89C835.2,66.7,483.25,314.5,586.18,378.82c28.39,17.74,56.76-448.55,217.52-348.1,15.72,9.83-318.8,266.12-204.27,337.69,56.81,35.5,205.7-333.82,207.78-332.52,60.64,37.89-339.88,237-178.61,337.74,105,65.61,62.09-430.48,210.89-337.5C863.8,51.32,648.4,376.39,650.1,377.45c67.61,42.24,90.75-409.82,209.65-335.52,8.92,5.58-334.91,238.26-192.86,327C811.12,459.08,755.8-37.89,874.7,36.4,974.93,99,650.91,367.16,678.3,384.27c12.15,7.6,73.28-427.16,212.54-340.14C1049,142.94,573.42,287.43,709.9,372.7,763.38,406.12,909.56,28.26,920.76,35.26,939,46.63,598.5,298.54,719.89,374.39,880.09,474.5,849.93-8.54,928.5,40.55c51.21,32-213.26,310.63-182.76,329.7C864.68,444.57,880.16-13.92,956.13,33.56,1017,71.57,595,285.37,744.82,379c13.06,8.16,73.56-419.12,209-334.48,27,16.89-305.63,262.58-185.88,337.41C863.67,441.74,859.58-35.55,981.29,40.5c52.32,32.7-236,300.4-187.08,331C823.39,389.72,948,6.4,1001.46,39.82,1106,105.13,765.32,362.24,795.62,381.18,923.42,461,985,22,1010.22,37.74c7.15,4.47-245.5,304.85-203.63,331C899.5,426.81,922.54-2.79,1006.12,49.43,1157.39,144,684.43,289.16,816.65,371.78c60.29,37.67,120-389.85,208.89-334.29,157.26,98.27-275.84,293-195,343.47,88.87,55.53,196-356.86,215.41-344.73,150.86,94.28-279,281.67-183.76,341.2,158.86,99.26,104.53-393.28,206.1-329.82,81.35,50.84-268.9,287.44-204.12,327.92,95.17,59.47,156-357.74,204.58-327.4,65.32,40.82-194.42,304.45-169.55,320,32.51,20.31,114-379.45,202.53-324.12C1132.12,63,916,365.77,927.51,372.94c7.27,4.54,39.91-424.81,202.12-323.45C1231.1,112.9,850.47,314.61,945.57,374,1033.41,428.92,1101,29.67,1144,56.52c33.25,20.77-339.62,228.1-190,321.56,109.13,68.19,81.23-416.83,210.13-336.28C1228.35,82,838.5,289,981,378c36.14,22.58,99.28-402.73,208.86-334.25,139.09,86.91-177,319.92-173.41,322.15,87.32,54.56,69.73-398.15,198.51-317.68,98,61.24-234.28,278.73-175.42,315.51,143.29,89.53,190-308.38,191.93-307.16,29.11,18.19-317.54,226-187.3,307.36,39.78,24.86,98.48-374.56,196-313.63C1327.8,105.11,993.24,338,1053.7,375.78c94.34,59,92.24-396.37,204-326.51,38,23.74-280.3,269.74-193.67,323.87C1217.22,468.85,1224.24,39,1259.21,60.85c45.34,28.33-204.84,285.56-177.42,302.7,72,45,150.9-337.24,193.93-310.35,143.35,89.57-206.69,282-169.63,305.14,56.3,35.18,184-305.73,189.06-302.57,126.92,79.31-260.53,260.86-184,308.71,65.47,40.91,155-323,188.65-301.92,64.09,40.05-215.19,273.85-173,300.24C1258.82,445.25,1177.54-19.68,1313,65c67.18,42-223.15,266.61-160.41,305.81,72.66,45.4,124-351.09,192.61-308.23,5.18,3.23-181,270.93-151.45,289.41,12.12,7.57,84.21-351.52,181.62-290.65,76.19,47.61-297.76,233.54-188,302.12,3.63,2.27,45.88-384.63,185.74-297.23,41,25.6-177.6,271.54-153.77,286.43,9,5.6,143-320.94,184.37-295.06,28.34,17.71-208.36,268.19-162.8,296.66,69,43.12,60.57-352.72,175.51-280.89C1487.53,117.77,1150,287.43,1250,349.92c11.55,7.21,104.84-325.63,175.77-281.31,104.93,65.57-243.59,208.57-135,276.41,81.85,51.14,30.26-243.33,117.85-188.6,11.42,7.14-108.6,108.32-57,140.53,2,1.26,1.42-25.6,11.9-19.05"/><path class="cls-2" d="M24.29,21.4c2.88,1.8.82-14.87,6.91-11.06,3.86,2.41,2.68,10,5.56,11.81C40,24.17,46.51,5,47.23,5.4c2.13,1.34,8.15,8.89,14.3,12.73C64.32,19.88,57.26,10,64,14.18c10,6.25,17.78,13.23,20.69,15.05S100-.37,102.3,1.05C110.22,6,109.89,26,116.53,30.11,122.71,34,121.29,7,128.26,11.33c2.11,1.32-3.17,10.57.14,12.63,4.88,3.05,4.27-7.85,4.73-7.57,7.41,4.63,17.27-2.32,27.1,3.82,2.75,1.72,7.21-18.42,10.3-16.49,1.11.7,2.69,12.19,6.23,14.41,2.62,1.63-.06-6.41,2.86-4.58,4.36,2.72,28.57,1,32.85,3.64,1.1.68-3.66-3.16.39-.62,7.89,4.93,16.4,2.7,24.11,7.51,2.25,1.41,1.19-11.15,5.35-8.55,1.7,1.07,4.67,1.89,5.81,2.6,4.1,2.56-.37-12.17,5.36-8.59,2.07,1.29,9,6.78,16.38,11.38,5.89,3.68.93-5.47,2.72-4.35C275,18.06,288.86,20,302,28.2c3.88,2.42,8-15.29,9.12-14.61,3.11,1.94,6.72,11.1,8,11.92,2.94,1.84-3.53-9.23,3.16-5.05,3.56,2.23,9.19-.31,14,2.68,2.1,1.31-1.83-10.47,4.19-6.71,5,3.12-4,14.65,2.76,18.84,3,1.89,9.05-30.54,16.26-26,5.89,3.68.38,28.76.38,28.76,1.29.81,10.12-29.75,16.22-25.94,5.78,3.62-10.54,21-7.75,22.77,4.49,2.81,10.38-25.43,14.34-22.95,4.54,2.83-5,16.93,4.36,22.77,3,1.89,10.14-21.34,12.44-19.9,6.14,3.84,12.75,10.19,21.43,15.61,5.55,3.47,4.69-11.27,6.39-10.22,6.74,4.22,6.9,13.6,11.2,16.29,7.27,4.54,4.88-22.08,11.29-18.08,1.08.68-4.19,16,2.47,20.14,6.27,3.92,7.1-24.24,12.88-20.62,4.27,2.66-5.68,16.43,3.4,22.1,5.63,3.51,7.3-15.46,9-14.4,6,3.73,29.34-3.71,36.09.51,2.28,1.43-2.1-6.84,2.49-4,6.1,3.82,5.71,12.31,6.55,12.84,1.26.78,3.22-12.24,6.41-10.25,1.16.73,21.26,1.86,23,3,.32.19-.07-1,.45-.73s1.66.25,2.1.53c5.24,3.27-.84-7.85,3.3-5.27.18.12-10.51,16.63-4,20.69,3.66,2.28,12.11-32.09,17.82-28.52,2.55,1.59-4,28-1.06,29.83,4.42,2.76,8.63-18.33,10.66-17.06.32.2-5.24,9.52-4.21,10.16,5.27,3.29,6.15-19.52,10.5-16.8,1.63,1-5.57,23.58-5.33,23.73,5.42,3.38,14.42-30.92,17.94-28.72,6.87,4.29,12,27.51,15.85,29.94,2.83,1.77,15.28-30.38,17.94-28.72,8.4,5.25,3.31,20.65,15.72,28.4,6.42,4,9.91-16.92,10.38-16.62,3.55,2.21,9.33,11.44,18.3,17,6.77,4.23,10.24-22,12.78-20.46,6,3.76-9.32,12.35-4.08,15.63,3.51,2.19,7.5-13.5,8.17-13.08,7.78,4.86,31.58,5.11,32.8,5.88,7.21,4.5,1.11-15.4,7.23-11.57,2.35,1.47-9.93,13.2-5.89,15.73,6.81,4.25,7.39-15,8.82-14.1,2.13,1.33-17,23.51-13.36,25.78,7.14,4.46,10-22.84,13.08-20.93,1.17.73-7.22,9.29-3.25,11.77.47.29.13-10.43,4.72-7.56,2.29,1.42.4,9.11,5,12C750,48,753.54,18.76,758.68,22c.46.29,5.83,16.19,8.39,17.79.52.32-.78-11.1,4.77-7.63,4.65,2.9,11.86,6.74,18.66,11,3.82,2.39,4.17-12.94,7-11.18.72.45,8.89,15.41,11.84,17.25,1.61,1,12.23-24.92,14.64-23.42,0,0-11.21,14-3.77,18.67,1.72,1.08,4.18-17.67,9.11-14.58,5.33,3.33,7.08,4.74,12,7.81,3.6,2.25-3.57-4.82,1.16-1.86,6.6,4.13,15.73,2.59,18.87,4.55,4.55,2.84,1.82-17.46,8.35-13.38,2.81,1.76,3.08,17.54,4.84,18.64,0,0,3.58-17.89,9-14.47,1.31.82,7.32,8.74,7.64,8.94,4.08,2.55-4.66-3.78.39-.62,0,0,19.92,5.45,21.89,6.68,7.09,4.43,4.55-12.22,6.77-10.84,6.4,4-1.83,13.74.81,15.38,1,.63,12.07-20.5,12.6-20.17,1.88,1.18-15.21,20.49-8.06,25,4.39,2.74,3.14-18.93,9.38-15,11.12,6.95,17.92,11.61,24,15.38,4,2.48,7.84-15.24,9-14.48,3,1.88,2.16,8.58,4.66,10.14,6.26,3.91,4.16-9.77,5.56-8.9,6.56,4.11,8.41,10.86,14.72,14.8,1.55,1,2.52-19.53,9.49-15.17,3.64,2.28,1.45,7.3,4.4,9.14.52.32,2.89-15,7.54-12.06,10.72,6.7,20.05,2.22,25.2,5.44,1.55,1-.26-5.68,2.48-4,8.64,5.41,21.42,4.36,22.91,5.3.46.28,1.75-11,5.42-8.67,2.34,1.46-17.79,16.07-9.43,21.29.91.57,7.28-21.23,11.58-18.54,6,3.73,4.38,15.83,4.61,16,3.37,2.11,3.09-13.33,6.86-11,2.08,1.3,1.71,8.29,2.3,8.67,4.27,2.66,6-16.48,9.09-14.55,9.68,6,14.39,8.4,25.84,15.55,1.1.69,12.49-21.91,13.36-21.37,4.34,2.72,5.13,11.15,14,16.68,2.24,1.4-5.65-6,1.1-1.76.43.27-8,12.06-3.56,14.81,1.53,1,12.43-26,15.17-24.28,1.34.84-1.39,16,4.7,19.82,2.54,1.58,3.53-15.88,8.13-13,1.61,1-3,6.81-2.43,7.16,1.83,1.14,4.06-12.29,6.66-10.66,1.59,1-2.14,9.71-.7,10.61,5.63,3.52,3.35-9,5-7.94,4,2.49,3.55,7.91,6.34,9.65,1.44.9,8.39-20.38,11.51-18.43,3.52,2.2-21.9,21.9-15.16,26.12,2.82,1.76.8-14.67,6.82-10.91,3.88,2.42,6.53-3.29,10.51-.81,6.46,4-2.76-4.88,1.42-2.27,6.41,4,12.65,11.6,14.07,12.49,5.8,3.62,9.81-16.16,10-16,3.5,2.18,3.61,9.83,8,12.58,2.93,1.83-1.7-9.76,3.91-6.26,1.42.88,22,.18,27.77,3.77s2.39-9.94,5.14-8.22c3.29,2.06,2.47,8.25,4.21,9.34,3.11,1.93,1-3.09,1.68-2.68,6.69,4.18,12.66,7.53,16.37,9.85.46.29,9.48-23.51,13.23-21.17,5.92,3.7.59,10.91,5.46,14,3.92,2.45,3.11-18.76,9.3-14.89,5.85,3.65-12.82,28.33-10.61,29.72,1.24.77,15.16-31,18.18-29.09,1.45.91-20.16,27.64-15.15,30.77,1.83,1.14,11.84-27.35,15.62-25,7,4.4-7.62,16.2-6.49,16.91.67.42,12.48-23.55,14.09-22.55,2.3,1.44,1.44,22.22,13.31,29.64,4.37,2.73,4.45-18,9.32-14.91,5.27,3.3,17.11-.15,27.78,6.51,1.74,1.09,5.08-10.54,6.16-9.86,11.84,7.4,15.8,14.71,22.77,19.06,3.34,2.09,7.91-13.63,8.35-13.36,10.88,6.8-19.26,24.56-8.21,31.46,3.5,2.19-4.06-18.1,7-11.19,10.75,6.71-35.75,92.77-27.25,98.08,15,9.35,6.47-56.17,27.06-43.31,31.9,19.93-102.64,117.79-67.72,139.62,3.07,1.91,28.51-101.55,53.64-85.84"/><path class="cls-2" d="M2.22,28.68C4.11,29.86,10.69,7.47,14.13,9.62c.34.22-11.84,14.9-6.48,18.25C16.74,33.55,15.28,1,21.86,5.13c3.71,2.32-36.7,39.12-13.79,53.44C12.65,61.43,18.29,30.4,23.6,33.72c14.19,8.86-21.67,39.85-7.71,48.57.17.11,10.55-28.78,15.9-25.44C38.73,61.19,11.43,82,19.27,86.9,24.82,90.37,35.14,59.4,36.08,60c6,3.75-13.95,36.83-1.46,44.63,4.56,2.85,7.71-26.11,13.9-22.25,14,8.76,1.16,34.94,1.52,35.16.86.53-3.24-7.22,2.34-3.73,1.12.69-.52,5.13,2.23,6.86,6,3.72,1.67-6.66,3.46-5.54,1.35.85-2.33,34.21,3.41,37.8,1.62,1,7.59-25.89,13.77-22,6.91,4.32-1,18.12-.92,18.2,2,1.26,6.13-20.37,10.87-17.4,3.22,2-10.93,27-8.58,28.48.84.52,7.53-20,11.09-17.74,8.49,5.31-9.37,32.2,1,38.65,2.52,1.58,5.51-19.82,10.45-16.73,5.18,3.23,7.85,19.13,9.22,20,3.19,2,2.47-11.65,5.93-9.49,3.64,2.28,5.38,28.69,8.39,30.57,1.32.83,1-3.12,1.68-2.68,6.92,4.32-5.87,17.81,1.81,22.61,5.11,3.2,10.57-26.92,15.07-24.11,10.53,6.59-11.78,32.82,7.12,44.62,5.51,3.45,11.9-26.36,15.19-24.31,8,5-18.78,23.39-14.35,26.16,4,2.52,5.88-13.62,7.77-12.44C168,242.17,168.36,261,171.24,262.8c3.52,2.2,10.37-21.9,12.76-20.41,10.77,6.74,11.8,22.9,12.8,23.52,4.79,3,3-11,5.81-9.29,1.78,1.11-6,36.21,4.47,42.78.31.19,13.87-31.38,18-28.8,9,5.64,10.23,26.89,12.95,28.59.78.49-2.48-6,2-3.17.53.33-3.26,2.6-2,3.36,5.78,3.61-2.74-5.78,1.82-2.93,2.92,1.83-.19,13.76,8.67,19.3,5,3.1,3.62-13.8,7.22-11.55,6.44,4-10.2,13.94-2.37,18.83.17.11,2.95-9.16,4.94-7.92,5.29,3.31,12.7,17.15,19.31,21.28,3.17,2,5.15-21.37,11-17.68,11,6.84,2.81,25.3,15.47,33.21,1.83,1.14,5.36-14.21,7.89-12.63,10.09,6.31,8.45,19.53,15.74,24.08,4.67,2.92,9.25-21.52,12.27-19.63,12.57,7.86,14.1,28.82,14.18,28.87,2.48,1.55,9.86-17.46,10.62-17,5.23,3.27,16.37,17.6,17.64,18.4,2.47,1.54-.09-6.73,3-4.8,1.3.81,4.62,6.22,8.58,8.69,6.39,4,6.92-19.28,10.61-17,5.74,3.59,14.85,9.76,19.41,12.6s-5.11-7.9,2.12-3.39c.44.28,0,8.36,2.94,10.21,6.51,4.07,3.24-15.42,7.84-12.55,5.71,3.57,11.29,6.83,14,8.5,2.26,1.42-.08-10.56,4.72-7.56,5.41,3.38,12.25,9.37,18.87,13.5,4,2.52,3.29-9.54,5.21-8.33s8.42,9.1,10.64,10.49c3.85,2.41,13.71-24,14.64-23.44,11,6.87,3.38,17.52,12.42,23.17,3.59,2.24,8.46-24.08,13.2-21.12,5.21,3.25,3.88,25.73,5.66,26.83,3.28,2.05,5.87-20.8,11-17.59,1.35.84,2.94,8.75,9,12.54,1.61,1,4-22.68,11.33-18.14,2.61,1.64,0,16.22,5.25,19.49,1.24.77,7.84-28.11,14.83-23.74.54.34-5.49,10.9-1.59,13.33,2.48,1.55,5.11-8.37,5.2-8.32,4.37,2.73,12.32,6.33,24,13.59,4.59,2.87,2.32-18.22,8.84-14.15,1.37.85,12.53,17.94,12.63,18,3,1.86,2.82-16.13,8-12.87a79,79,0,0,1,8.75,4.4c6.35,4,1.18-13.54,6.41-10.27,6.55,4.09,3.18,24.49,5,25.61.54.34,5.44-22.39,11.59-18.55,8.93,5.59,12.28,2.2,20,7,2.37,1.48,10-17,10.44-16.72.85.54-6.13,14.87-.45,18.42,7.11,4.45,5-15.7,8.44-13.52,2.69,1.68,15.79,8.4,17.39,9.4,5.3,3.32,7.4-19.39,10.79-17.27,4.29,2.68-22.28,19.43-11.72,26,.58.37,3.48-19,9.53-15.25,1.59,1,6.51,13.8,13.57,18.22,4.3,2.68,9.07-26.66,14.53-23.25,2.39,1.49,9.49,11.43,11.73,12.83,1.31.82,6.57-15.89,9-14.38,6.62,4.14-9.5,22.88-7.58,24.08,5.76,3.6,15.41-27.2,16.55-26.49.28.17-7.22,13-5.59,14.07,4.19,2.62-2.19-4.88,1.58-2.52,4.1,2.56,4.89,3.32,8.47,5.56,2.73,1.71,7.27-20.58,11.3-18.07,10.91,6.82-3,23.78,2.6,27.29,4,2.52,17.54-30.05,18.43-29.5,11.35,7.1,6,21.53,13.19,26s5.45-19.06,10.1-16.16c3.45,2.16-10.87,12.54-8.12,14.26,4.36,2.72,6.39-15.17,8.61-13.78,4.9,3.06,24.52,5.26,26.39,6.42,1.5.94,3.58-14.81,7.66-12.26,2.19,1.37,19.77,16.63,20.59,17.15.34.21.93-18.29,8.48-13.57,4.77,3,5.08,11.9,9.55,14.69,4.11,2.57,3.55-10.14,5.56-8.89,1.18.74-2.52,9.65,2.79,13,5.12,3.2,11.71-32.21,17.76-28.43,5,3.14-1.88,21.47,9.24,28.42,1.72,1.07,12.55-31.63,17.74-28.39,9.16,5.72,17.43,16.22,17.67,16.36,4.18,2.62,2.61-17.91,8.78-14.05,5.05,3.15,11.23,10.05,14.27,11.94,6.92,4.33,3.29-5.48,3.39-5.42.46.29-.86,4.34,1.23,5.64,1.92,1.21,3-15.28,7.7-12.33,5.68,3.55-2.09,21.77,1.83,24.21,4.6,2.88,11.29-30.21,16.74-26.8,2.52,1.58-12.14,20.6-6.4,24.19,7.51,4.69,6.68-14.5,8.4-13.43,1.3.81,8.52,3.39,9.31,3.88,3.55,2.22,5.8-14,7.92-12.68,7.39,4.61,14.42,6.35,16.33,7.55,2.8,1.75,4.23-7.33,4.48-7.18,4.72,2.95-2.27,11.57.58,13.35,3.28,2,3-8.6,4.71-7.54,2.31,1.44,9.42,5,10.94,5.94,6.67,4.16-3.57-9.52,3.28-5.25,5.06,3.17,17.59,10.44,22.32,13.39,3.75,2.35,8.8-22,12.34-19.76.46.29,26.07-.45,28.67,1.17.64.4-.87-10.09,4.29-6.87,4.54,2.85-17.23,14.26-10.69,18.35.2.12,1.08-18.22,8.5-13.59,3,1.85,21.57,2,23.29,3.07.49.31,8-17.82,10.25-16.41,1.8,1.13,8.2,16.57,11.09,18.38,3.93,2.45-.15-14.31,6.39-10.22,1.45.91.6,4.77,2.65,6.05.68.43,8.09-22.27,12.28-19.65,10.9,6.82,16.2,9.29,27.48,16.34,7.52,4.7,1.54-20.37,9.58-15.34,3,1.85,25.59-13.48,38.94-5.14,9.49,5.93,26-152.24,75.73-121.2,13.18,8.24-45.72,83-41.06,85.92,3.08,1.92,15.41-28.68,17.22-27.55"/></g></g></svg>