<svg xmlns="http://www.w3.org/2000/svg" viewBox="0 0 588.09 589.28"><defs><style>.cls-1,.cls-2{fill:none;stroke-linecap:round;stroke-linejoin:round;stroke-width:2px;}.cls-1{stroke:#fbb03b;}.cls-2{stroke:#f7931e;}</style></defs><g id="Ebene_2" data-name="Ebene 2"><g id="Ebene_1-2" data-name="Ebene 1"><path class="cls-1" d="M460.36,212.78C532.85,152,319.42,71.12,332.37,60.26,345.9,48.9,454.56,212,465.28,203,473.17,196.42,353.16,89.31,363,81.09c.84-.7,48.34,131.86,91.61,95.56,18.17-15.25-93.78-62-69.3-82.58,35.82-30,54.58,128.38,86,102,41-34.43-129.69-81-93.48-111.4,11.2-9.4,65.06,105.35,82.73,90.53.68-.57-76-54.7-58.33-69.52,10.45-8.77,22.4,25.91,28.65,20.66,1-.84-16.39-.06-6.8-8.11,4.67-3.91,9.33,13.22,13,10.14,2.2-1.85-28.89-25.73-24.6-29.33,3-2.48,21.1,41.51,31.55,32.74,6.5-5.45-5.25-5.83-5-6,6.2-5.2,13.5,8.8,18.93,4.25,1.22-1-15.15-5-8.69-10.37.29-.25-.6-7.07,1.12-8.51,4.85-4.08-17.3-17.94-16-19.05,10.21-8.56,18.78,40.1,30.68,30.11.56-.46-16.32-15.4-14.32-17.07,3.34-2.81,12.42,11.44,16.48,8,1.06-.88-24-24.28-21.87-26.06,3.14-2.62,14,15.6,14.11,15.5.54-.46-4.42-4.28-3.93-4.69,2.37-2,17,22.16,21.72,18.24.18-.16-4.1-3.12-3.23-3.85,5.15-4.32-12-17.68-10.07-19.33.09-.07-.24-.18-.19-.23"/><path class="cls-1" d="M323.64,71.33c.86-.72-20.38-17.75-17.16-20.45,3.53-3-6.3-15.4-4.46-17,2.58-2.17-5.27,1.17-1.6-1.91,7.78-6.53,18.8,11.4,19.44,10.86,1.34-1.12-4.37-4-3.75-4.47.89-.75,5-.62,5-.64S303.93,17.38,304,17.33"/><path class="cls-1" d="M449,324.41C480,298.46,154.16,107,220.13,51.63c126.72-106.33,188.69,337.56,248,287.82,94.5-79.29-243.16-281.27-239-284.78,104-87.24,183.09,285,221.4,252.87,95.06-79.77-314.15-119.85-188.81-225C288.61,60,422.78,367.22,474.2,324.06c29.61-24.84-309-194-223.2-266,11.81-9.9,149.51,322.71,221.1,262.63C579.66,230.44,237.15,56.63,245,50c77.68-65.18,148.61,303.25,217.13,245.75,6.91-5.79-248.5-169-185.91-221.56C313.46,43,366.07,370.94,468.36,285.11c81-68-209.11-203-186.38-222.12C346,9.25,440.48,314.38,478.6,282.4c77-64.59-256.46-143.07-176.42-210.24,39.63-33.24,93.18,277.11,180,204.24C521,243.87,210.35,102.06,284,40.22c45.19-37.91,179.89,230.26,192.8,219.43,99.63-83.6-221.48-146.61-163.7-195.1,96.1-80.63,162.4,242.08,190.34,218.63,25.34-21.26-275.66-134.83-180.29-214.86C325.35,66.5,475.93,255,484.71,247.6,538.46,202.49,272.82,156.8,352.45,90,365,79.46,470.22,286,500.14,260.86c2.2-1.84-49.34-28-34.16-40.71,9.45-7.94,16.12,29.91,21.82,25.13,11.75-9.86-26-27.64-24.34-29,22.77-19.11,43.8,50.84,50.14,45.52,10.24-8.59-27.18-27.74-24.89-29.66,2.67-2.24,17.52,27.4,23.41,22.46,7.73-6.48-28.77-16.13-19.83-23.63,11.64-9.77,20.37,25.78,21.56,24.78,2.91-2.44-10.6-4.11-6.41-7.63,7.65-6.42,17.44,29.07,28.16,20.08,5.94-5-15.7-17.26-15-17.86,5.68-4.77,17.07,8.4,18.86,6.9,1.5-1.26-16.4-9-11.19-13.34.18-.15,2.51.51,3,.07,1.1-.91-10.91-9.57-9.22-11,13.44-11.28,22.6,25.1,29.39,19.4,1.74-1.46-5.21-2.68-3.48-4.14.72-.6-5.29-10-3.32-11.67.67-.56-2.68-1.48-1.83-2.18,1.57-1.33,4.24,1,4.71.59,0,0-.31-.24-.25-.29"/><path class="cls-1" d="M48.27,193.05c.32-.27-5-4.77-4.39-5.24.26-.22,2.55.68,3.21.12,5-4.19-18-16.69-15.65-18.66,16.87-14.15,32.24,54.36,44.71,43.89,13.69-11.49-41.56-28.78-31.34-37.35"/><path class="cls-1" d="M250.41,544.42c.12-.1-4.66-5.15-4.46-5.31,8.56-7.18,23.28,30.16,33.53,21.56,1.74-1.45-14.63-6.46-9.23-11,1.28-1.07,3.48-1,5.06-2.34.34-.28-25.62-24.3-22.55-26.88,6.39-5.36,14.68,17.07,16.59,15.46,5-4.17-21.4-15.37-16.41-19.56,5.87-4.93,10.77,9.54,15.22,5.81,9.35-7.85-10.82-1.36-5.14-6.13,1.43-1.2,4.28-3.5,6.22-5.13.38-.32-40.09-42.27-37.38-44.54,21-17.59,36.52,44.48,43,39.05,4.35-3.65-38.89-3.76-17.92-21.36,16.45-13.8,30.3,32.44,31.58,31.36,17.48-14.66-53.89-41.87-42.88-51.1,19.22-16.13,16.54,56.8,35.94,40.52C347.67,449.39,19.63,294.53,69.8,252.44,154.26,181.56,189,553.15,272.46,483.11c111.07-93.2-293.63-147.26-193.83-231,12.66-10.62,106.82,297.42,195.5,223C321.81,435.11,18,286.87,75.61,238.53c70.84-59.44,139.47,305.76,215.48,242C381.56,404.6-20.33,326.28,86.48,236.66,199.74,141.63,217,556.1,302.11,484.71c6.24-5.23-326-202.14-234.25-279.17C101.84,177,229.65,506,288.94,456.28,338.8,414.44-7.61,240.27,60.05,183.5c19-15.94,202,296.77,236.74,267.63,107.59-90.27-328-141-204.94-244.24C101.55,198.74,203.93,527,299.27,447,370.85,387-36.14,265.1,71.1,175.11,103.44,148,199,554.63,312.47,459.39,332.42,442.65,44.92,216.1,82.13,184.88,99.93,169.94,225.07,562,327.34,476.19c69.17-58-350.52-218.84-252.58-301C175.38,90.74,242.62,515,314.27,454.87c121.82-102.22-236.19-257-224.14-267.11,34.22-28.71,216.73,269.38,223.94,263.33C418.32,363.61,72.13,200.69,90.81,185c101.5-85.18,111,371.37,231.84,270C450.68,347.59,34.82,203.13,79.7,165.47c82.65-69.35,210.71,339.13,259.72,298,99-83.06-318-203.09-231.38-275.75,81.58-68.45,187.23,294.41,229.81,258.68,22.08-18.52-247.73-258.16-229.48-273.48C148.6,139.17,225.61,618.73,384,485.85c43.23-36.28-283.34-305.72-267.6-318.92,57.6-48.34,206.79,464.19,319,370,.66-.55-392.46-311.31-315.45-375.93,170.39-143,187,443.42,297.34,350.79C519,426.43-77.29,279.82,98.7,132.15,183,61.39,303.3,573.07,409.2,484.21c18.58-15.59-284.77-329.36-279.84-333.5,132.35-111,127.33,445.54,277.39,319.62C482.14,407.06,38.5,189.84,116.48,124.4c50.17-42.1,163.21,459.56,296,348.16C457,435.17,34.54,227.88,135.82,142.89c34-28.55,249.1,326.07,268.79,309.55C409.85,448,53.14,185.94,128.17,123c72.47-60.81,185.28,371.26,267.14,302.56,12.05-10.11-308.8-270.87-261-311C281.82-9.22,333.44,491.47,404.53,431.81c79-66.31-273.25-299.31-260.29-310.19C207.61,68.45,368.9,428.93,396.61,405.67c16.65-14-271.81-277-248.72-296.41C159.83,99.24,345.65,472,411,417.15c71.43-59.94-351.11-225.52-256.12-305.23C190.07,82.37,318.32,478.21,409.17,402,518.26,310.43,32,184.16,146.09,88.44c83.68-70.22,274.45,317.72,277.25,315.38C576.27,275.49,97.6,124,151,79.21c4.83-4,164,395.48,269.31,307.14C431.92,376.57,103.5,113.12,154.85,70,264.92-22.32,405,400.85,428,381.56,548.75,280.21,94.52,169.91,186,93.18,253,36.94,372.44,417.25,426.24,372.1c91.42-76.7-320.3-187.83-224.83-267.94C299,22.26,364.28,429.05,433.6,370.89,543,279.06,121.39,149.25,195.47,87.09,304.4-4.31,322.9,519.94,465.25,400.49c133.5-112-328-277-271.91-324C325.52-34.47,372,441.79,448.81,377.31,463.9,364.65,65,206.12,205.92,87.85c83.84-70.35,147,405.75,267.93,304.26C539.06,337.39,135.28,106.2,193.17,57.62,230.78,26.06,331.83,525,488,394,549.85,342,143.56,162.05,231.48,88.28,351.92-12.78,362.72,518.82,500.88,402.89c5.25-4.41-367.55-259.47-279.63-333.24C347.65-36.41,412.24,443,489.5,378.21c96-80.58-272.56-312.72-266.6-317.72C335.43-33.93,484,438.07,520.94,407.11c14.7-12.34-58.92-25.47-36.88-44,1.71-1.44,6.76,23.21,15.16,16.16,1.91-1.6-48-25.65-32.46-38.69,24.4-20.47,41.91,78.62,63.06,60.87,0,0-9-9.54-8.41-10,2.7-2.27,19.35,23.55,21.83,21.47.31-.27-9.94-11.65-9.84-11.73"/><path class="cls-1" d="M32,356.73c.1-.08-5.54-6.32-5.4-6.44,4.65-3.9,9.2,4.91,13.32,1.45,1.67-1.4-5.79-4.93-4.82-5.75,2.41-2,6.42,10.1,11.11,6.17.81-.68-7.29-8.21-7.06-8.41.91-.76,2.23,4.35,3.37,3.39.58-.48-5.26,1.76-1.31-1.56,4.12-3.46,7.92-.93,11.71-4.11,4.57-3.83-14.92-8.57-10.38-12.37,3.32-2.79,10,20.68,15.8,15.86,0,0-26.41-15.11-18.35-21.88,3.48-2.92,21.59,30.14,28.3,24.5,9.53-8-11.94-6.83-8.3-9.89,2.21-1.85,17.64,31.23,23.64,26.19,2.69-2.25-28-26.34-24.53-29.23,8.72-7.32,15.77,26.79,28.06,16.48,8.63-7.24-19.54-1.88-9-10.73,6.83-5.73,13.9,14.91,14,14.86,12.47-10.46-36.64-16.77-23.4-27.88,13.77-11.56,25.94,41.57,36.16,33,15-12.59-39.44-40.19-36.08-43"/><path class="cls-1" d="M134.55,401.07c8.49-7.12-19.37-20.37-18-21.49,2.34-2,8.1,25,16.84,17.66,19-15.91-36.51-9.19-19.61-23.37"/><path class="cls-1" d="M116.54,499.7c.1-.09-7.6-9-7.57-9,3.84-3.22,13.26,10.18,13.7,9.82.17-.15-9.15-10.44-8.92-10.63,1.3-1.1,7.79,8.65,9.67,7.08.87-.73-20.1-22.36-19.31-23,.1-.09,15.58,14,19.18,10.94,1.4-1.17-8.49-4.86-5.9-7,8.85-7.43,13.64,29.56,25.54,19.57,2.14-1.79-41.64-39.88-36.84-43.91,2.48-2.07,11,26.92,19,20.19,5.34-4.47-10.57-5.77-7.21-8.59,4.08-3.43,5.65,11.5,9.63,8.16,2.65-2.22-21.61-24.06-20.78-24.76,12.91-10.83,40,44.16,44.2,40.65,2.22-1.86-27.67-32.12-27.25-32.47,1.32-1.11,12.15,6.5,12.63,6.1,7.43-6.23-27.19-23.18-22.65-27,4.71-4,27.88,61.28,42.82,48.75,8.32-7-30.17-31.56-28-33.37,15.12-12.7,30.44,26,31.58,25,.83-.7-43.89-36-35.85-42.73,6.82-5.73,21.34,39.63,36.82,26.65,6.19-5.2-35.85-32.55-30.84-36.75.34-.29,18.61,20.57,20.44,19,13.4-11.25-32.45-12.9-19.76-23.54C141,410.4,158.12,457.48,167,450c12.52-10.51-19.54-21.35-18.58-22.15,9.67-8.12,32.45,33.68,37.33,29.58,13.57-11.38-89.54-59.36-66.22-78.92,29.78-25,48.55,75,57.05,67.85C215.2,414,80.76,365.88,97.37,352c33.37-28,48.78,126,90.27,91.17C218.81,417,38,348.13,79.06,313.71,148,255.88,162.94,493.27,202.48,460.09,222.38,443.39,59.55,317.45,73.19,306c11.54-9.68,49.68,181.47,110,130.83C240.17,389.05,68.12,357.7,96.7,333.72c43-36.09,58.8,111.08,80.76,92.66C217.17,393.06,63.88,340,88,319.76c21.87-18.35,43.57,166.65,100.88,118.57,20.56-17.25-162.29-90-111.37-132.72C86.88,297.74,187.84,453.85,200,443.66,262,391.61,46.59,319.05,75.25,295c20.6-17.28,108.86,200,144.32,170.23C233.66,453.41,69,306.08,79,297.7c35.32-29.64,86.46,177.61,129.46,141.53C242.4,410.75,64,293.34,77,282.5,137,232.08,170.26,537.41,250,470.49,345.52,390.34,7,358.84,94.6,285.29,163.21,227.72,203.51,516,254.07,473.61c28.6-24-269.55-134.94-177.81-211.91C101.86,240.21,156,553.27,252.88,472c14.8-12.42-248.83-149.44-176.4-210.22"/><path class="cls-2" d="M325.61,59.85c10-8.4-25-7.88-14.21-16.93.7-.59,12.27,18.16,20.9,10.91,5.3-4.44-27.38-27.7-24.95-29.74,2.59-2.18,4.6,3.45,6.92,1.5C314.56,25.35,293.71,6,296.11,4c12-10.06,15.82,31.86,29.56,20.33,1-.81-15.58-17.5-15.06-17.94,2.34-2,3.08-3.51,4.68-4.85.2-.17-.44-.46-.41-.49"/><path class="cls-2" d="M35.19,195.84c.72-.6-25.13-28.37-24.35-29,7.41-6.22,32.54,31.89,34.08,30.59,9.7-8.14-27.93-16.86-19.84-23.65,19.91-16.7,40,45.88,41.81,44.38,3.43-2.88-55.56-29.74-37.6-44.8,17.46-14.66,37,63.3,48.11,54,19.83-16.64-52.4-37.59-40.16-47.86"/><path class="cls-2" d="M128.57,405.56c10.56-8.86-10.85-11.69-10.25-12.2s1.59,1,1.76.83c1.71-1.43-23.27-23.83-21.35-25.44"/><path class="cls-2" d="M106.25,355.82c1.4-1.17-18.15-15.84-15.3-18.23,1.88-1.58,23.21,37.51,29.1,32.58,3.09-2.6-33.42-31-29.07-34.65,6.68-5.61,13.37,24.09,18.78,19.56,1.6-1.35-6.65-5.4-5.41-6.44.22-.18,2.85,2.49,3.15,2.24s-2.21-1.8-1.8-2.15"/><path class="cls-2" d="M128.41,473.32c1.54-1.29-7-3.56-4.64-5.53,2.56-2.15-.8-12.23,1.91-14.5,4.26-3.58-24.31-16.44-18.14-21.62,9.41-7.89,17.07,45.16,30,34.28,4.11-3.44-26.58-30.61-26-31.05,11.83-9.92,14.06,32.65,22,26,5.07-4.26-15.57-8.39-10.56-12.59,3.86-3.25,10.26,7.82,16.31,2.74,2.93-2.46-19.85-12.93-14.57-17.37,1.23-1,13.48,14.69,15.44,13.05,1.13-.95-15.5-8.47-10.57-12.6.35-.29,2.12,3.12,3.15,2.25,3-2.56-5.2,0-2.16-2.57.39-.33.2-4.1,1.89-5.52.77-.64-18.65-13.07-14.14-16.85,14.08-11.81,18,34.48,24.92,28.68,4.59-3.85-11.56-11.78-10.58-12.6,3.26-2.74,24.84,12.46,25.23,12.14,6.07-5.1-22.37-19.55-18.87-22.49,7.33-6.15,12.29,39.21,25.39,28.22,8.88-7.45-73.11-45.34-52.53-62.6,2-1.72,20.67,47.46,35.65,34.89,20.16-16.92-58.07-45.3-46.3-55.17C118,348.38,151.5,434.34,157.89,429c17-14.24-80.06-71.94-68.51-81.64,16.17-13.56,58.11,85.23,73.5,72.32.2-.17-11.78-12-10.75-12.82,10.94-9.18,16.66,24.67,19.06,22.66.36-.3-10-11.7-9.9-11.8"/><path class="cls-2" d="M1.26,356.61c.05-.05-.33-.23-.25-.29,9-7.56,17.49,22.06,24.4,16.26,2.48-2.08-4.87-3.64-3.81-4.54,1.61-1.34,2.74,10.3,6.3,7.31,2.1-1.76-24.64-25.25-22.61-27,5.92-5,20.94,10,21,9.9,2.39-2-10.3-10-9.17-10.92,3.44-2.88,12.28,11.36,12.53,11.15,2.33-1.95-10.45-12.27-10.36-12.35.3-.25,7.63-3.15,8.71-4.06,1.45-1.21-21.66-14.95-16.31-19.44,9.87-8.28,22.47,42.11,38.48,28.67C53,349,18,334.48,28.58,325.6c4.93-4.13,22.06,26.16,23.7,24.79,8.14-6.84-36-27.9-28.61-34.1C50,294.23,71.89,396,90.58,380.36c6.48-5.44-36.75-35.47-32.65-38.91,7.53-6.32,26.09,33.28,31.52,28.72,7.57-6.35-14-5.51-8.5-10.12.33-.27,3.84,5.07,5.52,3.65,6.93-5.81-9.48-3.69-5.74-6.83,2-1.64,9.24,8.26,12,5.93C93.66,362,73,352.4,79.47,347c13-10.92,21.52,32.15,26.77,27.74C109.51,372,90.1,366.59,95.57,362"/><path class="cls-2" d="M53.76,346.49c3.07-2.57-10.08-3.84-6-7.22.62-.52,7.28,6.25,10.44,3.6,1.5-1.26-6.15,2.74-1.19-1.42,1.48-1.24,9.74-4.24,10.58-4.94,5.58-4.69-12.55-9.31-9.77-11.64,3-2.48,13.47,10.4,16.32,8,.42-.35-13.37-8.62-9.77-11.64,1.32-1.11,7.06-.4,7.41-.7,1.68-1.41-13.56-13.92-12.46-14.84,0,0,7.93,7.54,9.39,6.31.85-.71-10.36-7.38-7.92-9.44,11.73-9.84,29.08,21.8,29.76,21.23,8.5-7.13-16.84-15.51-14.59-17.39,3.38-2.84,12.46,2.95,15.37.51,1.68-1.41-23.78-18.33-18.85-22.46C79.87,278.21,93.62,315,102,308c9.14-7.68-23.54-10.1-14.7-17.52C90.81,287.56,87,279,90.61,276,99,269,54.12,247.51,61.49,241.33c10.25-8.6,18.87,30.61,24.74,25.69,3.8-3.19-16.43-15.69-14.51-17.3,6.91-5.8,18.65,19.49,21.83,16.82,5.69-4.77-20-18.5-17.39-20.72,3.3-2.77,17.1,28.93,23.74,23.36,3-2.48-34.63-40.12-34.06-40.6C81,215.85,90.48,262.86,97.08,257.32c5.84-4.9-19.79-21.2-18.61-22.18s11.58,2.45,12.66,1.55c8-6.69-84.25-54.15-61.47-73.26,19.61-16.45,39.89,87,64.64,66.26C100.16,224.78,67,201,68.85,199.37c2.34-2,20.26,29.72,25,25.73,0,0-13.64-15.38-13.21-15.74,1.15-1,10.22,9.58,10.65,9.22,1.2-1-3.18-1.47-2-2.43"/><path class="cls-2" d="M52.58,180c5.58-4.69-18.59-7.68-11.46-13.66,8.19-6.87,15.64,43.53,30.3,31.23C76,193.67,55,182.79,57.36,180.77c3.61-3,27.48,29.82,34,24.32,1-.81-7.14-5.54-5.67-6.77,1.14-1-11.22-10.84-6.16-15.09,5.9-4.95-16-18.48-15.69-18.7C70.57,158.91,96.13,195,99.72,192,101,190.92,86.65,181.15,89,179.2c4.23-3.55.13-10.31,1.86-11.76.8-.67-6.91-5.2-5.42-6.45s19.48,16.54,21.75,14.63c4.45-3.73-14.3-9-10.32-12.3,4.54-3.8,9.7,8.36,14.77,4.11,4-3.36-11.94-10.56-10.13-12.07,3.55-3,16.52,27.82,24.3,21.29,0,0-19.92-20.8-18.47-22,3.89-3.27,7.43,9,12.08,5.06,5.59-4.69-16.92-8.46-11.16-13.3,3.19-2.68,14.85,16.37,16.51,15,0,0-15.45-6.78-9.72-11.58,2.29-1.92,5-3.8,5.1-3.92,1.56-1.3-12.19-4.71-7.36-8.77,4.27-3.57,12.42,8,17,4.11,1.86-1.57-12.33-9.4-9.72-11.58,8.9-7.47,22.45,23.1,27.76,18.65,3.18-2.67-15.74-14.76-13.78-16.41,1.23-1,7.2-3.53,8-4.18,4.54-3.81-13.64-8.06-9.61-11.45,4.73-4,9.12,25.49,17.42,18.52,5.1-4.28-17.06-12.59-13.24-15.79,2-1.72,11.62,8.27,16.07,4.54,2.56-2.16-24.44-23.06-21.45-25.56,5.42-4.55,19,21.94,19.31,21.7,5.24-4.4-14-7.73-9.57-11.4,7-5.86,15.34,13.92,21.37,8.86,5.17-4.34-14.85-13.59-12.83-15.29,11.41-9.57,19.08,24.88,21.85,22.56.28-.24-35.24-34.55-31.57-37.63,7.69-6.46,21.34,32.82,32.67,23.31,2.05-1.72-26.1-21.68-21.46-25.57,3.23-2.72,9.17,21.92,14.62,17.35,4.83-4.06-5.85-5.33-5-6s-.64-5-.38-5.19c1.06-.88-24.81-26.58-23.34-27.82,6.68-5.6,8.53,21.45,15.3,15.78,12.71-10.67-21.95-.22-9.18-10.94C149.73,62,163,82.28,164.67,80.9c.42-.36-42.14-30.76-32.56-38.8,11.34-9.52,25.31,64.43,45.73,47.29,2-1.67-73.62-34.21-47.26-56.32,25.23-21.17,24.66,72.48,50,51.18.2-.17-28.47-15.81-19.55-23.3,8.48-7.12,37.07,38.19,42.21,33.87,1.13-.95-3.88,1-1.12-1.33S196.09,83,198.21,81.24c4.82-4-14.88-9.68-10.91-13,1.91-1.6,18.16,35.33,31.24,24.35.12-.1-14.24-5.23-8.46-10.08,8.77-7.36,7.91,26.38,16.42,19.24,4.76-4-41.52-46.61-40.1-47.8s13.73,13.37,14.7,12.55c2.82-2.37-6.84-2.24-3.93-4.68,2.52-2.11,24.05,35.31,28.71,31.4,3.18-2.66-13.2-8.39-9.58-11.42,2.14-1.8,5.41-1.46,6.67-2.51,4.57-3.84-11.19-11.64-10.35-12.34,5.41-4.55,20.51,10.19,21.47,9.38,2.83-2.38-14-9.82-10.62-12.66,1.71-1.44-.11-3.72,1.15-4.78,6.22-5.21-12-7.65-8.72-10.39,5.16-4.32,30.8,27.13,33.43,24.92,6.58-5.51-13.11-11.49-11.08-13.2,2.84-2.38,11.32,8.28,13.41,6.52,2.52-2.12-5.14-3.48-3.83-4.57C254,57,258.59,73.71,260.52,72.09c6.76-5.67-16.42-9.52-11.47-13.67,5.53-4.65,14.52,16.22,18.12,13.19,1.33-1.11-16.2-10.22-11.73-14,7-5.85,11.42,20.69,18.39,14.84,4-3.39-22-16.82-17.38-20.71.38-.32,13.07,28.27,23.48,19.53,6.17-5.18-17.94-6.5-10.61-12.65,9.47-8,21.21,27.83,27.76,22.34,4.58-3.84-21.08-23.38-20.22-24.1,11.59-9.73,26,33.31,33.8,26.77,3-2.49-19.08-12.31-14-16.62.11-.09-2.17-3.43-1.18-4.25.59-.5-16.5-19-16.19-19.29C295.71,29.76,303.16,81,310.32,75c3.87-3.26-9.69-3.66-5.8-6.91,1.48-1.25,1.63-3.79,2.32-4.37,2.44-2.05-16.13-10.15-11.66-13.9C299.86,45.88,310,60.43,311,59.59c6.34-5.31-4.94-5.82-4.9-5.85,5.68-4.77,11.58,15.87,15,13,2.53-2.12-36.52-36.47-33.05-39.38"/><path class="cls-2" d="M315.13,75c.48-.4-1-1.18-1-1.18,5-4.24,10.5,11.73,10.57,11.67,1.08-.91-10.51-10.64-9.58-11.42,1.86-1.56,22.74,32,32.47,23.78,3.48-2.92-59.55-48-48.25-57.51,28-23.48,45.53,63,51.84,57.71,7.27-6.1-73.9-68.63-64.33-76.67C299.34,10.91,343.33,110,355,100.24c2.62-2.2-52-37-39.68-47.28,7.64-6.4,13.37,19.19,17.14,16,2.77-2.33-35.53-39.38-34.07-40.61,12-10.06,38.8,60.32,49.83,51.06,5.37-4.5-17.52-20.06-17.12-20.4,17.24-14.46,30,34.85,34.06,31.4,2.28-1.91-9.41-7-7.32-8.72.85-.72,15.87,34.78,25.49,26.71,1.24-1-50.27-43.12-42-50.06,17.88-15,28,41.84,32.3,38.23,12.89-10.81-12.79-12.1-11.24-13.39,6.36-5.34,7.09,15.3,13.21,10.16,8.73-7.33-24.4-6.54-13.31-15.85,3.94-3.31,21.76,47.53,37.72,34.14,20.13-16.89-39.54-31.1-31.66-37.72.3-.25,22.61,56.78,41.61,40.84,5.54-4.65-52.88-29.26-36.25-43.21S420.42,156.9,435.86,144c6.64-5.58-44.14-32.3-34.14-40.69,3.8-3.19,16.82,9.91,18.63,8.39s-4.46,1.39-1.16-1.38c5.27-4.43,26.54,19.48,26.65,19.39,1.91-1.6-14.41-15-13.32-15.87,1.45-1.21,7.46,2.65,7.6,2.53,5.18-4.35-15.32-6.77-9.66-11.51,5.11-4.29,9.29,13.11,15.83,7.63,4.91-4.12-13.08-8.64-9.66-11.51"/><path class="cls-2" d="M466.63,205.67c13.49-11.33-25.92-26-23.51-28,2.23-1.88,25.6,18.49,27.37,17,3.33-2.8-46.95-47.56-42.82-51,.24-.2,17.88,32.58,30.14,22.3,7.24-6.08-35.65-22.67-25.89-30.85,17.64-14.81,27,63.16,42.44,50.18C490.63,171.61,409.41,137,423.77,125c4.49-3.76,28.29,40,35.37,34.1.18-.15-31.84-28.82-27.34-32.59,6.62-5.56,15.94,13.55,19.9,10.23.58-.49-16.09-8-10.57-12.59,1.61-1.35,4.28,2.3,5.55,1.23s-20.83-19.4-18.16-21.64c2.42-2,17.69,33.61,26.25,26.42,4.35-3.65-10.71-12.47-10.56-12.59,8-6.74,16.26,15.37,23.31,9.46,1.91-1.61-25.41-9.56-15.21-18.12.26-.22,6.1.53,7.63-.75,8.46-7.1-24.79-24.88-22.49-26.81,12.59-10.57,22.49,50.2,37.19,37.87,1.05-.89-24.65-21.63-20.84-24.83,5.08-4.27,16.82,21,23,15.79,2.67-2.25-33.73-29.33-28.38-33.82,2.88-2.42,12.91,14.3,13,14.2,1.44-1.2-5.38-3.77-4.08-4.86,3.37-2.82,22.82,33,29.46,27.46.79-.66-13.42-8.52-9.74-11.6,9-7.58-20.46-31.35-17-34.24,2.39-2-1.81.54-.48-.58,5.64-4.73,26.26,32.81,28.89,30.6,1.89-1.58-9.47-7.77-7.74-9.23,3.56-3-1.64-13,.61-14.88,0,0-.24-.19-.19-.23"/><path class="cls-2" d="M471.4,240.55s-1.75-1.74-1.58-1.88c4.19-3.52-8.94-17.84-6.75-19.68,3.5-2.94-10.27-2.13-5.29-6.31,17.14-14.38,35.76,33.19,37.18,32C505.29,236,460.23,213,465,209c10.82-9.08,46.2,40.45,46.57,40.14,4.76-4-32.13-34-30-35.78,3.4-2.86,31.57,43.23,41.12,35.22,7.44-6.24-20.34-10-13.32-15.88,3.25-2.72,7.25,9.49,9.6,7.52.59-.49-18.77-11.2-13.27-15.81.35-.29,9,21.36,15.41,16,7.62-6.39-19.68-10.43-13.26-15.81,3.12-2.62,6.28,23.59,14.48,16.7,1.62-1.35-13.07-1.37-6.07-7.24,3.81-3.2,5.69,16.62,10.6,12.5,2.15-1.8-23.92-23.26-21.33-25.42"/><path class="cls-2" d="M458,322.16c1.51-1.27-16.15-12.7-12.93-15.4,14.67-12.31,25,36.05,31.87,30.3,4.76-4-26.81-31.52-26.59-31.7,9.53-8,21.17,21.38,24.69,18.43,5-4.23-18.23-8.22-11.58-13.8,1.86-1.57,15.7,14.28,19.27,11.28,1.67-1.4-27.9-23.4-23.05-27.46,1.09-.93,14.28,29.66,20.93,24.08,6.1-5.12-27.91-32.36-27.47-32.74,7.81-6.54,20,24.81,26.89,19,.43-.36-16.39-11.72-12.54-14.95,1.52-1.27,4.72-4,8.89-7.51,5.7-4.78-9.81-8.43-8.21-9.77,4.78-4,17.2,11.34,20,9,4.18-3.5-10.47-3.67-6.13-7.31,1.93-1.62,8.23,8.08,12.46,4.53,2.1-1.77-32.43-30.51-28.43-33.87,6.41-5.37,29.53,28.55,31.36,27,5.32-4.47-12.85-9-9.76-11.63,12.52-10.52,24.45,28.32,28.09,25.26,1.5-1.25-29.89-24.22-24.28-28.93.18-.16,17.49,9.11,18.22,8.5,3.31-2.77-14.64-7.53-9.75-11.63.88-.74,10.38,11.51,12.48,9.75.82-.68-23.21-16.24-17.59-21,2.14-1.79,4,6.46,5.25,5.38,4.39-3.69-8.65-9.07-8-9.58,14.37-12.06,29.83,29.46,33.83,26.1,4.64-3.89-14.12-14.73-13.08-15.6s9,10.58,11.61,8.39c3.8-3.19-14.15-7.93-9.75-11.62,5.42-4.55,9.71,11.8,10.27,11.34,1.45-1.22-11.85-9.87-9.75-11.63,9.16-7.69,19.85,36.3,32.71,25.51,8.84-7.42-23.51-25.85-22.44-26.75,8.67-7.28,23.59,18.08,26.32,15.79s-27.62-14.71-18.66-22.23c.23-.18-.78-3.18-.15-3.71,2-1.66-3.77,1.7-.72-.86,14.66-12.3,24.13,28.16,31.53,22,4.78-4-15.71-9-10.94-13,.65-.54-4.26-9.17-2.48-10.66,3.37-2.83-7.25,0-3-3.55,3.59-3,9.7,2,10.78,1.13.43-.36-1.53,1.27,0,0,.58-.49.29-2.1,1.53-3.15,2-1.67-5.46-3-3.73-4.44,6.8-5.71,18.84,36.42,31.13,26.11.11-.09-2.26-2.43-2.13-2.54,5.71-4.79-14.15-12.6-11.6-14.74,0,0-.29-.26-.24-.3"/><path class="cls-2" d="M458.52,348.64c.43-.36-5.65-5.21-4.9-5.84.31-.26,2.92,1.33,3.69.68,6.73-5.65-21.71-19.48-18.56-22.12,18.33-15.38,34.78,59.29,48.33,47.92,18.84-15.81-55.17-37.19-41.1-49,34.76-29.17,33,93.49,62.16,69,25.07-21-56.54-62.08-53.93-64.27"/><path class="cls-2" d="M247.89,570.74c.13-.11-4.65-5.15-4.45-5.32C252,558.24,266.72,595.59,277,587c1.74-1.46-14.64-6.47-9.23-11,1.28-1.07,3.48-1,5.06-2.34.34-.28-25.63-24.3-22.56-26.88,6.4-5.36,14.68,17.07,16.6,15.47,5-4.17-21.42-15.38-16.42-19.57,5.88-4.93,10.78,9.55,15.23,5.81,9.35-7.84-10.83-1.37-5.15-6.13,1.43-1.21,4.28-3.49,6.23-5.12.38-.32-40.1-42.28-37.39-44.56,24.11-20.23,41.21,52,48.65,45.8,1.31-1.1-17.15-7.64-10.85-12.93,9.2-7.71,18.15,16.8,18.87,16.2,4.82-4-17.38-14.56-14.35-17.1,3.51-2.94,3.88,9.48,7.41,6.52S257.85,511.27,260.51,509c7.7-6.46,15.16,22.65,22.76,16.27,5.83-4.89-16.09-8.53-10.85-12.93.47-.39-4.08-8.19-.8-10.94,2.48-2.08-3.59,1.81-.59-.7,4.06-3.41,13.19,9.76,17.55,6.1,4.65-3.91-9.83-.56-4.33-5.17,6.19-5.2,10.7,13.27,15.35,9.36.32-.26-37.58-35.25-32.89-39.19,2.29-1.91,15.74,14.1,19.72,10.76,2.32-1.94-9.36-4.77-6.22-7.41,1.15-1,17.52,10.63,19.62,8.87,5.17-4.34-16.79-8-10.87-12.94.15-.12,1.06-2.88,2.49-4.09,3.47-2.9-19.7-12.93-14.51-17.29,3.31-2.77,14.54,37.53,26.15,27.78,1-.81-19.17-19.17-17.36-20.69,2.28-1.91,18.7,48,31.8,37,3.36-2.82-44.54-43.42-39.78-47.41,9.1-7.64,17.63,28.44,24.11,23,5.9-4.95-11.09-12-10.51-12.53,1.1-.92,8.51,7.06,8.74,6.87,5-4.21-9-8.85-8.06-9.61,5.38-4.51,8.55,16.89,15,11.52s-27.8-28.61-25.57-30.48c12.19-10.23,35.62,45.61,42.85,39.55,4.71-4-13.3-7.5-9.18-11,2.32-1.95,7.05-4.32,8.26-5.34,1-.84-2.51-1.32-1.69-2,1.34-1.13,8.6,5.43,13.88,1,1.63-1.36-.95.07-.36-.43,4.55-3.82,20.59,32.39,29.46,24.95,0,0-27.1-23.44-22.74-27.1,10.36-8.7,12.95,25.51,19.66,19.87,9.58-8-56.45-33.62-39.88-47.53,27.73-23.27,73,139.74,107.81,110.52,5-4.19-65.93-75.89-64.61-77,28.32-23.76,31.32,91.57,63.43,64.63,8.9-7.48-47.55-38-38.34-45.69,7.15-6,25.13,63.79,44,47.92,3.47-2.9-24.29-13-16.42-19.57.72-.6,8.18-.21,8.59-.56s-30.82-24.51-24.81-29.56c2.83-2.37,12.32,5.35,15.51,2.67,1-.85-26.19-23-22.17-26.42,16-13.45,23.66,39.18,31.39,32.69,6.75-5.67-26.49-29.31-25.38-30.24,2-1.71,3.6-10.61,4.49-11.36,1.43-1.2-16.86-16.06-14.88-17.73,1-.84,19,28.1,24.46,23.51,6.13-5.15-30.47-19.74-22.31-26.59.89-.74,7.31.34,9.6-1.59,5.11-4.28-25-18.93-19.64-23.41,7.86-6.6,31.74,23.33,32,23.11,5.56-4.66-20.43-20.42-18.5-22,.2-.17,11.65,8.86,16,5.22.4-.34-2.32.88-.53-.62,2.51-2.11,8.27-3,8.79-3.47,4.63-3.89-4.21,2.1-.7-.84,1.73-1.46,7.56,4.41,9,3.24,3.48-2.92-13.27-8.43-9.64-11.48,4.28-3.59,11,9.24,14,6.69,4.13-3.47-12.48-9.19-9.68-11.54,7.56-6.35,12.26,26.56,22.14,18.27,5-4.21-24.63-25.08-22.53-26.85,7.73-6.48,12,19.87,16.52,16.1.66-.55-17.37-8.3-11.26-13.42s16.63,22.84,25.52,15.38c3.46-2.91-32.93-33-29.86-35.59,4.86-4.07,23.83,54.35,44,37.43,3.23-2.71-6,2.14-1.43-1.71,5.19-4.36,8.37,15.64,14.33,10.65.27-.23-27.43-23.42-22.87-27.25,3.64-3.06,9.27,4.43,11.49,2.57,4.93-4.14-7.37-8.17-7.07-8.43,13.2-11.07,34.18,40.95,38.51,37.32,5.13-4.31-18.4-6.3-10.7-12.76,1.44-1.21-18.09-9.11-11-15,.73-.61-15.81-6.74-9.85-11.74,14.69-12.33,27.71,44.61,40.45,33.92,0,0-13.3-14.21-12.49-14.89,3.68-3.09,28.34,29.88,31.72,27,3-2.55-23.39-25.92-22.43-26.73,3.75-3.15,7.77,6.13,12.18,2.43,10.85-9.11-63-9.32-30.63-36.5,10.82-9.08,34.24,40.44,39,36.41,3.16-2.65-27.36.88-10.87-13,9.44-7.92,25.78,43,39.8,31.21,3.55-3-19.14-14.23-14.91-17.77,5.35-4.5,12.5,20.46,16.74,16.9.76-.64-7.66-8.18-7.19-8.57"/><path class="cls-2" d="M269,537.51c7.64-6.41-36.24-20.14-24.89-29.66,6.11-5.13,11.31,10.06,16.73,5.51,6.83-5.73-14.84-9.59-10.85-12.94,1.75-1.47,5.25,6.15,8.67,3.28,2.27-1.9-20.39-23-19.74-23.53,4.43-3.72,9.77,22.33,15.34,17.65,1.56-1.3-24.56-7.42-13.8-16.45,4.73-4-.76-10.13,3.59-13.78,9.34-7.84-33.22-20.76-23.95-28.54,5.66-4.75,16.16,36.2,26,28,0,0-40.1-21.22-27-32.2,3.21-2.7,20.23,27.47,26.43,22.27,6-5.07-4.47-.62-2.15-2.57,1.39-1.17,11.45,19.35,15.23,16.18,1.27-1.06-16.9-16.86-15.28-18.22s3.48,2.66,5.63.86c.36-.31-1.41-.78-1-1.15"/><path class="cls-2" d="M99,519.51c.1-.09-7.6-9-7.57-9,3.84-3.22,13.26,10.18,13.7,9.82.17-.15-9.15-10.44-8.92-10.63,1.3-1.1,7.79,8.65,9.67,7.08.87-.73-20.1-22.36-19.31-23,.1-.09,15.58,14,19.18,10.94,1.4-1.17-8.49-4.85-5.9-7,8.85-7.43,13.64,29.56,25.54,19.58,2.14-1.8-41.64-39.88-36.84-43.91,2.48-2.08,11,26.92,19,20.19,5.34-4.48-10.57-5.78-7.21-8.6,4.08-3.42,5.65,11.5,9.63,8.16,2.65-2.22-21.61-24.06-20.78-24.76,12.91-10.83,40,44.16,44.2,40.66,2.22-1.87-27.67-32.13-27.25-32.48,1.32-1.11,12.15,6.5,12.63,6.1,7.43-6.23-27.19-23.18-22.65-27,4.71-3.95,27.88,61.28,42.82,48.75,8.32-7-30.16-31.56-28-33.37,15.12-12.69,30.44,26,31.58,25,.83-.7-43.89-36-35.85-42.73,6.82-5.72,21.34,39.63,36.82,26.65,2.56-2.15-19.26-18.73-17.18-20.47.09-.08,6.3,3.16,6.78,2.75,5.25-4.4-9.75-1.51-4.77-5.68,5.26-4.42,16.47,17.21,21.13,13.3,4.38-3.68-1-.47-.63-.75,4.27-3.59,17.23,10,19.38,8.18,1.74-1.46-3.58,1.81-.59-.7,4.52-3.8-9.87-9.28-8.58-10.36,4.93-4.14-15.43-14.08-13.3-15.86,7.12-6,15.47,20,24.33,12.6,2.88-2.41-17.25-12.88-13.46-16.05,15.65-13.14,19.32,40.56,28.3,33,1.84-1.54-35.45-39.69-34.19-40.75,2.16-1.81,9.39,33.75,20.66,24.31,5.25-4.41-12.31-9.31-9.67-11.52,5.43-4.56,8.86,12.61,11.63,10.28,3.67-3.08-11.89-9.65-9.67-11.52,1.33-1.11,3.36,9.38,6.82,6.48,1.86-1.56-18.84-13.09-14.23-17,1.24-1,17.59,16.3,19.19,14.95,5-4.19-16.69-15.2-14.38-17.14,4.57-3.84,24.83,43.82,32.71,37.22,1.11-.93-28.31-32.14-27.53-32.8,1.63-1.37,6.39-1.14,8.36-2.8,2.34-2-1.78-.32-.89-1.07,11.61-9.74,24.4,42.12,39.8,29.19,9.68-8.12-19.65-5.39-10.77-12.84,6.23-5.24,10.65,20.29,15.25,16.44,3.07-2.58-42.49-30.61-32.63-38.88,5-4.16,17.39,54.73,36.15,39,1.83-1.54-42.64-32.62-33.69-40.14,8.68-7.28,19.09,40.43,31.85,29.72.78-.65-24.24-18.42-19.09-22.75,2.26-1.89,22.28,37.69,29.27,31.82,5.4-4.53-10.49-10.94-9.73-11.58,2.34-2,5.67,1.71,8-.23,5.41-4.54-24.09-24.43-22-26.2,6.1-5.12,7.53,21.33,14.48,15.5,7.14-6-10.28,4.71-1.93-2.29"/></g></g></svg>