<svg xmlns="http://www.w3.org/2000/svg" viewBox="0 0 1786.45 481.21"><defs><style>.cls-1,.cls-2{fill:none;stroke-linecap:round;stroke-linejoin:round;stroke-width:2px;}.cls-1{stroke:#00b4d5;}.cls-2{stroke:#6cc7e2;}</style></defs><g id="Ebene_2" data-name="Ebene 2"><g id="Ebene_1-2" data-name="Ebene 1"><path class="cls-1" d="M12.29,158.28c3.83,2.4,11.08-20.94,12.53-20,.31.2-23.14,47.52-13.75,53.38,12.84,8,6.12-73.79,34.88-55.82,32.44,20.27-53.63,64-19.77,85.19C53.36,238,77,118,86.74,124.06,121,145.47-15.67,209.71,20.35,232.22c43.38,27.11,21.21-118.47,59.2-94.73,3.75,2.34-63.94,94.43-45,106.25,36.14,22.59,49.31-108.65,62.68-100.3,7.89,4.93-105.88,79.35-58.59,108.9,57.16,35.71,8.58-143.4,66.85-107,1.73,1.08-61.32,130.34-58.46,132.13,54.68,34.16,41.17-173.33,89.45-143.16C178.59,160.64.88,270.41,61.22,308.12c66.94,41.83,28-201.6,98.46-157.55C208.54,181.1,45.76,297.21,63.1,308c72.41,45.25,45-198.49,101.84-163C236.86,190,32.8,285.88,67.75,307.72c77.47,48.41,61-194.22,104.41-167.08,0,0-110.39,169.71-105.51,172.76,46.15,28.84,63.32-185,100.9-161.48,69.87,43.65-171.82,118.65-95,166.68,71,44.34,59.93-210.28,111.33-178.16,78.78,49.23-153.87,140-102.35,172.23,69,43.13,95.19-180.11,107.67-172.31,30.46,19-182.62,146.69-94.09,202C112,352.91,169,112.41,219.24,143.8,294.78,191,45,303.45,115.45,347.46c80.78,50.48,46.4-261.26,130.44-208.75C266.17,151.38,43.58,310.61,121,359c20.6,12.88,45.23-265.45,132-211.24C295.2,174.13,44.8,303.13,130.21,356.5,239.86,425,217.16,111,264.94,140.88c25,15.62-174.31,205-139.82,226.56C210.6,420.86,245.94,138.31,262,148.35c8.57,5.36-200.27,177.48-123,225.74C233,432.85,204.43,83.86,287.79,136,401.72,207.14,62.92,335,146,386.89c82.08,51.29,90.6-278.42,150.56-240.95,72,45-167.24,228-137.41,246.59,114.59,71.6,53.31-315.16,156.6-250.61C340,157.06,123.27,363.43,164.11,389,265.76,452.47,193.38,63.4,318.62,141.67,402,193.74,103.06,347.46,166.9,387.36c111,69.34,152.63-250.56,155.46-248.79,42.06,26.29-185.9,237.47-153,258C181.6,404.24,215.53,71,328.68,141.66c129.77,81.1-189.76,241-137.43,273.7,137,85.6,110-323.83,176.4-282.31,68,42.48-215.51,253.43-171.07,281.2,34.28,21.42,177.14-291.92,180.93-289.55,124.28,77.65-227.37,254.24-159.22,296.83C305.73,476.16,375.55,104,405.17,122.46,450.09,150.53,180,364.4,259.68,414.21,386.35,493.36,306,29.15,445.74,116.46c6.49,4.05-219.38,256-169.55,287.17,9.1,5.68,106.92-336.75,181.36-290.24,113.59,71-204.26,278.67-181.2,293.08,8,5,83.17-360.14,185.2-296.39,48.51,30.31-206.29,249.12-146.4,286.55,69.74,43.58,88.46-350.75,182.47-292,49.22,30.76-263.76,193.31-140.94,270.06C443.75,429.09,463.57,58.28,528.89,99.1,573,126.64,285.38,294.68,391.25,360.84c55.31,34.56,159-282,171.37-274.24C672,155,371.74,349.05,394.83,363.48,487,421.07,512.91,48.57,569.51,83.94c75,46.85-253.07,197.06-148,262.69C498.28,394.62,553.8,65.51,585,85c95.61,59.74-148,239.58-134.43,248.07C511.74,371.3,529.59,29.16,609.3,79,705,138.79,433,287.52,489.58,322.89,524.9,345,608.28,46.56,647.1,70.81c115.6,72.24-189,211.71-135.3,245.24,35.24,22,46.64-301.34,148.52-237.67C755.38,137.78,459,254.1,539.06,304.13c4.42,2.76,129.28-245,146.43-234.33C743.11,105.8,493.7,248.51,564.84,293c24.64,15.4,36.94-277.78,135.21-216.38,93.1,58.18-171.54,176.24-108.87,215.4,83,51.85,90-244.76,135.25-216.45C820.35,134.22,596.09,274.78,602.8,279c37.75,23.59,115-200.51,122.41-195.89,20.16,12.6-155,151.84-92.61,190.8,3.13,2,34.72-247,120.73-193.22C759.18,84.31,606.94,217.32,670.4,257,724.84,291,708.88,39.31,779,83.15c35.8,22.37-146.56,125.53-76.31,169.43,65.5,40.92,86-161.91,96.92-155.1,7.31,4.57-124.5,110.28-71,143.74C782.89,275.1,816.92,93,820.07,95c19.65,12.28-126.16,118.44-72.34,152.07,40.62,25.39,57.69-154.15,85.47-136.79,21.36,13.35-99.42,104.73-57.4,131,10.61,6.63,73.79-132.54,80.28-128.48,34.66,21.65-99.23,103-68.83,122,53.43,33.38,37.88-144,75.34-120.57,18,11.26-103.23,108.81-56,138.31,54,33.76,34-138.26,71.69-114.72,13.63,8.51-62.49,95.73-34.5,113.22,51,31.84,65.13-113.88,69.47-111.17,20,12.5-65,119.42-58.37,123.55,49.27,30.79,39.8-131.17,70.13-112.22.82.51-99.77,81.36-52,111.23,23.14,14.46,12.54-121,57.92-92.69,12.62,7.89-83.26,67.63-52.45,86.88,33.5,20.93,28-108.22,56.49-90.42,21.74,13.59-57,97-51.43,100.45,28.81,18,33.7-123.46,64.95-103.93,10.56,6.6-86.94,76.35-48.1,100.62,21.54,13.46,32-109.53,58.19-93.13,5.9,3.69-100.82,82.53-55,111.16,41.54,26,53.08-110.2,64.43-103.11,30.63,19.14-43.55,91.2-28.43,100.64,14.44,9,50.48-91.4,55.25-88.42,39.8,24.87-74.46,88.8-34.81,113.58,4.23,2.64,22.45-125.27,62.59-100.18,31.86,19.9-61.17,78.14-26.35,99.9,31.6,19.74,57.15-91.84,57.32-91.73,12.8,8-81,79.06-36,107.17,19.21,12,47.4-95.75,56.34-90.17,29.33,18.33-42.62,90.4-39.28,92.48,33.91,21.19,27.64-109.91,57.16-91.47,19.71,12.32-46,91.88-31.47,101,46.41,29,43.2-96.6,55.55-88.89,30.29,18.93-34.54,89.76-25.9,95.15C1136,366,1118.61,226,1148,244.34c37.5,23.43-42.41,100.38-38.08,103.09,19.5,12.19,59.9-108.7,65.67-105.1s-73,112.6-65.1,117.51c39.86,24.91,40.47-152.14,79.73-127.6,55.29,34.54-89.15,119-61.81,136.09,54,33.74,52.2-162.19,87.54-140.11,33,20.63-96.49,121-72.28,136.14,12.88,8.05,78.78-135.07,82.82-132.54,2.5,1.56-98.38,115.33-62.46,137.78,48.47,30.29,76.84-185.29,104.85-167.79,52.83,33-103.36,169.16-86.25,179.85,4.9,3.06,61.7-218.55,115.54-184.91,3.18,2-163.59,157.37-97.81,198.47,95.77,59.85,80.69-286.36,151.34-242.21,97.11,60.68-151.21,228-130.65,240.84,101.58,63.47,38-338.25,162.69-260.35,86.12,53.82-235.35,220.64-158.5,268.66,33.47,20.92,105.83-330.52,178.26-285.26,23.39,14.61-188.93,265.57-160.25,283.48,22.5,14.07,190.75-306.72,191.4-306.31,74.67,46.66-235.16,291.15-178.07,326.82C1400.34,510.7,1420.35,35.24,1475.91,70,1530.2,103.89,1266.38,421,1273.36,425.4c69,43.1,123.23-440.3,232.47-372,7.57,4.73-250.14,350.25-205.55,378.12,29.93,18.7,107.13-494.84,252.46-404C1675.05,103.88,1122.1,314,1315.08,434.57c46.56,29.09,144.6-485,258.57-413.8,170.14,106.31-384,326.84-234.62,420.17,90,56.22,120.35-522.52,268.62-429.87,8.67,5.41-444.42,319.2-253.23,438.67,185.95,116.2,218.93-455,266-425.63,169.53,105.94-268.61,412.39-260.3,417.58,146,91.24,75.55-534.9,261.6-418.65,141.29,88.29-446.87,308.55-254.93,428.49C1527.5,552,1601.28,1.06,1635.05,22.16c133.57,83.47-431.54,331.82-260.47,438.73,189.94,118.68,183.06-488.66,271-433.7,35.16,22-296.78,409.6-245.12,441.87,48.65,30.4,262.94-426.84,265.66-425.15,8.27,5.17-307.46,391.76-245.37,430.56C1510.94,530.82,1562.25-25.92,1685.37,51c45,28.15-408,325.71-254,421.94,22,13.73,101.77-507.08,256.46-410.42,124.59,77.85-395.68,307-242.46,402.79,55.4,34.62,165.88-461.16,253.82-406.2C1759,96.5,1275.56,354.77,1450.4,464c126.16,78.83,80.52-490.1,242.87-388.66,90.49,56.55-235.91,372.34-207.68,390,99.73,62.31,137.81-430.78,232.29-371.74,149.88,93.66-269.22,334.84-221.83,364.46,107.25,67,177.53-374.07,218-348.81,164.79,103-220,328.78-192,346.28,37.76,23.59,104.65-395.36,207.06-331.36,57.61,36-211.56,310.63-192.53,322.53,23.54,14.71,40.69-418.38,199.45-319.18C1794.41,164,1541,407.65,1573.2,427.8c68.06,42.52,141.79-304,176.41-282.32,105.81,66.12-173.5,253.16-147.91,269.14,90,56.21,44.83-314.79,154.06-246.53,17.12,10.7-132.82,230-120.31,237.83S1730.16,187.14,1760.36,206c68,42.49-109.27,143.6-78.18,163,1.47.92,69.13-135.83,80.45-128.75,5.32,3.32-48.68,78.59-23,94.66,1.81,1.13,27.25-56.41,33-52.81,6.16,3.85.22,26.29,2.75,27.88.59.37,1.06-1.88,1.14-1.83.76.47-1.5,1.55-1.1,1.79.87.55.43-2.18,1.1-1.76"/><path class="cls-2" d="M30.1,143.85c7.48,4.68,8.86-17.58,10.39-16.62,6.95,4.34,13.26,16.76,16.06,18.51,1.07.67,6-18.31,9.9-15.84,12.75,8,15.91,12.31,24.91,17.93,2.84,1.77,5.69-16.75,9.12-14.61,6.27,3.92-3.72,15.54-1.81,16.74s7.36-17.58,10-16c.69.43,2,9.33,3.42,10.19,5,3.14,6.78-11.84,7.23-11.56,2.36,1.47,11.48,7.9,20.39,13.46,6.86,4.29,1.86-5.62,3-4.88,7.87,4.92,12.12,7.82,21.52,13.69.5.32,9.19-20,11.57-18.51,3.51,2.2-14.32,20.7-10.2,23.28,2.48,1.55,8.75-14.72,9.07-14.52,5.73,3.58-1.15,15.16,0,15.88,6,3.75,6.86-16.82,9.48-15.18,6.13,3.83,13.65,12.11,14.8,12.82,7.2,4.5,4.68-14.12,7.66-12.26,1,.59-3.39,4.84-2.66,5.3.08,0-2.32-8,3-4.74,1.67,1.05,6,1.34,6.53,1.67,2,1.27,6.83-12.78,7.66-12.26,4.1,2.56,9.45,10,12.74,12.08,6.47,4-2.76-8.5,3-4.87,4.24,2.64,4.81,8.94,11.82,13.32,2.9,1.81,12.28-25.41,14.87-23.79,5.77,3.61,6.38,12.61,12.8,16.62,2.24,1.4,2.73-21,10.22-16.35,2.77,1.73,16.21,8.45,22.31,12.27s5.93-14.71,8.28-13.24,17.05,1.21,21.52,4-3.25-13,4.95-7.91c6.4,4,2.58,13.59,5,15.11,7.18,4.49,7.57-18.14,10.28-16.45,2,1.26,3.44,4.75,5.38,6,4.1,2.56,4.3-18.26,9.41-15.06,2.28,1.42,2.34,8.63,7.58,11.91,3.41,2.12,7.49-13.54,8.19-13.11,4.19,2.62-4.41,11.51-1.21,13.52,6.83,4.26-1.35-17.2,7.35-11.76,0,0,12.63,2.45,15.18,4,6.62,4.13,5.55-10,6.08-9.72,10.75,6.72,23.42,5.55,30,9.64,7.67,4.79,1.6-16.24,7.75-12.4,12.3,7.69,20.89,1.39,30.61,7.47,3.38,2.11,13.07-24.55,14.7-23.53,4.44,2.78-3.6,13.18,4.26,18.09,5.74,3.59,8.51-32.88,17.17-27.47,10,6.28,14.9,8.86,22.51,13.61,8.67,5.42,8.65-27.37,14.73-23.57,8,5,23.88,8.16,28.66,11.15s.41-6.19,2.9-4.64c2.83,1.78,2,14,4,15.29,8.08,5,10.64-28.19,15.65-25.06,9.94,6.21,18.32,14.92,24.37,18.7,2.55,1.6,10.61-23.15,13.38-21.42,6,3.72,13.69,8.91,19.83,12.74,6.85,4.28,3.59-19,9.56-15.31,7.18,4.48-4,13,3.72,17.84,4.52,2.82,5.81-11.67,6.88-11,5.12,3.2,2.38,12.24,6.19,14.62.83.52,15.12-27.42,16.57-26.51.81.5-7.69,11.38-5.57,12.71,7,4.39,1.75-10.79,5.34-8.55,2.14,1.34.24,7.79,1.5,8.57.43.27-2.72-3.62.87-1.38.26.16,2.1,3.07,2.52,3.34,3.77,2.35,9.09-17.68,10.49-16.8,4.63,2.89,8.48,23.7,13.43,26.79C745.47,90,743.54,66.16,749,69.6c7.15,4.47-9.65,18-.56,23.63,5.18,3.24,3.91-18.37,9.35-15,7.55,4.72-13.69,13.42-7.09,17.54.36.23,6.78-15,8.64-13.83,2.59,1.62-1.07,5.64,1.83,7.46,6.2,3.87,2.79-16.71,8.29-13.27,10,6.24-1.32,20.34,8.15,26.26,4.14,2.58,9.41-23.38,13.15-21,6.25,3.9-12.47,18.68-2.7,24.79,1.58,1,6.71-15.26,8.74-14A37.14,37.14,0,0,0,800.19,95c3.16,2-4.72-3.27.14-.23.43.26-2.35,3.26-2.1,3.41,2.56,1.6,3.63-13.35,7-11.23s1,13.12,4.57,15.36c5.07,3.17,2.49-13.33,6.69-10.7,3.13,1.95,2.14,14.53,9.94,19.4.11.07,4.63-17.69,9.25-14.8,10.13,6.33,7,23.53,12.63,27,2.68,1.68,4.94-14.55,7.93-12.69,2.06,1.29,1.28,11.48,6.65,14.83,5.8,3.63,5.59-19.09,10.15-16.24,3.46,2.16,4.85,19.17,16.58,26.49,4.15,2.6-2.75-9.51,3.5-5.6,3.78,2.36-13.31,15.23-4.47,20.76,1.86,1.16,10.48-19.61,11.76-18.81,8.75,5.47.55,15.35,8.43,20.27,5.81,3.63-.31-5.39,2.33-3.74,10.89,6.81,23.09,20.55,23.37,20.72,5,3.12-1-9.44,4-6.34,1.29.81,1.09,12,3.18,13.29,5.92,3.7,9-17.91,10.57-16.92,8.06,5-7.45,22.78-.4,27.18,6,3.78,4.52-15,8-12.85.23.14.92,3.29,3.21,4.72s1-7.34,3.58-5.74c4.38,2.74,13.83,19.81,16.36,21.39,4.34,2.72,4.74-16.75,8.86-14.17,6.35,4-15.55,14.75-7.5,19.78.5.31,6.45-19.09,10.39-16.63,5.93,3.7-14.37,19-5.18,24.72,4.67,2.92,9.82-18.53,11.09-17.74,4.62,2.89-2.87,14.22-2.15,14.67,2.52,1.57,5.18-18.1,9.59-15.34,15.89,9.93,5.73,34.3,9.23,36.48.09.06,15.76-27.48,16.77-26.85s15.06,28.34,15.15,28.39c4,2.53-.64-8,3.41-5.44.42.26.35.83,1,1.24,2.29,1.43.61-10.09,4.71-7.53,1.68,1,6.41,13.58,6.51,13.64,3.29,2.05-3.75-5.13,1.25-2,5.24,3.27,10.29.13,14,2.47,1.8,1.13,1.36-11.27,5.45-8.71,5.17,3.23-3.21,17.2-2.76,17.48,6.42,4,8.36-21.88,12.18-19.5,7.05,4.4-10.58,16.75-2.28,21.94,6.63,4.14,8.4-24.6,13.41-21.47,2.23,1.39-17.9,16.68-8.54,22.53,3.15,2,4-16.24,8.43-13.49,4,2.5,1.18,17.33,9.7,22.65,3.82,2.39,12-29.8,16.75-26.8,9,5.59,14.14,10.5,21.28,15,1.56,1-.93-12.91,5.54-8.87.74.47,2.78,14.15,12.2,20,.46.29,3.69-18.73,9.45-15.13,13.09,8.17,29.58,3.34,30.8,4.1,9.65,6,6.53-25.6,13.34-21.35.55.35,2.44,5.08,6.59,7.67,7.77,4.86,2.19-24.94,11.82-18.92,7,4.37,9.13,10.74,12.53,12.86,5.41,3.38,6.5-27.94,14.39-23,6.31,3.94,14.06,3.37,15.85,4.49,8.42,5.26,5.42-28.29,14.23-22.78,5.3,3.3-.53,15.27,3.21,17.6,2.11,1.32,17.5-35.68,21-33.53,1.53,1,2.34,11.45,8.28,15.16,13.83,8.64,8.4-26.5,14.27-22.83,2.28,1.43,18.42-6.21,23.13-3.27,7.68,4.8,7.47-30.38,15.75-25.2s33-38.76,51.73-27c9.1,5.69,12.1-31.41,17.51-28,2.89,1.81,12.91,10.15,15.47,11.75s27.37-43.9,27.42-43.87c9.22,5.77-22,24.22-15.5,28.31,12,7.47,6.08-17.73,9.67-15.48,2.5,1.56,34.59-12.34,37-10.86,5.78,3.61,8.79-30.78,16.3-26.08,2.09,1.3,19.36-.1,28.2,5.43,2.29,1.43,7.11-13,7.85-12.55s16.9,10.26,24.61,15.08c5.51,3.45,3.86-17.08,8.76-14,1.53,1-3.16,10.81-2.19,11.41,5.61,3.51,7-14.29,8.4-13.44.48.3,3.81,16.14,4,16.28,5.31,3.32,3.56-12.87,6.79-10.85,1.32.83,6.72,17,9.65,18.78,5.8,3.63,8.33-17.09,10-16,2,1.23-3.73,14.05,2.29,17.82,3,1.87,3.26-15.37,7.82-12.52,11,6.89,9.14,42.05,10.79,43.09,4.18,2.61,13-27.38,16-25.52,5.69,3.56-11.31,25.73-.83,32.28,2.89,1.8,2.47-13.43,6.73-10.77.69.43,9.68,34,13.63,36.5,3.41,2.13,8.27-15,9.06-14.5,7,4.36-14.75,12.5-9.75,15.63,5.34,3.33,3.47-10.33,5.62-9,.33.21,1,20.59,12.49,27.74,0,0-3.05-9.66,3.48-5.58,4.63,2.9-10.9,18.41-1.43,24.32,3.11,1.94,8.6-20.84,11.78-18.85,8,5-14.71,21.78-3.68,28.68,1.67,1,2.46-14.92,7.4-11.83,7.65,4.78-7,46.77-.15,51.06.71.44,8.43-15.52,9.35-14.95,14.76,9.23-17,32.82-2,42.19,2.86,1.79,5.78-19.82,10.53-16.85,7.13,4.45-3.93,27.09.43,29.82,5.61,3.5,3.41-10.32,5.59-9,2.68,1.67-8.2,25-3.68,27.85,5.83,3.64,4.71-19,9.86-15.78,1.41.88-12.84,18.43-5.52,23,1.29.8-.21-11.52,5.12-8.19,9,5.6-11,18.65-5.65,22,9.52,5.95,5.22-24.32,12.39-19.84,9.81,6.13-22.41,26.75-9.28,35,.48.3,9.5-16.95,10.28-16.46,4.34,2.72-15.06,32.62-8.18,36.92,1.32.82-3.45-17.48,6.89-11"/><path class="cls-2" d="M5.63,154.85c4.27,2.66,11.64-22.21,13.25-21.2.33.21-25.56,50.12-15.6,56.34,5.23,3.27,1.38-28.28,13.1-21,19,11.88-18.4,38.83,1.44,51.23,4.62,2.89,10-19.68,11.65-18.65,9.35,5.85-27.31,23.76-17.48,29.9,7.26,4.54,3.25-19.35,9.61-15.38.89.56-.16,24.41,4.37,27.24,4.85,3,.74-5.18,2.53-4.06.82.51-3.43,9.7,1.48,12.77,7.11,4.44-4.79-8.44,2.45-3.92.36.22,5.17,29,5.76,29.34,5.76,3.6,9.58-26.63,14.66-23.45,12.11,7.56-18,43.59-.66,54.42,5.87,3.67,3.66-19.59,9.84-15.73,4.65,2.9-9.62,14.63-8,15.66,6.29,3.93,7.54-23,12.48-20,8,5-11.76,17.24-7.85,19.69,6.59,4.11,9.53-23.47,13.23-21.16,0,0-15.08,26.4-14.35,26.86,3.88,2.42,5.57-15.94,8.73-14,7.08,4.43-10.63,14.38-2.84,19.25,5.72,3.57,11.27-27.24,15.41-24.66,7.81,4.88-11.56,15.58-6.45,18.77,5.42,3.4,8.62-16,9.6-15.37,6.22,3.89-14.3,34.08,3.79,45.38,1.16.72,9.5-22.89,13-20.73,8.93,5.58-1.12,20.84,7.2,26.05,5.09,3.17,4.46-18.91,9.75-15.6,2.21,1.38-12.73,22-4.29,27.25,1.23.78.88-13,6.1-9.77,1.39.87.25,5.61,3.07,7.37,6.42,4,2.91-10.89,5.71-9.14,2.14,1.34-13.78,18.27-10.83,20.11,5,3.12,6.24-12.07,7.18-11.48.65.41.69,14.7,6.54,18.36,5.17,3.23,7.17-21.66,11.75-18.8,12.73,7.95-14.13,26-4.85,31.83,4.31,2.69,4.27-13.85,7.42-11.88,4.76,3,3.58,16.58,5.55,17.81,5.74,3.59,1.62-14.13,6.8-10.89.64.4-3,6.7-1.9,7.36,5.06,3.17-2.58-9.74,3.66-5.85,1.27.79-1.86,3.69-.89,4.3,5.5,3.44,3.75-6.32,3.89-6.23,2.21,1.38-3.25,14.58-1.52,15.66.59.37-1-10.68,4.52-7.25,13.46,8.41,11.29,23.62,16.72,27,6.24,3.89,6.31-16.84,9.34-15s-6.1,12.79-4.13,14c1.56,1,12.15-19.82,12.32-19.71,11,6.87,2.37,24.82,8.4,28.58,4,2.48,9.49-18.19,10.84-17.35,4.31,2.69,18,13.17,25.61,17.95,8,5,1.92-22.74,10.76-17.22.19.12,2.62,8.28,4.13,9.22.66.42,4-18.44,9.41-15.07,6.7,4.19-10.7,17.19-9.34,18,.59.37,6.22-26.54,13.68-21.88,4.2,2.63,20.07,8.57,25.27,11.82S306,381.65,313,386c4.14,2.59,15-2.43,25.3,4,6.62,4.13,5.77-20.29,10.73-17.18,3.6,2.24,15.28-2.21,23.93,3.19,4.29,2.69,13.51-23.78,14.48-23.18,9.46,5.91-12.88,24.55-10.89,25.79,7.2,4.5,14.35-32.79,18.77-30,3.81,2.38,2.6,9.76,7.93,13.09,6.09,3.8,8.18-18.59,10.65-17.05,6.37,4,17.58,2.8,18.49,3.36,5,3.1,3.64-20.2,10.1-16.16,10.44,6.52,22.89,1.94,29.06,5.8,3,1.86,12.84-27.82,16.11-25.78,8.17,5.11,2.4,16.45,6.19,18.82,3.05,1.9,2.63-23.78,11.43-18.28,6.34,4,10.59,2.87,15.93,6.21.39.24,12.93-24.09,14.45-23.13,3.73,2.33,6.82,8.93,11.43,11.81,2.26,1.41-.29-19.66,8.75-14,8.43,5.27,12.07,9.23,17.74,12.77,8.05,5,12.87-30.37,17.27-27.62,6.16,3.85-6.06,14.29-5.62,14.57,3.69,2.3,4.91-9.46,5.63-9,2.34,1.47,17.14-1,24.38,3.57.33.2,4.67-27.43,13.64-21.82.75.46,16.37-.63,24.47,4.43,6.1,3.82,4-24,11.91-19.06,4.83,3,11.39,8,20.87,13.92,8,5,10.25-19.35,11.57-18.52.74.46,9.44,3.07,14.85,6.45,6.89,4.31,12.6-21.06,13-20.81,3.05,1.91-1.47,20,6.9,25.26,5.34,3.34,10.86-25.51,14.51-23.23,3.14,2,9.7,9.89,15.86,13.74,1.27.8,12.83-22.25,13.6-21.76,3.62,2.26-4.85,12.55-1.68,14.53,6.25,3.91,5.12-17.93,9.5-15.2,4,2.53,0,25.17,10.56,31.79,6.33,4,5-17.87,9.44-15.11,3.57,2.22,20.72,8.57,28,13.15,6.24,3.9,10.6-18.15,11.13-17.82,4.41,2.75-1.4,29.15,0,30.06,6.2,3.88,9.86-24.26,13.68-21.88.14.09-3.74,15.62,4.55,20.8,3,1.86-2.72-8.66,3.13-5,.31.19,1.59-1.3,2.35-.83,4.32,2.7-1.82-5.29,1.86-3,2.58,1.61,2.57,12.56,3.23,13,3.78,2.36,7.23-20.7,11.33-18.13,1.49.93.06,11.32,5.55,14.76,2.89,1.8,2.32-11.52,5.83-9.32,1.3.81-12.75,21-2.62,27.3,5.66,3.53,11.65-22.08,13.19-21.11,8.63,5.38,18.61,15.89,22.87,18.55,2,1.27,5.62-10.49,6.29-10.07,12.7,7.93,1.55,27.24,14.2,35.15.61.38,9.38-28,15.21-24.35,9.85,6.16,10.3,17.28,21.07,24,4.62,2.89,10.37-16.65,10.39-16.63,3.83,2.39-2.54,23.62,10.93,32,2.77,1.73,7.37-14.67,8.66-13.86,5.31,3.32,7.81,15.77,8.41,16.15,4.79,3,4.22-16,8.39-13.43,5.35,3.35,13.37,20.43,17.32,22.9,6.21,3.88,1.94-6.77,3.59-5.74,8.81,5.51,23.56,10.41,26.07,12,5.61,3.51-3.18-2.9.41-.66C1087,345,1098,350.49,1098.89,351c2.17,1.35.77-2.66,1.41-2.26s-1.69,14.13-.83,14.66c4.26,2.67,8.66-23.2,12.86-20.58,10.91,6.82-.34,25.7,5.05,29.07,5.17,3.23,8.45-21,11.83-18.92s1,13.45,3.44,15c1.15.72.77-2,1.13-1.81s14.37,4,19.23,7c3.77,2.35,7.62-17,9.79-15.68,7.71,4.82,6.31,26.18,8.8,27.74.33.2-1.72-5.12,1.82-2.9.33.2,9.09,12.22,15.9,16.47,5.3,3.32,10.7-25.83,14.62-23.39,8.1,5.07,4.35,21,6.07,22,4.94,3.09,0-13.58,6.11-9.79,5,3.14-6.41,15.31-1.93,18.11,1.54,1,8.53-21.05,11.86-19,1.31.82,4.53,16.2,6.14,17.21.94.58,7.18-11.55,7.2-11.53,6.55,4.09,1.11,28.94,6.12,32.06,5.28,3.31,7.23-16.13,9.28-14.85,2.76,1.72,7.08,19.17,7.43,19.4,2.36,1.47,2.45-12.25,6.19-9.91.46.29,18,14.34,20.7,16,1,.59,2.63-14.47,7.24-11.59,4.29,2.68.77,10.49,7.54,14.72,1.44.9,2.87-12.44,6.39-10.24,8.56,5.35,10,12,17.5,16.71,2.71,1.69,5-17.93,9.45-15.13.43.26-3.46,18.19,5.88,24,5.58,3.49,3.37-8.55,4.78-7.66.33.2.86-.39.87-.38,4.39,2.73-5.18-4.14.41-.65,3.47,2.17,1.5,7.61,6.22,10.56s6.06-12,7.08-11.33c5.44,3.41-6.29,16.43.68,20.79,5.75,3.59,8-18.7,10.65-17,2.07,1.29,11.94,23.74,15,25.63,1.51.95,9.62-15.59,9.7-15.53.41.25,6.92,20.09,9.94,22s10.69-26.12,14.74-23.58c2.13,1.33-12,18.3-4.66,22.85.76.48,4.88-19.67,10.21-16.33,2.66,1.66,0,7.43,3.3,9.47,2,1.26,8.43-20.56,11.61-18.57,2.37,1.49-13.7,13.29-6.75,17.63,4.68,2.92-3.33-8.06,2.69-4.3,6.5,4.06,28.52,7.46,30.55,8.73,4.67,2.92,9.41-24.89,13.83-22.13,5.55,3.47-5.45,14.27-3.69,15.36,5.24,3.27,1.81-7.29,3.79-6.06,9,5.62,19.31,4.69,20.84,5.65,2.22,1.38,6.61-24,12.62-20.21,1.88,1.17.81,11.76,1.43,12.15,1.48.93,3.1-27.27,13.12-21,3.87,2.42,20.1,2.86,22.24,4.2,5.33,3.33,12-25.2,14.68-23.5,6,3.77,11.3,11.1,12.76,12,8.61,5.39,4.31-30.16,14.77-23.62,1.58,1,16.36,16.54,17.52,17.26,1.66,1,16.46-35.34,20.5-32.81,9.41,5.88,20.64-4.71,24.94-2,.29.18,6.31-15,8.51-13.61,2.72,1.7,33.65-25.18,46.79-17,1,.62,13.88-29.23,17-27.26,4.57,2.86,18.89-2.15,20.77-1,17.28,10.79,26.85-48.06,29.14-46.63,10,6.25-3.81,24.42,1.4,27.67.86.54.43-2.17,1.09-1.76"/></g></g></svg>