<svg xmlns="http://www.w3.org/2000/svg" viewBox="0 0 286.04 628.83"><defs><style>.cls-1,.cls-2,.cls-3,.cls-4{fill:none;stroke-linecap:round;stroke-linejoin:round;stroke-width:2px;}.cls-1{stroke:#f3d1bb;}.cls-2{stroke:#e8c0a8;}.cls-3{stroke:#000;}.cls-4{stroke:#1b1464;}</style></defs><g id="Ebene_2" data-name="Ebene 2"><g id="Ebene_1-2" data-name="Ebene 1"><path class="cls-1" d="M78.08,152.82c.41.26,1-7.51,3.64-5.83,7.86,4.91-16.61,23.17-3.81,31.17,6.77,4.23,11.5-38.59,20.58-32.92,2.1,1.32-19.28,18.63-10,24.44,11.66,7.29,11.13-33.35,18.11-29S84.26,184.52,85,185c17.4,10.87,12.68-55,28.28-45.25,11.78,7.36,3.38,33.51,9.18,37.13,8.15,5.1,35.23-58.21,36.05-57.7,15.12,9.45-13.87,42.45-4.42,48.36,8.39,5.24,11.31-60.58,30.4-48.65,13.88,8.67-40.13,37.09-26.09,45.87,21.82,13.63,11.19-45.86,23.75-38,22.56,14.1-47.47,33.31-27.14,46,11.48,7.17,3.2-51.43,24-38.42,1.36.85,4.31,25.58,5.59,26.38s2.31-8.28,4.37-7"/><path class="cls-2" d="M84.2,157.09s8.64-31,16.35-26.15c2.14,1.33,12.14,2.38,19.37,6.9,1.28.8,3.68-8.67,4.93-7.88,1.52.95-2.85,10.25.31,12.23,4.27,2.67,8.71-28.44,15.22-24.37,4.51,2.82-2.87,15.22,2.11,18.33.81.51,9.91-21,12.2-19.53,6.24,3.9,15.6,3.57,17.73,4.9,2.38,1.49,6.14-22.58,11.87-19,7.71,4.82-10,19.1-6.08,21.58,2.49,1.55,3.45-20.21,10-16.08,3.31,2.06-10.82,20.66-6.17,23.57,1.95,1.22,1.6-5.79,3-4.88,8.05,5-9.63,20.07-4.3,23.41.3.18,16.39-28.65,17.48-28,5.25,3.28-18.65,30.51-17.73,31.09,2.67,1.66,15.37-31,18.27-29.23"/><path class="cls-2" d="M71.24,149.66c.53.34,1.21-9.61,4.66-7.45,8.89,5.55-20.71,25.95-6.21,35C77.55,182.13,83,132.44,93.54,139c2.6,1.62-24.72,22.53-13.25,29.69,4.72,3,.35-6.84,3.17-5.07,3.12,1.94-7.23,20.57-6.89,20.79,5.81,3.63,2.78-16,8-12.75,8.61,5.38,16.21,16.44,20.45,19.09,2.68,1.67,10.19-16.91,10.46-16.75,7,4.37,16.8,4.69,21.16,7.41,3.52,2.2,5.08-25.95,13.09-20.94,5.31,3.31-14.14,14.81-8.77,18.16,9.89,6.18,3-17.44,8.67-13.88,10.55,6.6-21.58,16-12.07,21.89,5.51,3.44.44-22.89,10.42-16.66,1.92,1.2,36.14-2.25,37.94-1.12,3.38,2.11,5.19-21.28,11-17.64,1.8,1.13-8.69,11.53-5.84,13.3.31.2,1.59-6.17,3.22-5.15"/><path class="cls-3" d="M119.56,523.23c6,3.79-1.06-3.13,1.11-1.77,13.06,8.16-14.62,42.71,3.46,54,15.42,9.64,4.21-94.85,43.81-70.1,3.58,2.24-55.55,101.18-40.87,110.36,33,20.62,31-138.2,70.81-113.31C228.6,521.6,115,596.17,135.71,609.09c1.74,1.09,17.14-126,61.45-98.33,20.74,13-92.28,82.06-55.67,104.93,17.08,10.67,25.79-130.69,66-105.58,25.9,16.18-49.86,101.83-45.45,104.59,33.41,20.88,17.7-89.86,45.36-72.58,12.73,8-46.07,60-32.07,68.71,11.48,7.18,22.5-72.24,38.78-62.06,19.16,12-24.78,43.55-12.21,51.4,14.37,9,13.12-42.34,22.71-36.35,2.63,1.64-19.78,31.32-15.23,34.16s2.93-24.67,11.91-19.06c2.24,1.4-.78,15,1,16.11.47.29,3.07-5.48,3.32-5.32"/><path class="cls-3" d="M128.18,523.45c11.8,7.37,18.28-35.35,21-33.64,1.85,1.16-9.78,15.6-4.36,19,.72.46,1-12.2,5.77-9.24,2,1.29,25.8,6.06,26.64,6.58,3.14,2,2.64-5.34,3.14-5,3.66,2.29,2.89,4.73,7.28,7.47,2.53,1.58,4-12.75,6.87-11,8.77,5.48-1.37,34.05,10.22,41.3,3.39,2.11,3.36-16.41,8.32-13.31,4.78,3-9,16-8.63,16.26,7.06,4.41.86-17.37,8.05-12.89,1.28.81-6.35,29.42-2.88,31.59,5.28,3.3,6.41-12.9,7.59-12.16,10,6.22.31,33.81,3.22,35.63,3.07,1.91,5.48-22.39,11.6-18.56"/><path class="cls-3" d="M113,519.63c6.44,4-.72-4,1.59-2.54,13.81,8.62-17.65,45.26,1.46,57.2,3.11,2-6-8.22,2-3.24,1.36.86-5.47,41.29.12,44.78,5.25,3.28,10.48-30.87,16.81-26.91,5.71,3.57-12.59,18.8-8.75,21.2.25.16.05-14.44,6.51-10.41,3.43,2.15-8.37,15.75-2.3,19.54,2.15,1.34,6.36-21.49,11.44-18.31,6,3.74,2.53,25.52,3.55,26.16,8.06,5,2-18,8.63-13.8,1.87,1.18,2.4,9,4.46,10.25,3.54,2.21,7.08-22.48,12.09-19.34,6.12,3.82,10.46,6.17,14.48,8.68,8.3,5.19,8.5-25.92,14-22.46,1.5.94-9.14,18.65-6.55,20.27,3.54,2.21,1.66-18.45,8.76-14,2.64,1.65,16.86-.27,19,1.06,2.32,1.45,10.53-19.67,11.8-18.88,9.46,5.91-17.86,22.44-8.55,28.26,1.6,1,3.63-10,5.49-8.79"/><path class="cls-3" d="M1,74c.39.24,3-4.94,3.05-4.88,9.35,5.85,4.5,30.86,5.91,31.75,5.74,3.58,5.37-19.4,10.23-16.36,10.13,6.33-11.46,34.41-7.92,36.63,4.86,3,17.92-30.54,18.76-30C47.24,101.2,8.28,127.6,18.4,133.93c1.37.86,7.65-12.32,7.68-12.3,3.08,1.92-.92,12.71-.24,13.13,1.5.94,3.16-15.65,7.92-12.67,11.33,7.07-6.85,48-.95,51.74,2.18,1.36,2.81-21,10.24-16.4,9.73,6.08-7.11,23.14,1.82,28.73.76.47-3.15-12.55,4.76-7.61,2.63,1.64-12,47.21,1.8,55.83,6.36,4,13.1-23,14-22.45,11.89,7.44-19.85,42.91-1.65,54.28,6.35,4,7.43-18.72,10.5-16.8,10.91,6.82-18.53,36.18-6.59,43.65,7.39,4.62,11-22.09,13-20.85,10.64,6.65-22,28.91-6.22,38.76.34.22,12.41-25.42,14.91-23.86,4.93,3.09-12,30.15-9.38,31.76,6.67,4.17,2.86-10.63,5.59-8.93,10.41,6.5-7.13,24.08,3.95,31,7.68,4.8,8.81-16,9.66-15.46,5.12,3.19-30,41-7,55.36,2.65,1.66,11.72-22.66,13.47-21.57,9.49,5.94-11.38,23.3-1.46,29.5,6.79,4.25.7-16.83,7.76-12.41,12.58,7.86-20.43,26.08-9,33.21,3.14,2,15-27.28,16.46-26.34,11.24,7-11.7,35.74-4.93,40,2.5,1.56,6.9-21.13,11.43-18.3,9.27,5.8-8.33,28.32-3.28,31.48,1.07.67,8-21.08,11.72-18.75,8.64,5.39-12.45,38.05-3.18,43.84.35.22.52-9.74,4.53-7.23.38.24-6.41,33,2.13,38.34,7.53,4.7-.22-9.71,4.3-6.88,19,11.86-2.1,40.83,6.2,46,.3.19,3.31-18.11,9.07-14.51,4.61,2.88-2.23,15.15-1,15.92.35.22,8.05-13.06,8.13-13"/><path class="cls-1" d="M32.87,170.57c.63.4,3.82-8.33,4.81-7.71,10.15,6.34-12.79,29.14-2.32,35.68,9.5,5.93,19-55.41,30.22-48.37,9.16,5.72-11.24,40.59-3.9,45.18,2.56,1.6,11-24.42,14.06-22.5.65.41-10.5,16.11-6.08,18.88.68.42,2.29-9.29,4.82-7.71"/><path class="cls-2" d="M40.32,172.7c.22.14,14.82-25.76,15.74-25.19,3.56,2.22,8.59,17.42,14.71,21.25,1.76,1.09,7.62-15.36,9-14.47,5,3.1-8.63,18-7.26,18.82.55.35,4.52-18.53,9.6-15.36"/><path class="cls-2" d="M26.13,167.27c.73.46,4.44-9.68,5.6-9,11.75,7.34-17.8,33.44-5.67,41,4.11,2.56,12.78-31.31,17.66-28.26,6.51,4.07-.88,28.71,4.34,32,1.54,1,6.26-14.11,8.1-13,.72.45,16.64-.05,21.47,3,.79.49-2.43-2.64.51-.81"/><path class="cls-4" d="M171.17,107.57c5.09,3.18,6.31-14.5,8.28-13.26,0,0,5.51,41,10,43.85,32.78,20.49,66.24-118.29,71.76-114.84,16.25,10.15-76,87.38-37,111.8C226,136.19,254,26.68,281.34,43.8c1,.59-6.76,15.24-4.87,16.42,5.82,3.64-3-3.73.84-1.35"/><path class="cls-4" d="M190.93,90c30.72,19.2,48.25-93.42,55.53-88.88,5.46,3.41-5.11,18.6-4.25,19.14,2.21,1.38,2.58-13.8,6.93-11.08,7.32,4.58,2,32.53,11.5,38.5,5.58,3.48,10-28.47,15.62-25,2.86,1.79-13.5,12.66-6.9,16.79,2.05,1.27,1.65-5.64,3-4.79,3.85,2.4,4.5,10.47,4.69,10.6,4.42,2.76-.66-14.89,6.51-10.42"/><path class="cls-4" d="M164.32,104.43c5.49,3.42,6.75-15.54,8.88-14.21,0,0,1.11,46.87,6.15,50,4,2.49,14-23.86,14.65-23.44,4.4,2.75,5,21.19,15.55,27.79.26.17,2.84-13.84,7-11.23,5.31,3.32,55.63-75.68,66.18-69.09,6.25,3.91-2.69-4.8,1.4-2.25"/></g></g></svg>