<svg xmlns="http://www.w3.org/2000/svg" xmlns:xlink="http://www.w3.org/1999/xlink" viewBox="0 0 262.26 614.54"><defs><style>.cls-1,.cls-4,.cls-5,.cls-6,.cls-7,.cls-8{fill:none;}.cls-2{fill:#1d1d1b;}.cls-3{fill:#faf9e8;}.cls-4{stroke:#1b1464;}.cls-4,.cls-5,.cls-6,.cls-7,.cls-8{stroke-linecap:round;stroke-linejoin:round;stroke-width:2px;}.cls-5{stroke:#f3d1bb;}.cls-6{stroke:#e8c0a8;}.cls-7{stroke:url(#Zebra);}.cls-8{stroke:#000;}</style><pattern id="Zebra" data-name="Zebra" width="124.42" height="124.42" patternTransform="translate(59.44 47.64) rotate(9.86) scale(0.88)" patternUnits="userSpaceOnUse" viewBox="0 0 124.42 124.42"><rect class="cls-1" width="124.42" height="124.42"/><path class="cls-2" d="M37.82,251.32c-1.12-3.12-3.27-15.49-4.66-21.8-1.46-6.62,0-3.66-.67-12.66s0-11.34,0-14a67.82,67.82,0,0,1,1.33-18c2-10,1.22-15.78,4.55-26.11s1.67-26,1.67-26l-5.67-15s-1,13.67-1,15.33,1.67,5.34.33,11.34-1.33,19-2.66,21.66-3.34,9.34-3.34,17.34a60.64,60.64,0,0,0,1,12.33c-3-1.67-4.33-8.33-4.33-12s-1.67-6.67,0-9.67-.55-12.89-.55-15.89.67-8,0-16c-.23-2.82-.05-7.75-1.72-10.09s-1.67-9-1.67-10.33-8.88,2.68-8.88,2.68a133.7,133.7,0,0,0,3.22,13c1.66,5.77-.28,6.42,1.72,14.75S20,167.08,19.7,173.42s2.34,21,2.34,26,2.33,4.33.66,10.66S16,224.49,19.91,231.56c.17,3.15-1.83,7.15-3.21,8.9s-7.34,6-4.46,10.12h8.34a27.27,27.27,0,0,1-.13-3.87c.05-2.67,1.13-4.13,2.38-7.13s1.75-6.75,1.25-9c3.12,2.75,5.87,5.75,6.37,11.38s3,5.62,3.38,6.75S37.82,251.32,37.82,251.32Z"/><path class="cls-2" d="M44.58,124.21c.38,7.16,5.77,13.9,5.14,18.91-.66,5.34-7.33,11.34-7.33,23.34s3,10.33,4,21-2,4-3.67,15.33-3.66,18-2.33,27.67,3,11.5,4.33,19-.66,14.33,5.34,8,9.83-7.4,9.14-8.65c-2.88-5.24-7.48-20-4.81-28.35s-2.9-11.27-.57-20.94,10.67-26.33,10.67-29.33,1.23-13.73,2.23-20.07.67-11-4.66-20.33c-1.28-2.23-2.18-4-3-5.65Z"/><path class="cls-2" d="M66.63,124.09c1.05,2.22,3.08,5.76,4.82,15.33,1.91,10.5,2,5.77-.63,21.77s6,20,5,40.33-13,22.56-12.37,32.56,9,31.67,10,32.67,5,3.33,5-4.33-2-18-.66-24.67,6.33-18.67,7.33-24.33,4-6,7-16.67-4.63-12.23-7.63-21.89-2.33-16-3.33-19.34a72.48,72.48,0,0,1-2.71-17.1c-.18-6.67-.53-8.5-.94-14.52Z"/><path class="cls-2" d="M104,228.16c1,1.83-1.2,11.23-1.55,21.08l-13.94.1c.27-2,.86-4.12,1.15-6.51a69.73,69.73,0,0,0,0-9.08c-.33-7,7-18.67,10-26.33s6.79-15.23,6.79-24.56S97,162.75,92.7,151.75s-6.33-17.67-3-33.33c0,0,12.92-17.14,14.34-14.67s-1.49,17.07-2.34,29.33c-.49,7.11,4.45,13.11,5.12,16.11s0,7,1.67,15.67,11,19.66,10.33,28.33c-.49,6.42,1.12,14.11-7,27C110.33,222.57,104,228.16,104,228.16Z"/><path class="cls-2" d="M125.53,123.8c-.08,6.1-1.62,12.81.92,21.28,3,10,9.59,9,8.92,22.34-.67,13.49-1.49,29.24,1.08,39,1.67,6.33,4.67,14.33,1.34,22.33-6.26,15-11.43,9.23-12.34,20.33-1,12.34-3.41,14-3.41,14-3-5-5-6.66-5.34-13.66s.09-13,3.09-24.34,6.66-22.33,4-30.66-2-13-5.34-21.34-.29-6.56-2-18.22c-2.37-16.57-.54-12.29-.54-21.4,0-3.2.47-5.66.75-9.38Z"/><path class="cls-2" d="M1.12,123.8C1,129.9-.5,136.61,2,145.08c3,10,9.58,9,8.92,22.34-.68,13.49-1.49,29.24,1.08,39,1.67,6.33,4.67,14.33,1.33,22.33C7.12,243.76,1.94,238,1,249.08c-1,12.34-3.42,14-3.42,14-3-5-5-6.66-5.33-13.66s.08-13,3.08-24.34,6.67-22.33,4-30.66-2-13-5.33-21.34-.3-6.56-2-18.22c-2.37-16.57-.54-12.29-.54-21.4,0-3.2.46-5.66.75-9.38Z"/><path class="cls-2" d="M125.52.05c-.08,6.1-1.62,12.81.92,21.28,3,10,9.59,9,8.92,22.34s-1.49,29.24,1.08,39C138.11,89,141.11,97,137.78,105c-6.26,15-11.44,9.23-12.34,20.33-1,12.34-3.41,14-3.41,14-3-5-5-6.66-5.34-13.66s.09-13,3.09-24.34,6.66-22.33,4-30.66-2-13-5.34-21.34-.29-6.56-2-18.22c-2.37-16.57-.54-12.29-.54-21.4,0-3.2.47-5.66.75-9.38Z"/><rect class="cls-3" width="124.42" height="124.42"/><path class="cls-2" d="M37.82,126.91c-1.12-3.13-3.27-15.5-4.66-21.8-1.46-6.63,0-3.67-.67-12.67s0-11.33,0-14a67.82,67.82,0,0,1,1.33-18c2-10,1.22-15.77,4.55-26.11S40,8.33,40,8.33l-5.67-15s-1,13.67-1,15.34S35,14,33.7,20,32.37,39,31,41.67,27.7,51,27.7,59a60.64,60.64,0,0,0,1,12.33c-3-1.66-4.33-8.33-4.33-12s-1.67-6.66,0-9.66-.55-12.9-.55-15.9.67-8,0-16C23.59,15,23.77,10,22.1,7.69s-1.67-9-1.67-10.34S11.55,0,11.55,0a133.7,133.7,0,0,0,3.22,13c1.66,5.77-.28,6.42,1.72,14.75S20,42.67,19.7,49,22,70,22,75s2.33,4.33.66,10.67-6.67,14.4-2.79,21.48c.17,3.14-1.83,7.14-3.21,8.89s-7.34,6-4.46,10.13h8.34a27.52,27.52,0,0,1-.13-3.88c.05-2.67,1.13-4.12,2.38-7.12s1.75-6.75,1.25-9c3.12,2.75,5.87,5.75,6.37,11.37s3,5.63,3.38,6.75S37.82,126.91,37.82,126.91Z"/><path class="cls-2" d="M44.58-.21C45,7,50.35,13.7,49.72,18.71,49.06,24,42.39,30,42.39,42s3,10.33,4,21-2,4-3.67,15.33-3.66,18-2.33,27.67,3,11.5,4.33,19-.66,14.33,5.34,8,9.83-7.4,9.14-8.65c-2.88-5.24-7.48-20-4.81-28.35s-2.9-11.27-.57-20.93S64.49,48.77,64.49,45.77,65.72,32,66.72,25.71s.67-11-4.66-20.34c-1.28-2.22-2.18-3.95-3-5.64Z"/><path class="cls-2" d="M66.63-.33C67.68,1.89,69.71,5.44,71.45,15c1.91,10.5,2,5.77-.63,21.77s6,20,5,40.34-13,22.56-12.37,32.56,9,31.66,10,32.66,5,3.34,5-4.33-2-18-.66-24.67S84.12,94.67,85.12,89s4-6,7-16.67-4.63-12.22-7.63-21.89-2.33-16-3.33-19.33A72.67,72.67,0,0,1,78.45,14c-.18-6.67-.53-8.5-.94-14.52Z"/><path class="cls-2" d="M104,103.75c1,1.83-1.2,11.22-1.55,21.07l-13.94.1c.27-2,.86-4.11,1.15-6.5a69.9,69.9,0,0,0,0-9.09c-.33-7,7-18.66,10-26.33s6.79-15.23,6.79-24.56S97,38.33,92.7,27.33,86.37,9.67,89.7-6c0,0,12.92-17.14,14.34-14.67S102.55-3.59,101.7,8.67c-.49,7.11,4.45,13.1,5.12,16.1s0,7,1.67,15.67,11,19.67,10.33,28.33c-.49,6.42,1.12,14.11-7,27C110.33,98.15,104,103.75,104,103.75Z"/><path class="cls-2" d="M125.53-.62c-.08,6.1-1.62,12.81.92,21.29,3,10,9.59,9,8.92,22.33-.67,13.49-1.49,29.24,1.08,39,1.67,6.33,4.67,14.33,1.34,22.33-6.26,15-11.43,9.23-12.34,20.34-1,12.33-3.41,14-3.41,14-3-5-5-6.67-5.34-13.67s.09-13,3.09-24.33,6.66-22.34,4-30.67-2-13-5.34-21.33-.29-6.56-2-18.23C114.12,13.87,116,18.15,116,9c0-3.19.47-5.65.75-9.37Z"/><path class="cls-2" d="M1.11.05C1,6.15-.51,12.86,2,21.33c3,10,9.58,9,8.91,22.34S9.46,72.91,12,82.67C13.69,89,16.69,97,13.36,105,7.11,120,1.93,114.23,1,125.33c-1,12.34-3.42,14-3.42,14-3-5-5-6.66-5.33-13.66s.08-13,3.08-24.34S2,79-.64,70.67s-2-13-5.33-21.34-.3-6.56-2-18.22c-2.37-16.57-.54-12.29-.54-21.4,0-3.2.46-5.66.75-9.38Z"/><path class="cls-2" d="M1.12-.62C1,5.48-.5,12.19,2,20.67c3,10,9.58,9,8.92,22.33C10.28,56.49,9.47,72.24,12,82c1.67,6.33,4.67,14.33,1.33,22.33-6.25,15-11.43,9.23-12.33,20.34-1,12.33-3.42,14-3.42,14-3-5-5-6.67-5.33-13.67s.08-13,3.08-24.33S2,78.33-.63,70-2.63,57-6,48.67s-.3-6.56-2-18.23C-10.29,13.87-8.46,18.15-8.46,9c0-3.19.46-5.65.75-9.37Z"/><path class="cls-2" d="M125.52-124.36c-.08,6.09-1.62,12.8.92,21.28,3,10,9.59,9,8.92,22.33-.67,13.49-1.49,29.24,1.08,39,1.67,6.33,4.67,14.33,1.34,22.33-6.26,15-11.44,9.24-12.34,20.34-1,12.33-3.41,14-3.41,14-3-5-5-6.67-5.34-13.67s.09-13,3.09-24.33,6.66-22.34,4-30.67-2-13-5.34-21.33-.29-6.56-2-18.23c-2.37-16.57-.54-12.29-.54-21.4,0-3.19.47-5.65.75-9.37Z"/><path class="cls-2" d="M37.82,2.49C36.7-.63,34.55-13,33.16-19.31c-1.46-6.62,0-3.67-.67-12.67s0-11.33,0-14a67.84,67.84,0,0,1,1.33-18c2-10,1.22-15.77,4.55-26.1s1.67-26,1.67-26l-5.67-15s-1,13.66-1,15.33,1.67,5.33.33,11.33-1.33,19-2.66,21.67S27.7-73.42,27.7-65.42a60.81,60.81,0,0,0,1,12.34c-3-1.67-4.33-8.34-4.33-12s-1.67-6.67,0-9.67-.55-12.89-.55-15.89.67-8,0-16c-.23-2.82-.05-7.76-1.72-10.09s-1.67-9-1.67-10.33-8.88,2.67-8.88,2.67a132.85,132.85,0,0,0,3.22,13c1.66,5.78-.28,6.42,1.72,14.76S20-81.75,19.7-75.42s2.34,21,2.34,26,2.33,4.34.66,10.67S16-24.34,19.91-17.27c.17,3.15-1.83,7.15-3.21,8.9s-7.34,6-4.46,10.12h8.34a27.27,27.27,0,0,1-.13-3.87c.05-2.68,1.13-4.13,2.38-7.13s1.75-6.75,1.25-9C27.2-15.5,30-12.5,30.45-6.87s3,5.62,3.38,6.75S37.82,2.49,37.82,2.49Z"/><path class="cls-2" d="M44.58-124.62c.38,7.16,5.77,13.9,5.14,18.91-.66,5.34-7.33,11.34-7.33,23.34s3,10.33,4,21-2,4-3.67,15.33-3.66,18-2.33,27.67,3,11.5,4.33,19-.66,14.34,5.34,8S59.89,1.23,59.2,0c-2.88-5.25-7.48-20-4.81-28.35s-2.9-11.27-.57-20.94S64.49-75.64,64.49-78.64s1.23-13.73,2.23-20.07.67-11-4.66-20.33c-1.28-2.23-2.18-4-3-5.65Z"/><path class="cls-2" d="M66.63-124.74c1.05,2.22,3.08,5.76,4.82,15.32,1.91,10.5,2,5.78-.63,21.78s6,20,5,40.33-13,22.56-12.37,32.56,9,31.67,10,32.67,5,3.33,5-4.34-2-18-.66-24.66,6.33-18.67,7.33-24.34,4-6,7-16.66S87.49-64.31,84.49-74s-2.33-16-3.33-19.33a72.58,72.58,0,0,1-2.71-17.11c-.18-6.66-.53-8.49-.94-14.52Z"/><path class="cls-2" d="M104-20.67c1,1.83-1.2,11.23-1.55,21.08L88.55.5c.27-2,.86-4.11,1.15-6.5a69.73,69.73,0,0,0,0-9.08c-.33-7,7-18.67,10-26.34s6.79-15.22,6.79-24.56S97-86.08,92.7-97.08s-6.33-17.67-3-33.34c0,0,12.92-17.14,14.34-14.66s-1.49,17.07-2.34,29.33c-.49,7.11,4.45,13.11,5.12,16.11s0,7,1.67,15.66,11,19.67,10.33,28.34c-.49,6.42,1.12,14.1-7,27C110.33-26.27,104-20.67,104-20.67Z"/><path class="cls-2" d="M125.53-125c-.08,6.1-1.62,12.81.92,21.28,3,10,9.59,9,8.92,22.33-.67,13.49-1.49,29.25,1.08,39,1.67,6.34,4.67,14.34,1.34,22.34-6.26,15-11.43,9.23-12.34,20.33-1,12.33-3.41,14-3.41,14-3-5-5-6.67-5.34-13.67s.09-13,3.09-24.33,6.66-22.33,4-30.67-2-13-5.34-21.33-.29-6.56-2-18.23c-2.37-16.56-.54-12.28-.54-21.39,0-3.2.47-5.66.75-9.38Z"/><path class="cls-2" d="M1.11-124.36C1-118.27-.51-111.56,2-103.08c3,10,9.58,9,8.91,22.33-.67,13.49-1.48,29.24,1.09,39,1.66,6.33,4.66,14.33,1.33,22.33C7.11-4.4,1.93-10.18,1,.92c-1,12.33-3.42,14-3.42,14-3-5-5-6.67-5.33-13.67s.08-13,3.08-24.33S2-45.42-.64-53.75s-2-13-5.33-21.33-.3-6.56-2-18.23c-2.37-16.57-.54-12.29-.54-21.4,0-3.19.46-5.65.75-9.37Z"/><path class="cls-2" d="M1.12-125C1-118.93-.5-112.22,2-103.75c3,10,9.58,9,8.92,22.33-.68,13.49-1.49,29.25,1.08,39,1.67,6.34,4.67,14.34,1.33,22.34C7.12-5.07,1.94-10.85,1,.25c-1,12.33-3.42,14-3.42,14-3-5-5-6.67-5.33-13.67s.08-13,3.08-24.33S2-46.08-.63-54.42s-2-13-5.33-21.33-.3-6.56-2-18.23c-2.37-16.56-.54-12.28-.54-21.39,0-3.2.46-5.66.75-9.38Z"/></pattern></defs><g id="Ebene_2" data-name="Ebene 2"><g id="Ebene_1-2" data-name="Ebene 1"><path class="cls-4" d="M63.63,288.8c2.45,1.53,6.24-11.33,6.85-11,8.74,5.47-31.17,66.88-16.58,76,31.73,19.83,35.77-89.93,50.46-80.76C149.3,301.16-4.41,361.82,47.42,394.21,89.3,420.38,79.64,249,121.73,275.28c11.69,7.31-111.56,110.53-70.92,135.93C90.44,436,107.14,260.67,134.28,277.63,205.36,322-34.95,419.51,38.93,465.68c44.85,28,58.77-210.13,110.93-177.53C171.17,301.46-46.9,439.54,38.75,493.06c8,5,31.93-268.79,129.76-207.66C180.13,292.66,8.78,499.17,33.72,514.75,125.77,572.27,80.9,227,176.26,286.63,299.65,363.73-100.15,490.16,25.9,568.92c99.69,62.3,69.85-329.28,167.59-268.21C287.66,359.56-2.16,556.86,36.56,581.05,129.9,639.38,71.88,281.8,181,350c17.49,10.92-155.7,221.22-127.49,238.85,1.58,1,106.24-206.33,122.56-196.13,93.39,58.36-210.6,155.46-126.47,208C109.18,638,123.49,370.57,173.74,402,202.15,419.71,12.49,560.33,80.45,602.8c44.49,27.8,64.44-168.86,94-150.4C209.73,474.46,65,575.08,101.1,597.65c35.52,22.2,25.79-125,63.43-101.5,3.18,2-89.78,78.2-49.42,103.42,2,1.26,43-71,44-70.39,13.76,8.6-58.73,63.27-34.73,78.26,12.42,7.76,27.08-64.56,36.62-58.6,13.19,8.24-13.16,51.38-11.7,52.29.14.09,1.47-7.17,3.63-5.81"/><path class="cls-4" d="M78.36,279.3c5.21,3.26,1.13-2.63,1.49-2.4,1.22.76-1.1,2.79-.69,3.05,4.53,2.83,1.81-18.53,8.83-14.14,9.5,5.93-1,19.61,6.28,24.19,4.57,2.86,6.15-11.67,7-11.16,3.25,2,13.45,9,15.17,10.07,6.81,4.26,13-20.87,13-20.84,5.88,3.67-4.42,12.8.6,15.94,4.25,2.66,4.47-13.88,7.5-12,4,2.49,10.05,17,21.26,24,.67.42,11.56-20.73,12.57-20.1,9.13,5.71-2.72,26.45-2.23,26.76.65.4,7.72-19.79,11.07-17.71,20.71,12.95-24.23,58-7.9,68.26,4.11,2.57,13.49-52,27.14-43.44,34,21.24-34.43,78-25.79,83.42,10.13,6.33,10.21-34.16,18.21-29.16,18,11.22-37.9,26.42-20.79,37.11.33.21,17.43-28.57,17.73-28.38,4.46,2.79-19.33,31.94-18.53,32.44.58.36,1.32-27.4,12.68-20.3,1,.61-50.77,57.41-18.07,77.84,1.08.68,4.37-37.83,18.24-29.17,5.7,3.56-43,86.78-27.73,96.29,10.84,6.78,14.64-34.77,19.73-31.59,5.74,3.59-36.8,29.46-21.26,39.17,3.77,2.36,3.18-33,15.7-25.13,7.19,4.49-44.61,51.37-25.63,63.24,0,0,15.45-42,23.21-37.14,9,5.64-26.85,21.71-14.19,29.62,9.09,5.68,11.07-25.09,14.39-23,9.43,5.89-30.94,26.74-16.25,35.92,14,8.75,9.06-21.9,12.39-19.82,7.48,4.67-20.36,21.29-13.81,25.38,4.8,3,5.76-28.2,14.29-22.87"/><path class="cls-4" d="M56.8,285.62c3.12,1.95,7.06-13,7.84-12.54,9,5.63-33,68.78-18,78.18,14,8.73,20.21-46.72,26.67-42.68,30,18.76-67.78,61.42-33.15,83.05,12.14,7.59,16.29-53.21,28.49-45.58,5.14,3.21-43,51.41-25.09,62.58,9.15,5.72,14.89-37.78,21.16-33.87,31.8,19.87-66.1,67.69-33,88.34C39.56,468,45.19,421.26,54.31,427c6.17,3.86-47.56,48-22.76,63.53,1.17.73,7.09-43.42,21.5-34.41,2.71,1.69-32.36,52.47-26.54,56.1,12.57,7.86,11.26-47,24.28-38.85,38,23.72-70.88,68.79-32.1,93C30.49,573.72,35.43,513.8,47,521c18.56,11.6-27.06,55.51-19.43,60.28,8.89,5.56-3.5-17.53,6.89-11,1.64,1,3.81,22.85,6.45,24.5.11.07,2.31-6.16,3.42-5.46,7.23,4.51-13.85,13.29-7.33,17.36,4.19,2.62,5.65-16.91,9.18-14.7s13.29,11.53,21.71,16.79c4.51,2.82,13.84-28.81,16.84-26.94,4.79,3-1.1,18.72,3.81,21.79,4.73,3,1.76-14,6.77-10.84.41.26,2.07,9.54,7.24,12.77.37.23,5-8.46,5.21-8.34,2.69,1.67-.64,13.28,4,16.21,3.5,2.19,11.81-24.89,14.5-23.21,5.26,3.29,15.2,14.08,15.78,14.44,1,.61,6.11-43.94,21.46-34.35,8.52,5.32-6.31,26.16-3.59,27.86,1.41.89-1-4,1.51-2.41"/><path class="cls-5" d="M62.39,149c4.06,2.54,4.85-10.1,5.9-9.45,8.37,5.23-19.72,25.06-9.59,31.39,27.23,17,28.8-68.25,38.75-62,44.53,27.83-42.21,110-38.07,112.57C100.2,247,113.44,82.69,136.94,97.38c13.89,8.68-79.57,124.13-65.06,133.2,12.51,7.82,70.85-125.43,76.26-122,17,10.6-109.72,104.43-56.72,137.54,29.47,18.42,44.49-159,84-134.36,15,9.35-85.37,120.22-51,141.68,25.42,15.88,25.57-134.45,67.6-108.18,32.44,20.26-111.86,86.73-66.34,115.17,31.53,19.71,36.28-132.57,69.77-111.65,36,22.52-70.11,95.48-59,102.43,38.58,24.11,36.72-125.5,66.71-106.76,10.24,6.4-66.37,98.08-50.89,107.75,13.41,8.38,11-97.2,46.78-74.87,10.89,6.81-24.43,47.73-13.75,54.41,3.29,2.05,7.61-20.47,11.33-18.14"/><path class="cls-6" d="M83.33,129.56c6.84,4.28.77-37.89,17.24-27.59,1.91,1.19,4,12.59,8.44,15.36,5.23,3.27,6.43-27.51,14.17-22.68,12.63,7.9,11.11,13.63,22.1,20.5,3.86,2.41.74-11.84,5.53-8.84s4.82,14.62,13.21,19.86c3.61,2.26,5.55-18.4,9.83-15.73,3.63,2.27-5.91,19.87,2.09,24.86,3.55,2.22,4.14-13,7-11.21s2.69,16.66,7,19.37c3.27,2-.27-14,6.21-9.93,3.3,2.07-13.34,23.05-5.76,27.78,6.41,4,6.09-13.59,7.82-12.51,4.21,2.63-5,14.66,1.9,19,2.06,1.29,5.09-22.76,11.66-18.66,11.84,7.4-29,56.82-22,61.22,4,2.5,15-43.07,23.56-37.7"/><path class="cls-6" d="M55.78,145.46C60,148.1,61,134.7,62.08,135.38,71,140.92,40.67,161.79,51.4,168.5,80,186.37,81.64,96.85,92.09,103.38c46.65,29.16-45.5,114.79-41.16,117.5,6.07,3.79,15.55-32.65,19-30.47,3.86,2.41-11.15,38-7.12,40.49,1.43.9,8.18-14.48,8.8-14.09,3.74,2.33-2,24,9.67,31.29,2.92,1.83,8-21.48,11.89-19,3.51,2.19,10.9,24.69,18.94,29.72,3,1.86-.24-10.61,4.7-7.52,3.84,2.4-9.3,11.88-3.91,15.25,4,2.48,5.74-18.58,10-15.94,2.29,1.43-.34,7,.36,7.49,5.25,3.28,6.12-18.87,10.2-16.32,1.82,1.14.61,19.2,3.36,20.92s-1.71-13.42,5.55-8.88c8.87,5.54,35.36-17.57,44.06-12.14,6.27,3.92,12.62-36,19.72-31.57,6.2,3.87-15.52,18.38-11.62,20.81,6.76,4.23,2.1-18.38,8.85-14.16"/><path class="cls-7" d="M73.55,94.57c.3.18.38-1.35.71-1.14,4.2,2.63,9.8,7.27,13,9.27,16.24,10.15,19.72-43.1,24.91-39.86,5.52,3.45,5.74,39.24,8.69,41.08C138.62,115,130-7.81,173.64,19.49c33.26,20.78-67.57,82.56-52.7,91.85C163.39,137.86,167.53,8.58,180.2,16.5c21.67,13.54-48.59,92.82-43.59,95.94C158.81,126.31,154.35,26.93,180,43c9.78,6.11-44.07,59.59-38.68,63,27.55,17.22,19.3-94,47.66-76.26,1.87,1.17-76.66,71.48-49.82,88.25,14.15,8.84,27.25-82.9,44.91-71.87C201,56.64,142.22,95.44,162.2,107.92,165.14,109.75,191.4,61,191.49,61c15,9.36-33.9,42.87-13.4,55.67,5,3.12,7.39-50.59,24.81-39.71,15.54,9.71-28,29.67-10.9,40.34,10.42,6.51,5.6-31.86,15.89-25.43,12.76,8-3,29.79.88,32.23,7.54,4.71-1.9-13,5.29-8.47,2,1.26-13.64,15.13-9.15,17.94,1.18.73,6.8-23.73,12.57-20.12.05,0-2.35,14.06,5.09,18.71.17.1.17-.54.29-.47"/><path class="cls-7" d="M69.11,97.59c1.43.89.62-4.58,2.23-3.57,1.4.88-8.05,7.49-4.71,9.58.24.15,6.87-11.17,7-11.12"/><path class="cls-7" d="M41.22,89.45c.44.28,4.08-6.6,4.11-6.58,12.28,7.68-11.33,33.78,5,44,9.51,5.94,12.46-37,20.11-32.19,14.52,9.08-6.93,26.4,5.19,34,11.64,7.28,15.67-27.17,16.61-26.58.23.14-7.15,27.42.11,32,12.18,7.61,9.79-31.92,17.09-27.35,2.9,1.81-6.82,23.41-2.79,25.93,4.66,2.91,16-32.24,19-30.38,1.23.77-8.75,32.86-4.21,35.69,9.79,6.12,12.78-27.52,16-25.53,16.38,10.23-3.13,39.14-.41,40.84,9.29,5.8,8.47-35,18.12-29,2.37,1.48,3.81,17.93,13.39,23.92s6.52-29.75,15.2-24.33c13.41,8.38,2.08,20.63,16.36,29.56,7.65,4.78,3.51-36.25,17.27-27.65,7.26,4.53-13.66,37.8,4.13,48.91,10.11,6.32,22.95-39.45,24.17-38.69,9.7,6.06-17.14,22.26-10.14,26.63,5.72,3.57,13.66-25.4,15.24-24.4"/><path class="cls-8" d="M95.29,81.83c4.94,3.08,11.31-30.32,16.8-26.88,25.28,15.79,49.49-36.14,55.2-32.57,2.25,1.41,2.85-12,6.21-9.94,3.08,1.93-10.26,10-6,12.68.65.41,10.65-26.62,14.95-23.93C187,4,162.4,41.05,173,47.68c5.5,3.44,15.17-32.29,18.77-30,15.72,9.82-28.91,43.63-5.5,58.26,6,3.73,15-29.86,17.63-28.21,4,2.48-10.22,17.27-9.47,17.74,6.05,3.78,1.68-4.91,2.68-4.28,6.11,3.81-6.68,30.09-3,32.41,7.08,4.42,9.44-27.7,15.1-24.16,5.28,3.29-27.21,43.63-2.67,59,.58.37,9-19.33,11.22-18"/><path class="cls-8" d="M54.32,88.79c3.46,2.17-3.75-2.66.14-.23,3.49,2.18-3.2,11.6-.53,13.27,5.62,3.51,7.46-15.93,9.25-14.81"/><path class="cls-8" d="M51,104c.37.23,3.08-5.83,3.49-5.57,3.77,2.36,6,2.44,8.34,3.92,1.47.92,4.1-23.32,11.63-18.62,2.88,1.8,7.28,27,12.71,30.43,4.71,3,2.78-17.31,8.56-13.7,6.34,4,13.56,13.53,22.87,19.35,5,3.1,8-25.38,13.65-21.84,4.75,3,10.64,22.66,12.91,24.08,3.87,2.41,4.92-22.52,11.5-18.41,2,1.23,5.95,17,7.74,18.1,5.32,3.32,5.25-18,9.54-15.27,5.37,3.35,4,25.06,16.53,32.88,1,.63,6.73-24.18,12.75-20.41,3.21,2,2,8.85,2.38,9.07,4.12,2.58-3-8,2.76-4.42,2,1.23,3,6.46,7.48,9.29,3.36,2.1,2.31-8.1,4.29-6.86.34.21,12.49,16.32,15.08,17.94.15.09.1-.56.28-.45"/><path class="cls-8" d="M240,135.76c5.39,3.37-5.11-5.33,1-1.53,2.48,1.55-13.88,13.47-8,17.17,2.88,1.8,13.69-24,14.64-23.43.37.23-6.59,6-4.36,7.44,4.75,3,4.68-13.06,7.19-11.5"/><path class="cls-8" d="M34.43,80c.44.27,4.08-6.6,4.11-6.58,16,10-24.6,44.14-3.39,57.39,6.83,4.27,10-28.18,15.46-24.74,12,7.47-.13,20.28,9.85,26.52,5.72,3.57,7.54-13.11,8-12.82.14.09,4.12,15.32,8.7,18.19,5.89,3.68,4.67-15.32,8.2-13.12,1.46.92,4.07,10.42,6.1,11.69,2.23,1.39,8.46-16.71,9.89-15.82.74.46,2.15,19.42,4.89,21.13,4.61,2.88,5.09-11.48,6.59-10.55,11,6.86,7.13,24.72,9,25.86,4.28,2.67,3.94-16.21,8.39-13.43,2.13,1.33,14.53,3,23.12,8.35,4.28,2.67,1.14-10.54,5.06-8.09,11.77,7.35,14,5.47,26.5,13.31,3.4,2.12.75-14.78,6.85-11,5.23,3.26,1.74,24.22,14.55,32.22,4.32,2.7,12.47-21.11,13-20.79,9.86,6.16,2.12,23,9.22,27.47,15.23,9.51,28.56-55.1,32.78-52.46.62.39-21,17.2-12.22,22.68,7.67,4.79,5.69-15.85,8.72-14"/></g></g></svg>