<svg xmlns="http://www.w3.org/2000/svg" viewBox="0 0 638.55 624.86"><defs><style>.cls-1,.cls-2,.cls-3{fill:none;stroke-linecap:round;stroke-linejoin:round;stroke-width:2px;}.cls-1{stroke:gray;}.cls-2{stroke:#333;}.cls-3{stroke:#4d4d4d;}</style></defs><g id="Ebene_2" data-name="Ebene 2"><g id="Ebene_1-2" data-name="Ebene 1"><path class="cls-1" d="M57.75,183.5c12.65,7.3,9-23.25,12.32-21.34,11.27,6.51-18.52,19.39-12.73,22.73S68.47,143.4,78.09,149c23.88,13.78-43.55,90.53-43.42,90.6,2.22,1.28,10.2-146.2,65.86-114.07C118.75,136-23.61,222.72,29.32,253.28c60.68,35,48.79-186.16,92.8-160.75C201.22,138.2-54.24,231,23,275.53,40.39,285.6,87,82.47,122.57,103c51,29.45-149.78,155.53-97,186C85.36,323.51,54,8.08,154.34,66,211.64,99.11,17.89,302.09,33.77,311.26c92.11,53.17,110.71-276.73,147.5-255.48,62.39,36-214.11,241.34-149.56,278.6C75.75,359.81,52-35.76,197.06,48,313.82,115.39-78.21,286.75,40.81,355.47,104.69,392.35,154.15-7.41,226.28,34.23,325.47,91.5,25.64,394.08,25.9,394.22,128.84,453.66,225.25,35.49,231.07,38.85c8.1,4.67-246,309.76-187.79,343.38,67.36,38.89,60.6-449.15,209.64-363.1C380.73,92.92-51.64,337.67,45,393.46c20.53,11.85,105.62-426,210.85-365.21C267.55,35-47.34,350,57.12,410.32c126.48,73,47.26-487,222.69-385.7C335.94,57-148.43,322.42,55,439.88,248.25,551.44,133.15-54.44,288.59,35.31,480.44,146.07-83.7,370.52,58,452.32c161.11,93,125.42-497.25,246.67-427.24C529,154.61-141.14,366.14,61.68,483.24c114.57,66.15,120.64-562,273.5-473.72,138,79.65-370.95,405.73-259.52,470.06C254.23,582.68,123.23-87,332.9,34,409.27,78.12-37.69,412.54,93.29,488.16c112.06,64.69,181.07-511.95,267-462.36C442.68,73.39,7.17,442.07,97.57,494.26c165.08,95.31,187-510.61,267.86-463.95C563.62,144.74-31,408.27,105.75,487.2,291,594.15,300.85,8.26,361.91,43.51,398,64.37-78.46,398.4,98.85,500.78,222.46,572.14,173.49-73.94,366.37,37.42,392,52.22-24.4,415.28,106.47,490.84,217.79,555.11,291.59-13.3,371,32.58c117.8,68-421.57,390.87-273.5,476.36C287.75,618.76,221.72-74.28,381.13,17.75c170,98.13-366,448.89-269.83,504.43,17.28,10,147.13-558.52,278.63-482.61C453.35,76.19,33.33,461,130.25,517c98.31,56.76,66.4-617.2,283.86-491.65C497.21,73.32-84,400.59,131.29,524.9,366.89,660.93,333.15-.84,409.41,43.19,615.66,162.27-48.34,445.62,123.77,545,134.7,551.3,397.53,39.54,411.07,47.36c76.14,44-281.47,475-262.54,485.89,36,20.77,99-603.4,286-495.41C529.69,92.77,144.32,549.7,155.22,556c165.58,95.6,53.64-618,281-486.71,66.79,38.56-466,373.61-262.09,491.35,96.09,55.48,273.64-519.35,293.29-508C513.11,79-20.17,434.23,198.93,560.73,245.38,587.55,418.17,28.45,484.22,66.59c207,119.53-456.58,413.27-278.7,516C244.24,604.91,483.6,90.16,488.25,92.84c243.71,140.71-307,490-277.71,506.95,20.24,11.68,63.84-647,296.11-512.86C750.43,227.68-38.1,456,211,599.87,263.8,630.35,313.81-17.71,504.13,92.18,705.76,208.59,48.66,465.67,244.55,578.77,482.4,716.1,374.93,11.05,523,96.53,660.44,175.9,133.32,514.92,254.79,585.05,344,636.56,287.08-4.52,518.15,128.9c159.33,92-394.3,371-250.37,454.08C482,706.67,397.07,56.51,528.07,132.14c133.15,76.87-300.91,438-258.86,462.25,39.26,22.66,207.2-506.63,271.18-469.7C622.5,172.1,152.27,513.69,275.85,585,501.43,715.28,363,8.46,547.29,114.89c206,118.92-301.74,444.29-252.54,472.69,13.73,7.93,166.14-511,262.8-455.19,218,125.84-420.51,393.5-266.76,482.27,27.38,15.81,117.09-546.58,266-460.64C778.1,281.83,229.45,560.51,303.67,603.36,324.26,615.25,505,111.2,567.12,147.06,668.89,205.81,301,588.8,319.05,599.2c206.13,119,193.24-475.73,254.31-440.47C650,203,247.29,539,336.83,590.65c78.88,45.54,104.88-509.08,246.66-427.23,152.13,87.83-441.62,338.74-245.5,452,44.13,25.48,88.15-520.71,247.51-428.7C599.41,194.72,292.29,569.25,349,602c4.82,2.78,68.67-516.16,240.66-416.86,169.93,98.11-440.32,309.75-241.91,424.3C520.27,709,391.07,108.51,575.5,215,752.67,317.28,261.14,536.7,362.83,595.41,448.26,644.73,487,129.63,595.55,192.32,795.11,307.54,210.07,501.94,367.83,593c97,56,39.63-492.43,223.14-386.48,181.9,105-360.7,313.16-208.92,400.79C458.1,651.24,432.27,151.82,591.85,244c148.8,85.91-197,345.14-188.2,350.18,7.18,4.15,125.19-402.58,205.62-356.14,24.57,14.18-236.06,337.17-199.38,358.35,81.59,47.1,45.13-418,192.29-333C751.9,349.73,373,564.08,415.06,588.38c30.6,17.67,167.54-325.67,182.9-316.8,138.57,80-267,215.21-142.15,287.28,21.73,12.54,92.67-312.27,158.38-274.33,91.49,52.82-238.33,222.18-144.05,276.61,93,53.71,127.3-233.44,132.91-230.2,24.08,13.91-156.2,170.64-101.32,202.32,38.52,22.24,22.24-206.75,95.08-164.7,26.86,15.51-81.65,138.59-67.64,146.68,27.52,15.89,45.38-109.12,58.6-101.49,16.55,9.56-27.6,58.43-27.1,58.72,3.71,2.14,8.54-29.37,14.85-25.73"/><path class="cls-2" d="M609.16,312.52c3.33,1.92-4.6-4.1.63-1.08.74.43,4.24,2.29,4.84,2.63.35.2.25-1.14.56-1"/><path class="cls-2" d="M72.17,173.3c23.93,13.82,50-91.66,52.2-90.41C141,92.48,89.83,130.39,99.51,136c.23.13,28.36-52.64,29.89-51.76C133,86.31,128.61,94,133,96.55c15.12,8.73,10.32-26.68,14.13-24.47,7.79,4.49-17.38,28.48-11,32.17,3.94,2.27,12.65-30.16,16.22-28.1,18.79,10.85,23.08-33.5,38.33-24.7,3.43,2,4.85-15.14,7.77-13.46,5.89,3.41,9.35,12.92,14.33,15.79,5.93,3.43,2.77-8.38,4.32-7.48,2.33,1.34,16.48-13.15,28.6-6.15C254,45,248,18,255.86,22.48c1.68,1,13.66,4.51,14.33,4.9,6.57,3.79,3.88-9.34,5-8.68.06,0-14.45,13.31-8.38,16.82,2.44,1.41,8.95-16.92,9.56-16.57,3.68,2.13,14.68-6.13,21.18-2.38,4.76,2.74-2.46-11.92,4.55-7.88,5.14,3-13.42,23.13-6.42,27.17,6.22,3.59,17.52-31.77,18.14-31.41,5.55,3.2-20,23.37-9.8,29.25,4,2.33,8.28-15.44,8.76-15.17,8.46,4.89-13.91,24.23-9,27,5.07,2.93,21.61-46,25.33-43.87,6.51,3.76-21.69,20.59-9.17,27.81.95.56-.83-8.06,3.28-5.69,5.88,3.4-4.86,14.1.15,17,1.86,1.07,2.18-15.49,7.25-12.56.48.27-7,13.31-1.7,16.39.54.31,5.27-11.87,6.46-11.19,4.08,2.36,19.9,2.42,21.09,3.11,2.34,1.35,13.68-31.15,16.91-29.29.69.4-12.83,17.78-6.59,21.38,3.75,2.17,1.93-11.9,5.63-9.76,6.69,3.86-9.46,15-7.53,16.15,2.51,1.44,6.41-14.58,7.92-13.71,1.74,1-7.3,9.72-3,12.22,3.37,1.94-.55-12.3,5.19-9,2.31,1.33,10.67,14.55,11.35,15,2.63,1.52,1.12-17.19,7.73-13.37,11.08,6.4-11.57,23.22-4,27.61,2.76,1.59,12.41-27.75,15.12-26.19,6.64,3.84,5.72,18,12.06,21.62,5.13,3,5.37-14.31,7.54-13.05,4.11,2.37-18.14,26.57-5.39,33.93,2.31,1.33,12.15-33.85,17.69-30.65,6,3.46-5.31,15.72-5.27,15.75.45.26,5-14.41,7.49-13,7.89,4.56,8.32,20.45,10.75,21.85,4.56,2.63,1.12-16.55,7.45-12.9,2.68,1.55,1.92,8.32,4.66,9.9.18.1,8.84-17.52,9.8-17,5.17,3-22.47,20-12.56,25.73,1.73,1,13.92-30.33,16.61-28.78,1.35.78-9.8,32.46-7.48,33.8,5.92,3.42,2.61-15.7,7.45-12.9.69.4,2.08,14.89,4.27,16.15,1.37.8,8.76-17.59,9.81-17,12.58,7.27-16,33.22-8.72,37.43,2,1.14,7.42-24.11,12.29-21.29,2.58,1.48-10.61,27.44-6.45,29.84s15.34-37.88,20.24-35c11.71,6.75-5.6,29.68,4.14,35.3,4.3,2.49,6.51-16.53,8.79-15.22,1.68,1-1.67,4.93-1.34,5.12,3.92,2.26,3.72-19.49,9.37-16.23,9.28,5.36-21,47.44-15.57,50.56,6.21,3.58,7.71-22.17,11.53-20,1.36.78-.32,17.54,7.55,22.09,5.93,3.42-.23-2,.8-1.38,5.52,3.18,16.93,12.31,17.45,12.62,2.71,1.56,7.64-14,8-13.81,10.21,5.89-11.27,37.1-.94,43.06,6.78,3.92,4.54-19.7,9.67-16.74,4.27,2.47-13.46,29.28-2.8,35.44,6.46,3.73,4.9-16.57,8.4-14.55,3,1.75-.11,30,5.15,33.06,3.8,2.19,2.67-6.72,3.58-6.2,4.15,2.39-12.4,11.22-5.73,15.07,4.65,2.68,2.82-15,7.2-12.46,1.13.65,3.58,6.27,3.78,6.39,1.8,1,5.15-27.32,13.12-22.72,7.36,4.25-8,30.62.08,35.3,2.75,1.59.35-19.27,8.43-14.6s-10.73,21.25-8.85,22.33c4.86,2.81,5.06-19.6,9.75-16.9,12.07,7-34.07,36.12-16.36,46.35,3.72,2.15,2.22-11.77,5.65-9.79,6.49,3.75-8.8,15.09-.88,19.66,7,4,8.86-21.71,11.61-20.12,14.39,8.31-16.08,30.5.69,40.18,1.78,1,3.59-12,6.08-10.54,22.61,13.05-40.15,46.75-20.66,58,8.88,5.13,14.8-35.35,19-32.92,17.67,10.2-26.55,40.83-21,44,12.61,7.27,12.27-38,19.5-33.77,14.62,8.44-37.7,42.86-15.83,55.48,7.18,4.15-.71-26.18,11.16-19.33,18.12,10.46-63.35,79.07-40.92,92,29.3,16.92,30.29-66.39,36.32-62.91"/><path class="cls-2" d="M51.13,179.86c12.66,7.32,9-23.29,12.34-21.38C74.81,165,44.83,178,50.65,181.37s11.21-41.75,20.88-36.16c24.07,13.89-44,91.23-43.83,91.31,2.24,1.29,10.35-147.75,66.57-115.29,18.41,10.63-125.44,98.21-72,129.09,61.32,35.4,49.16-187.86,93.64-162.18C195.73,134.2-62,227.77,15.84,272.73c6.18,3.56,25-72.29,37.55-65,21,12.1-56.74,66.22-35,78.75,11,6.36,13.36-65.81,31.84-55.14,17.08,9.86-28.68,75.14-23.95,77.87,9.32,5.38,6.21-19.33,9.93-17.18,8.35,4.82-20.77,35.57-12.13,40.56,3.64,2.1-.6-26.62,11.38-19.71,14,8.07-16.77,33-2.52,41.22,4,2.29,1.62-13.19,6.12-10.59C52,351,17.88,392.93,17.91,393c5.92,3.42,17.85-31.69,18.18-31.5s-3.84,18-.9,19.69c3.51,2,5-26.65,12.79-22.16,10.56,6.09-19.15,28.94-11.18,33.55,1,.57,1.8-15,6.93-12,.81.47-2.19,25.06,5,29.22,5.3,3.06-5.28-7.84,2.07-3.6,4,2.31-18.81,25-4.31,33.38,7.44,4.3-2.83-8.92,3.16-5.46,7.27,4.19-5.64,14.95-.28,18.05,5.9,3.41,5.79-20.27,10.23-17.71,21.37,12.34-26,37.79-6.71,48.94,3.83,2.21,20.68-47.61,25.79-44.66,11,6.36-20.8,36-11.9,41.17,5.72,3.3-2.62-11,4.1-7.11,3.1,1.79,8,12.93,13.35,16,3.36,1.93,2.36-10,4.93-8.54,2.27,1.31-3.2,13.31-.72,14.75,4.85,2.8.81-6.89,3.19-5.52,5.65,3.26-8.1,12.13-4.2,14.38,5.38,3.11,6.19-14.81,8-13.79.88.51-10,9-5.7,11.52,3.58,2.07-4.37-5.36,1.22-2.13.33.19-3.48,5.44-1.82,6.4,3.22,1.86,5.65-15.08,7.94-13.75,4.23,2.44-14,14.61-8.68,17.68,5.48,3.16,11.66-30.78,16.24-28.14,12.42,7.17-9.7,37.65-2.67,41.71.47.27,1.92-11.71,5.55-9.61,1.64.95,10.75,3.23,13.26,4.67s1.51-16.15,7.37-12.76c3.14,1.81-14.54,16.06-6.39,20.77,6.3,3.63-1.43-2.24.61-1.07,8.12,4.69-14.95,17.3-8.17,21.22.29.16,8.75-16,9.11-15.79,2.21,1.28,14.91,4.06,15.46,4.37.94.55.46-12.09,5.35-9.27,5.16,3,.84,31.52,1.43,31.86,4.27,2.46,1.61-16.34,7.48-13,2.57,1.49,3,14,10.88,18.52,2.47,1.43,9.73-18,10.23-17.72,1.85,1.07,5.44,13.21,14.3,18.32,1.19.69,1.28-6.14,3-5.16,9.74,5.63-5,22.57,3.36,27.4,1,.58,2-3.78,2.15-3.71,9,5.22,1.6,20.66,2.69,21.28.53.31,11.43-33.91,17.54-30.38,14.38,8.3-31.78,22-17.08,30.48,1.39.8,9.63-28.25,14.64-25.36,7,4.06,11.79.83,18.61,4.77,6.42,3.71-.05-9.16,3.95-6.86,6.12,3.54-5.86,21.68-.45,24.8,2.46,1.42,1.32-17,7.7-13.33,5,2.87-1.94,13.4,2.55,16,6.05,3.5,4.09-15.61,7.79-13.48,2.44,1.42,1.81,8.95,2.59,9.4,1.12.65,3.92-11,5.76-10,.16.1.61.52.86.66,6.49,3.75,1.12-14.19,6.43-11.13,7.2,4.16,10.38,13.32,12.1,14.31.41.24,2.16-10.5,5.09-8.81,14.81,8.55-19.73,30.26-9.28,36.29.85.5,8.39-25.3,13.05-22.61,5,2.87-2,10.59-.3,11.55.66.38,11.42-24.35,13.4-23.21,3.87,2.24,1,19.16,1.68,19.56,6.89,4,8.49-19.42,10.53-18.24s4.68,8.94,6.93,10.24c2.78,1.6,4.78-19.81,9.77-16.93,12.83,7.41-25.58,32.88-9,42.42,1.66,1,13.87-37.91,19.88-34.44.67.39-11.7,19.65-9,21.23.18.11,8.56-30.09,15.17-26.28,13.11,7.57-31.83,25-16.51,33.88,6.73,3.89-3-11.52,4.25-7.37,5,2.89,7.71-7.91,10.58-6.25,3.46,2,9.63-26.85,14-24.31,10.38,6-17.36,17.4-9.16,22.14,4,2.32-.54-16.6,7.06-12.22,11.6,6.7-3.45,22.56,6.23,28.15,3.67,2.12,4-24.78,11.74-20.34,4.64,2.68,8.84,8.25,9.12,8.41s16.3-38.31,20.66-35.79c2.49,1.43-18.59,36.64-14.87,38.79,4.76,2.75,6.52-31.14,15.11-26.18,8.32,4.8-12.32,16.94-10,18.29,1.8,1,5.45-11.53,6.36-11,15.49,8.94,18.51-23.22,32.46-15.17,1.72,1,5.74-21.94,10.94-18.94,7.24,4.18-6.05,20.33,1.41,24.64,9.77,5.64,9.37-17.58,10-17.24,2,1.17,13.81-7.83,18.46-5.15,6.15,3.55-7.93-13.13,3.7-6.41,2.6,1.5,14,2.17,15.34,3,11.5,6.64,17.83-43.64,23.36-40.45,3.23,1.87,11.51,5,11.6,5,15.73,9.08,43.28-136.65,70-121.22,35.34,20.4-44.15,89.52-42.5,90.48s27.68-49.83,28.5-49.36"/><path class="cls-3" d="M101.52,273.14c2.79,1.61,12.11-23.42,13.17-22.81,1.23.71-27.67,35.46-18,41,21,12.11,23-63.92,33.42-57.89,9.21,5.32-82.78,78.66-39.89,103.42,25.13,14.51,9-112.59,51-88.34,5,2.86-48.76,86.35-41.44,90.58,17.24,9.95,17.88-127,59.45-103C172.27,243.7,87.08,347.7,94,351.72c18.43,10.64,62.56-112,64.13-111.08C202.9,266.47,93.31,349,99,352.25c22.84,13.18,11-143.71,65-112.53,40.1,23.16-75.67,92.51-57.42,103,4.91,2.84,19-139.32,65.07-112.7,7.1,4.1-117.43,103.23-59.86,136.47,27.77,16,80.18-153.86,86.67-150.11,7.83,4.52-145.53,128.23-74.12,169.46,59.83,34.55,55.84-144.06,76.34-132.22,49.1,28.35-85,101.31-61.93,114.6,37.08,21.41,39.21-165.84,81.61-141.35,4.16,2.39-91.65,128.3-74.62,138.14,25.73,14.85-1-146.57,63.22-109.5C254.75,282,141.23,372.64,144.27,374.4c35.52,20.5,35.65-162.31,79.2-137.16,45.57,26.31-99.15,132-73.32,147,59.31,34.24,67-127.4,71.92-124.58,5.87,3.39-67.33,89.18-36.78,106.81,16.89,9.76,18.67-126.17,59.3-102.71C297.67,294.37,153.7,378.05,182,394.39,193.39,401,220.72,274,243.81,287.33c43.89,25.34-66.33,84.13-42.27,98,10.92,6.3,35.32-74.89,41.26-71.47,5.76,3.33-13,17.94-3,23.69,1,.59-.88-15.91,6.66-11.55"/><path class="cls-2" d="M107.4,277.84c4,2.3,6.8-51,23.79-41.19,5.48,3.16-1.93,16,.85,17.61,5.88,3.39,11.72-43.95,22-38,2.93,1.69,3,16.91,9.63,20.75,2.89,1.67,2.42-7.65,3.92-6.79,2.31,1.34,3.9,9.21,8.89,12.09,4.73,2.73,6.09-16.27,8.57-14.84s10.46,14.38,10.75,14.55c2.76,1.59,2-16.2,7.51-13,10.86,6.27,1.43,27.51,2.19,28,2.69,1.55,7.51-14.89,8.32-14.42,2.15,1.24-.61,9.78.19,10.24,2.2,1.27,4.88-14.55,7.52-13,13.91,8-3.37,30.34,4.62,35,6.57,3.79,17.38-34.06,19.09-33.07,7.39,4.27-42.54,36-23.4,47.08,5.94,3.43,14.11-40.43,21-36.44,10.78,6.23-5.14,33.76-3.46,34.73,4.88,2.82-.42-9.25,3.9-6.75,3.73,2.15-10.87,16.08-6.73,18.47,7.56,4.36,3-10,5.07-8.78,4.09,2.36-9.45,15.83-7.09,17.19,9.3,5.38,16.73-32.56,18.28-31.67,6.94,4-24.23,54.72-19,57.73,17,9.82,11.82-48.44,23.93-41.44"/><path class="cls-2" d="M94.81,269.77c2.91,1.68,12.43-24.08,13.54-23.44,1.27.73-28.84,36.67-18.88,42.42,22,12.68,23.82-66.51,34.76-60.2,9.56,5.52-86.58,81.44-42,107.15,6,3.44-.32-22.4,9.62-16.66,1,.56-1.83,18.68-.4,19.51,2.84,1.64.66-16.93,7.5-13,2.85,1.64-14.78,24.81-13.27,25.68,2.92,1.69,10.77-19.22,11-19.08,7.37,4.26-7.12,19.35-6.18,19.89,3.23,1.87.65-18.79,8.3-14.38,1.72,1-1.6,4.55-.81,5s.89-16.08,7.18-12.45c1.78,1-17,28.92-2.57,37.25,3,1.74,20.25-36.7,21-36.3,2.45,1.42-31.58,44.21-9.25,57.1,5.85,3.38,5.34-13.87,7.34-12.71,3.13,1.81,5.43-5.46,6.9-4.61,3.62,2.08,8.55-24.36,12.68-22,.86.5-15.83,28.15-12.29,30.19,2.52,1.46,1.16-16.51,7.44-12.89,4,2.31-3,11.32-2.69,11.48,3.5,2,6.76-21.63,11.05-19.15,8.47,4.88-10.55,27.17-5.75,29.94,6.12,3.54,5.64-10.94,6.15-10.65,1.43.82,19.79-8.38,27.24-4.08,2.25,1.3-.79-11.17,4.64-8,14.53,8.4-17.16,34.08-9.41,38.55,2,1.16,13.39-32.53,17.44-30.19,11,6.32-7.07,23.16-1.06,26.63,3.51,2,14-28.68,15.92-27.58,5.85,3.38,12.19-15.4,22.32-9.55,4.68,2.71,3.33-85.74,38-65.74,16.47,9.5-24.29,37.15-13.78,43.22,7.69,4.44,1.89-11.31,5.36-9.3"/><path class="cls-3" d="M295,280.21c2.07,1.19,11.67-26.25,14.28-24.74,23.37,13.49-46.83,49.71-24.83,62.41.94.54,13.33-93.1,43.64-75.6,14.36,8.28-47,76.81-28.07,87.77,27.7,16,15.83-140.68,64.87-112.37,49.65,28.67-93.37,113.71-69.43,127.53,16.51,9.53,63.1-137.53,75.33-130.47C418.94,242.51,303,332.45,310.58,336.8c10.13,5.85,40.55-128.33,65.71-113.8,34.82,20.1-78.89,100.05-44.8,119.72,52.7,30.43,55.59-121.25,66.4-115,15.4,8.89-86.74,113.78-66.47,125.48C352,365,377.09,178,418.7,202c21.14,12.21-116,158.85-89.79,174C372.17,401,425.3,195.85,431,199.15c63.38,36.59-133.22,127.49-83.37,156.27,8.66,5,11.17-181.35,81.32-140.85,17.23,10-110.87,119.13-64.19,146.09,8.9,5.14,25.29-161.14,76.1-131.8,18.07,10.43-135.11,130.4-86.95,158.2C375.12,399.3,441.83,197,458.2,206.44,499,230,321.46,327.74,373.63,357.85c43.86,25.33,37.64-181.67,88.07-152.55,39.75,22.95-104.76,177.48-89.44,186.33,45.13,26.05,74.61-198.6,104.65-181.26,12.94,7.47-150.25,123.26-73.46,167.6C446,402.54,489.45,207,499,212.5c72.11,41.63-104.06,180.74-98.44,184,49.15,28.37,68.67-191.18,99.95-173.12,5.49,3.17-108.93,152.47-76.91,171,44.75,25.83,31.18-175,83.56-144.73S433.9,390.41,440.9,394.45c59.92,34.6,63.37-149.1,80.41-139.26,1.43.83-67.56,115.86-49.4,126.35,36.06,20.82,24.34-162.19,76.32-132.18,25.13,14.51-66.28,98.31-48.49,108.58,20.41,11.79,26.62-81.12,41.78-72.37,8.83,5.1-60.54,54.65-35.1,69.33s-5.08-88.41,37-64.11c12.51,7.23-7.95,32.6.46,37.46,6,3.47,8-24.2,12.47-21.59,11,6.35-18,20.32-12.78,23.35,2.83,1.64,10.94-29.32,15.43-26.73"/><path class="cls-2" d="M319.46,252.81c2.77,1.6,3.9-15.69,7.77-13.46s14-8,19.39-4.86c8.11,4.69-.15-13,5.58-9.66S377,217,380.09,218.76c3.34,1.93,11.39-24.8,13.58-23.53.19.11-5,10.72,1,14.21,5.6,3.23-.27-15.21,6.52-11.3C413.58,205.29,386.38,226.6,387,227c2.12,1.22,14-28.9,16-27.73,6.75,3.9-6.3,18.91-.81,22.08,6.12,3.53,6.43-17.24,9.07-15.71,5.37,3.1,1.78,12.28,2.64,12.77,4.12,2.38,6.88-15.39,8.38-14.52.67.39-13.61,23.4-1.14,30.6.54.32,21.87-41.49,23.43-40.59.63.36-10.3,22.9-3.26,27,.18.1,4.09-16.44,8.14-14.1.35.2.82,7.61,2.25,8.44.84.48-1.43-5.78,2.14-3.71,2.16,1.24-4.49,6.31-1.47,8.05,4.9,2.83,7.27-19.93,10.45-18.09,2.28,1.31-16.31,13-8.4,17.59,6.77,3.91,8.26-16.56,9.23-16s-15.4,31.39-15.31,31.45c4.24,2.44,8-13.82,8-13.81,2.53,1.45,8.41-2.14,14.44,1.34,5,2.9,8.62-29.31,14.85-25.71,9.37,5.41-11,30.32-10.18,30.79s4.06-15.3,7.64-13.24c1.62.94-10.24,25-7.37,26.65,1.18.68,6.52-14.39,7.86-13.62,5.46,3.15-14.72,15.18-8,19.07,2.91,1.68,18.63-44.26,23.83-41.26,12.49,7.21-20,32.27-13.93,35.75C490,243,504.18,206.63,504.77,207c0,0-19.71,39.15-15.72,41.44.61.36,21.92-40.89,23.19-40.16,10.9,6.29-28.53,24.16-13.92,32.6,1.91,1.1,5.65-18,9.19-15.92,13.08,7.55-15.63,26.5-3.58,33.46,2.83,1.63,18.36-40.78,22.25-38.53,11.17,6.45-7.61,29.71-.15,34,2.29,1.31,3-15.84,7.6-13.16,3.5,2-4.48,13.51-2.13,14.87s.12-4.6,2-3.5c1.38.79-.83,3.3,1,4.35,4.35,2.51-1.39-2.22.61-1.07,3.47,2-1.71,8.69,1.82,10.72,4.39,2.54,2.27-17.27,8-13.94.3.18-24.07,19.22-11.63,26.4,3.76,2.17,9.86-17.77,10.16-17.6,11.32,6.54-18,24.65-6.59,31.22,5.57,3.22,5.19-21.66,10.68-18.49,4.43,2.56,1.77,9.13,7.18,12.25,4.74,2.74-8.15-8.39,1.59-2.77,10.81,6.24-19,22.57-10.23,27.65,4,2.29,21.18-40.28,22.74-39.39"/><path class="cls-2" d="M288.32,276.84c2.17,1.26,11.95-27.08,14.71-25.49,24.27,14-49,51.5-26.16,64.69,1,.57,13.67-97.36,45.58-78.94,15.24,8.81-51.17,81.22-31,92.86,4.38,2.53,6.78-29.68,14.54-25.2,15.37,8.88-26.66,36.33-19.25,40.61,2.36,1.36,19.76-38.26,21.51-37.25,10.67,6.16-8.42,28.45-6.75,29.42,1.2.69,1.83-10.1,4.83-8.37,7.26,4.2,2.94,20.6,10.05,24.71,5,2.88,6.54-13.69,7.56-13.1,1.6.93-4.52,13.33-2.41,14.55,1.87,1.08,9-24.38,12.8-22.18,5.19,3-22,41.75-15.59,45.46,3.8,2.19,24.12-42.92,24.62-42.63,8.27,4.78-12.55,18.57-6,22.33.74.43-3.79-7.37,2.24-3.88,2.27,1.31,3.08,15.36,9.23,18.91.75.43,3.25-15.43,7.5-13,3.34,1.93-22.2,25.48-13.29,30.62,1.77,1,20.29-38.31,21.66-37.52,2,1.18-4.64,6.93-2,8.44,3.66,2.11,1.05-11.53,5.26-9.1,8.5,4.91-10.35,41.76-7.07,43.66,3.81,2.2,18.91-38.63,21.45-37.16,1.85,1.07-1.89,18.22,9.11,24.57,3.81,2.21,13.4-25.19,14.26-24.69,16.22,9.36-18.67,42.88-17.4,43.61,4.53,2.61,17-36.19,19.93-34.53,1,.57-3.35,30.27,2.41,33.59,4.6,2.66,3.46-18.43,8.84-15.32,6.07,3.5,6.95,16.22,7.76,16.68,7,4.05,10.13-22.14,12.12-21,.22.13,14.76,8.92,17.5,10.5,5.55,3.21,13-41,21-36.4,5.22,3-3.74,22.55-.05,24.68,4.16,2.4,8.09-21.12,11.17-19.34,2.09,1.2-11.24,14.12-5.23,17.59s1.93-25.95,11.72-20.3c7.4,4.27,17.17-3,22.15-.11,9.73,5.62,12.73-39,20.05-34.73,12.87,7.43-14.14,26.56-8,30.12,11.79,6.81,22.68-82.5,41.39-71.7,13.64,7.88-44.31,61.83-31.35,69.31,2.63,1.52,16.26-38.83,20.88-36.17"/><path class="cls-3" d="M188,188.6c3.31,1.91,2.48-12.85,6.18-10.72,7,4.05-24.66,31.41-17.17,35.74,13.1,7.56,22.8-39.52,22.81-39.51,3,1.74-16.74,23.62-7.23,29.11,4.68,2.71.19-46,20-34.59,4.49,2.6-16.88,34-16.15,34.39,14,8.07-3.94-50.43,20.85-36.12,10.18,5.88-45.86,46-26.94,56.88,28.08,16.21,25.9-89.38,45.18-78.25.93.54-76.37,72.13-46.27,89.51,11.31,6.53,18.66-93.79,45.28-78.42C247.19,164,212.71,216.39,219,220c35.61,20.56,6.65-67,30.69-53.14,27.21,15.71-37.44,68.89-22.93,77.26,15.16,8.76,34.83-97.84,51.07-88.47,19.75,11.4-78.13,77.45-46.92,95.47,4.28,2.47,39.32-87.06,47.53-82.33,13.95,8.06-16.73,62.38-16.5,62.51,7.43,4.3,6.18-86.15,38.85-67.29,6.25,3.61-68.44,82.6-45.64,95.77,29.42,17,24.17-89.83,44.94-77.83,26.48,15.28-38.35,51.8-16.91,64.18,13.69,7.9,13.24-48.13,24.15-41.83,5.54,3.19-18.64,31.29-18,31.68,12.8,7.39,4-35.72,16.46-28.5,2.58,1.49-3.06,13.85-1.38,14.82,4.2,2.43,3.58-12.22,6.19-10.71"/><path class="cls-2" d="M197.34,187.22c6.81,3.93,14.59-42.73,22.16-38.36.43.25-2.49,14.77-.38,16,6.35,3.67-1.8-9.76,3.78-6.54,2.92,1.69-4.62,17.46-.2,20,.29.16,17.4-32,18.21-31.55,1.94,1.12,2,6.08,4.41,7.47,6.71,3.87-2.58-4.14,1.15-2,4.47,2.58,6.09,16.06,12.18,19.58,6.69,3.86,4.85-15.33,7.85-13.6.91.53.72,16.83,6.71,20.29,2.28,1.32,9.33-30.63,15.6-27,1.43.82,17,13.25,17.42,13.5,1,.55,4.06-10.3,5.48-9.49,7.45,4.3-13.74,26.16-13.15,26.5,5.75,3.32,5.18-17.21,8.75-15.15,10.85,6.26-18.29,31.39-7.93,37.37.11.06,15.4-42.36,22.19-38.44,6.57,3.79-30.81,33.11-17.13,41,2.29,1.32,4.61-26.82,12.77-22.11,5.39,3.12-19.5,16.77-11.81,21.22,3.62,2.09-2.26-19.45,7.86-13.61"/><path class="cls-2" d="M181.19,185.29c3.58,2.06,2.68-13.89,6.68-11.58,7.37,4.26-26.09,33-18.21,37.54,14.27,8.23,24.25-42,24.26-42,3.48,2-20.43,26.77-9.51,33.07,5.14,3,1.06-52,22.79-39.49,5.22,3-20.07,39.23-19.22,39.72,6.51,3.76-7.76-13.23,3.79-6.56,4.81,2.77-19.2,22.78-10.25,27.95,7.62,4.4,13.68-35.77,18.92-32.75.45.26-34.92,36.08-20.3,44.52,2.5,1.45,9-29.13,14.85-25.72,5.54,3.2,2.28,26.39,5,28,5.76,3.33,3.59-15.21,7.48-13,8.4,4.85,3.65,20.91,8.12,23.49,2.39,1.38,8.05-19.85,10.61-18.37,5,2.89-14.83,21.55-6.9,26.13.7.4,6.48-14.3,7.82-13.53,4.82,2.78,21.87-4.14,21.94-4.09,1.46.84-2.11-11.09,4.28-7.41,2.31,1.34-20.34,32.49-11.91,37.36,6.78,3.92,10.24-28.79,15-26,8.32,4.81,2.67,14.73,9.4,18.62,7.11,4.1,7.6-26.23,13.26-23,2.26,1.3-7.46,12.86-7.19,13,6.83,3.95-.56-14.42,6.11-10.57,2.58,1.49,12.4-5.85,14.09-4.87,21.57,12.45,6.11-41.5,19.5-33.77.1.06-22.15,26.31-14.43,30.77,15.69,9-1.67-41.4,17.51-30.33,15.92,9.19-23.24,34.77-13.44,40.43.59.34,9.93-21.58,11.82-20.48"/></g></g></svg>