<svg xmlns="http://www.w3.org/2000/svg" viewBox="0 0 92.94 132.98"><defs><style>.cls-1,.cls-2{fill:none;stroke-linecap:round;stroke-linejoin:round;stroke-width:2px;}.cls-1{stroke:#29abe2;}.cls-2{stroke:#0071bc;}</style></defs><g id="Ebene_2" data-name="Ebene 2"><g id="Ebene_1-2" data-name="Ebene 1"><path class="cls-1" d="M25.82,72.61c10.47,6,6.58-21.58,11-19,8.56,4.94-26.63,30.59-13.21,38.34,33.32,19.23,2.9-97.56,43-74.43,22.91,13.23-88.8,63.33-45.78,88.16,12.14,7,11.28-103.77,47.76-82.71,20.71,12-80.18,60.74-40.52,83.64,36.81,21.26,5.94-95.29,42.75-74C100.94,50,20.33,109.39,33.59,117.05,66,135.78,43.51,26.28,75.37,44.68c23.22,13.4-53.81,61.84-30.68,75.19C68.1,133.39,51,47.62,77.55,63,92.63,71.66,37.16,105,53.7,114.57,63,119.91,56.8,68.89,74.26,79c18,10.41-29.86,32.5-13.59,41.89,13.51,7.8,14.6-39,20.55-35.59,12.86,7.43-23.86,27.9-9.29,36.31,6.22,3.59,7.64-25.6,13-22.51"/><path class="cls-2" d="M39.73,63.43C65.3,78.19,42.25,0,67.82,14.79,78.54,21,57.75,35.42,64.53,39.33c4.85,2.8,3-20.31,9.55-16.53,6,3.47-14.09,16.34-6.27,20.85C76.84,48.87,71,17.27,80,22.49c12.62,7.29-21.39,31.15-11.64,36.78,3.41,2,6.18-25.61,12.63-21.88C95.81,45.93,49.51,66,67.35,76.26c9.4,5.42,2.79-22.35,10.38-18,8.19,4.73-13,21-6.15,24.91,8.68,5,4.68-30.42,14.34-24.85,4.07,2.35-15.64,25-9.18,28.75s8.52-23,12.11-21c13.71,7.91-23.07,34.82-14.18,40,3.26,1.88,7.52-26,13.13-22.73"/><path class="cls-2" d="M19.22,69.09c10.66,6.16,6.73-22,11.21-19.42,9.3,5.36-29.55,33-15,41.4,35.85,20.7,3.37-105.41,46.49-80.52C86.86,24.94-35,79.25,11.8,106.26,26.93,115,25.21-21.88,70.64,4.35c25.92,15-101.87,75.27-52.23,103.94,6.91,4,1.31-18.24,8.22-14.25,8.57,4.95-7.17,23.83-3.4,26C29.69,123.78,28.66,96,35,99.63c7,4.05-8.4,20.47-1.41,24.5,5.77,3.33,3.2-20.66,9.75-16.88,3.25,1.88-4.67,10.15-1.1,12.21,2.62,1.51-3.77-4.93,1.19-2.07,4.49,2.6.9,7.45,5,9.79,5.54,3.2,6.59-17.05,9-15.64,6.89,4-7.71,15.56.09,20.07,7.25,4.18,8.05-28.38,14.3-24.77,4.23,2.44-7.61,10.47-1.51,14,10.27,5.94-2.39-34.39,14.3-24.76,3.82,2.21-10.4,18.22-2.22,22.94,4,2.3,1.29-13.75,6.28-10.87"/></g></g></svg>