<svg xmlns="http://www.w3.org/2000/svg" viewBox="0 0 804.66 292.09"><defs><style>.cls-1,.cls-2{fill:none;stroke-linecap:round;stroke-linejoin:round;stroke-width:2px;}.cls-1{stroke:#999;}.cls-2{stroke:#666;}</style></defs><g id="Ebene_2" data-name="Ebene 2"><g id="Ebene_1-2" data-name="Ebene 1"><path class="cls-1" d="M134.4,75.61c1,.59,4.16-15.41,7.72-13.36,5.15,3-31.39,52.79-25.61,56.12,23.33,13.47,22.18-80.45,40.38-69.94,2.86,1.66-71.51,58.47-40.5,76.37,5.24,3,24-100.24,49.39-85.55"/><path class="cls-1" d="M12,163c1.88,1.09,1.61-12.1,5.64-9.77,5.14,3-12.54,18.14-9.21,20.07,16.73,9.65,1.24-40.68,17.92-31.05C48.39,155,8.8,191.42,10,192.08c10.64,6.14,24.28-68.8,35.86-62.12C72.73,145.51-1.11,186.3,9.87,192.64c27.06,15.62,12.42-97.36,45.26-78.4,39,22.51-57.69,86.42-44.94,93.79,17.14,9.89,10.19-107.13,48.94-84.76C63.85,126-13.65,202.1,17,219.8c35.78,20.65,5.59-134.72,59.74-103.46,3.8,2.2-57.33,108.91-57.09,109,45.81,26.45,32.26-129.15,64-110.83C138.27,146.1-7.85,234.07,19.27,249.73,73.29,280.92,35.68,77.39,98,113.37,157.91,148-24.67,214.28,30,245.83c2.76,1.6,25.77-165.76,78.21-135.48,20.74,12-91.35,130.12-70.89,141.94,12.35,7.13,35.52-166.49,81-140.24C146,128.06,19,247.77,41.86,261c41.6,24,58-276.44,134.2-232.44,35,20.2-240.62,179.89-133.25,241.88C100.17,303.5,140.84.46,184.2,25.49,272.92,76.72,38.7,268.18,46.44,272.65,147.5,331,103.05-36,194.25,16.63,239.33,42.66-52.2,203.6,52.34,264,105.93,294.9,115.22-28.45,194.67,17.43,296,75.91-19.81,232.32,63.17,280.23,130.9,319.33,119.58-36.86,214.58,18c42.24,24.39-197,216.25-136.19,251.35,40.45,23.35,46.76-313.13,147.28-255.09C284.46,48.19-19.94,210.64,87.36,272.58c1.48.86,58.75-317.89,152.34-263.86,122.61,70.8-173,250.36-144.35,266.92,97.94,56.54,122.77-279,151.49-262.39C285.55,35.6,38,239.77,108.79,280.64c83.5,48.21,156.92-276,158.74-274.95,49.24,28.43-270.85,187.65-142,262,31.14,18,78.2-297.15,148.22-256.72,10.87,6.27-152.46,246.94-130.22,259.78,49.07,28.33,36.27-322.35,148.65-257.47C404.26,78,153.88,280.85,155.06,281.53,192.59,303.2,236.63-7.19,300.47,29.67,341,53,131.7,249.43,167.57,270.14,284.54,337.67,291.23,16,308.54,26,386.6,71,157.71,258.63,179.77,271.37,200,283.06,280,10.45,317.8,32.3c91.86,53-194.27,208.43-131,245,29.8,17.2,36.92-291.38,135.4-234.53C403.34,89.58,187.1,272.5,196.58,278,249.15,308.32,243.15-18,336.4,35.8c17,9.8-146.5,219.68-120.55,234.67C231.09,279.26,261.65-1.41,345,46.72c107.73,62.21-186.32,194.65-129.71,227.33C237.76,287,258.72,7.8,341.46,55.57,404.84,92.16,223.33,270.9,229.59,274.51c30,17.34,74.72-234.62,120.28-208.32,69.59,40.17-171.69,172.36-113.13,206.17C271.58,292.47,291.3,42,350.15,75.92c79.58,45.94-145.49,165.8-99.9,192.12,92.11,53.18,88.48-229.79,121.62-210.65C376.15,59.86,186.1,235.7,260.7,278.77,348.75,329.61,340.05,6.53,398.42,40.23,416.9,50.9,178,225.79,270.16,279c16.69,9.63,59-302.74,145.84-252.61C462.2,53,276.79,258.82,291.3,267.2,318.83,283.09,392.9,14.68,426,33.82c97.05,56-184.44,199.3-118.68,237.27C380.52,313.33,425.09,13.15,448.49,26.66c89.33,51.58-245.23,187.23-140.23,247.85,41.1,23.74,103.65-272.59,144-249.32C459,29.11,285.83,249,323.34,270.67c57.11,33,38.92-288.52,134.66-233.24,3.29,1.9-201.14,199.48-132.11,239.33C342.4,286.29,415.12-8,471.5,24.55c41.59,24-231.82,192-138.86,245.65C342.28,275.76,360.77-25,467.49,36.63c21.12,12.19-224.85,179-125.17,236.52,85.22,49.2,60.21-277.92,135.4-234.51C493.88,48,318.11,245.06,357.53,267.81c37.14,21.45,129.57-227,130.67-226.33C536.8,69.54,367.32,270.65,370.69,272.6c103.08,59.51,107.14-245.28,133-230.35,45.26,26.12-167,196.23-116.92,225.17C465.63,313,498.52,50.44,508.65,56.29,570.68,92.1,281,224.66,381.2,282.53S399.34-3.89,509.76,59.86c60.61,35-193.34,181.45-123.53,221.75,47,27.14,67.85-270.13,133.93-232C605.63,99,355.61,261.13,392.8,282.6c31,17.89,80.3-249.78,128.23-222.1,55.13,31.83-197.94,157.25-111.83,207C455.32,294.09,432.08,17.88,523,70.37c30.33,17.52-181.45,152.47-97.21,201.1,84.61,48.85,77.41-210,110.27-191,18.63,10.75-140.85,171.28-102.57,193.38,49.63,28.66,32.86-223.94,105.18-182.18,78.26,45.18-95.15,178.42-94.43,178.84,43.67,25.21,16.5-238.51,107.4-186,1.31.76-174.53,146.39-104.22,187C477,288.53,507.55,67.77,550.65,92.66c44.67,25.79-134.19,159.15-89.31,185.06,39.36,22.72,94.1-193,107.09-185.49,86.17,49.75-109.29,185-98.21,191.38,1.49.86,69.11-218.74,112-194,72.91,42.09-177.78,145.61-99.3,190.92,30.3,17.49,87-217.4,115.88-200.71C607,84.61,492.68,263,506,270.63,515.25,276,603.31,86.92,609.86,90.7c25.36,14.64-188,143.05-105.3,190.79C524.78,293.17,584.7,79.87,611.91,95.57,695,143.53,462,245.73,511.23,274.15c30,17.34,83.89-193.67,104.83-181.58C651.42,113,441.21,243.75,509.84,283.38,582.29,325.2,583.08,57.13,626.12,82c33.63,19.42-108.6,194.48-101.82,198.4C577.09,310.86,547,49.48,630,97.36,703.08,139.57,518.33,265,532.11,273c4.08,2.36,98.41-186.78,105.48-182.7,60.93,35.18-186.63,141.86-99.78,192,9.46,5.46,37-225.41,106.85-185.08C691,123.94,512.43,260.9,541.22,277.52c.31.18,91-192.32,106-183.66,10.39,6-138.65,148-83.4,179.91C584.56,285.73,652.61,96,663,102c33.1,19.11-130.3,150.46-91.88,172.64,50.66,29.25,27-210.23,97.79-169.37,59.56,34.38-115.09,166-96.19,176.94,56.45,32.59,94.89-170.65,97.62-169.07C728.5,146.71,580.23,267.25,590.09,273,618.52,289.36,614.47,86.4,677,122.48c31.2,18-133.65,123.59-75.18,157.35,49.56,28.61,79.61-146.53,83.36-144.37,60.24,34.78-90.11,131.66-68.4,144.2,12.49,7.21,80.69-148.57,84.5-146.37,4.58,2.64-97,130.35-73,144.22,8.29,4.79,69-153.39,83.67-144.93,66.65,38.48-106.76,131.49-83.17,145.11,1.55.9,68.49-141.29,78.3-135.62,15,8.63-83.36,131.61-71.58,138.42,29.14,16.82,34-175,84.28-146,23,13.3-149,107.65-79.54,147.77,40.11,23.16,37.25-167.69,81.92-141.89,25.74,14.86-98.73,121.58-75.93,134.75,40.93,23.63,34.33-169.54,82-142,56.59,32.67-79.16,140.1-70.33,145.2,1.52.88,62.72-141,76.72-132.89,40.17,23.19-86.77,112.42-55.89,130.24,5.2,3,30.15-165.34,79.14-137.06C802.14,164.2,641.32,248,688.5,275.26,730.68,299.61,749.32,136,764,144.51c62.16,35.89-78.31,122.43-65.75,129.68,26.85,15.51,50.81-124.37,66.56-115.28,38.16,22-108.43,92.1-53.13,124,1.34.77,25.33-151.21,71.81-124.37,39.44,22.77-46.92,109.23-43.54,111.18,32.93,19,34.19-90.59,47.78-82.75,19.41,11.21-42,54.52-19.58,67.46,11.65,6.72,3.29-44.5,20.09-34.8,9.36,5.4-12.88,19.35-7.48,22.47.55.32,5.45-16.52,8.51-14.75"/><path class="cls-2" d="M118,89.06c8.28,4.78,16.87-30.28,17.33-30,12.7,7.33-47.64,39.39-23.62,53.26,3.4,2,23.65-95.89,47.44-82.15"/><path class="cls-2" d="M27.54,150.92c17,9.84,12.86-30.61,16.47-28.52s8.19,4.41,8.54,4.61c4,2.32,4.05-9.17,5-8.62s9.59,1.61,13.18,3.68c7.93,4.58,2.09-20.78,9.52-16.49,2,1.12-2.23,11.31.89,13.11,3.31,1.91,2.9-5.56,3.13-5.43s10.79,9.39,11.54,9.82c3.69,2.13,9.58-24,12.81-22.18,1.92,1.11.17,14,4.56,16.59,32.18,18.58,36.54-99.43,52.19-90.4,21.25,12.27-71.94,78.37-42.58,95.32,2.19,1.27,2.9-18.64,8.8-15.23S109,129.65,118.07,134.9c4.17,2.41,7.11-15.26,8.38-14.52,2.07,1.19-6.1,10-2.08,12.28.46.26.57-1.07.61-1"/><path class="cls-2" d="M151.9,60.12c2.35,1.35,14.19-43.46,22.37-38.75,2.9,1.68-15.28,30.72-12,32.6,10,5.77,9.74-34.89,17.54-30.39.46.27,2,9.09,6.94,12,1.36.78,6.89-27.09,13.45-23.3.48.28-6.26,8.11-1.81,10.68.72.42-.12-10.18,4.38-7.58,3.87,2.24-3.31,8.72-2.49,9.2,4.43,2.55,4.68-22.79,11-19.12.93.54-6.39,9.6-3.15,11.48C214.34,20.46,213.62,4.23,215,5c3.22,1.85.69,6.71,4.14,8.7.26.15,1.56-5.69,2.86-4.94,4.83,2.78,10.16,13.54,10.54,13.75C235.06,24,244.12.52,245,1s.13,10.62,5.11,13.49c6.89,4,3.62-13.43,6.72-11.64.83.48-6.35,11.67-6.34,11.67,1.36.78.86-10.3,4.67-8.1,6.13,3.54-6.55,15.94-2.11,18.51,5.61,3.24,7.21-27.32,13.63-23.61.1,0-1.84,11.11-1.14,11.51,6.25,3.61-2.38-9.59,3.56-6.16,2.78,1.61-4.61,14.19,2.6,18.36,5.85,3.37,5-14.31,7.44-12.89,3.47,2,5.2,5.93,10,8.71,4.16,2.4,5.94-17.21,8.93-15.48,6.25,3.61,2.51,16.4,8.58,19.91.14.08,2.34-16.93,7.92-13.71,4.11,2.37,2,20.64,5.39,22.59,5.62,3.24,1.59-6.41,3.17-5.5,3,1.75,2.94,18.2,7.74,21,3.72,2.15,2.73-8.55,4.38-7.59,6,3.45,2.57,18.88,5,20.3,5.51,3.18,3.67-12.49,6.33-11,6.77,3.91-3.11,17.35.28,19.31,2.11,1.22,3-19.83,9.33-16.17,8.53,4.92-6.21,22.18-4.22,23.34,15.25,8.8,20.92-40.55,22.79-39.47,2.65,1.53-8.07,25.24-2,28.73,3.34,1.93,21.85-39.27,22.47-38.91,8.55,4.93-11.53,27.27-10.76,27.71,2.87,1.66,5.83-25.71,12.59-21.81,4.08,2.36-9.35,17.64-7,19,10,5.76,1.12-22,9.79-17,1.33.77-3.95,10.67-.34,12.75,4.39,2.54,8.92-29.48,15-26,4,2.31-15.08,23.68-13.61,24.53,8.89,5.14,10.16-24.9,13.32-23.08,1,.57-10.51,16.22-6.72,18.4,1.89,1.1,1.31-12.35,5.68-9.83,6.71,3.87,14.42,7.79,15.3,8.29s3.2-20.72,9.78-16.92c.38.22-2.55,16.88-.85,17.86,2.43,1.4,9.35-23.27,12.42-21.5,1.27.74,2.33,8.51,3,8.91,3.88,2.24,1.45-7.06,3.42-5.92,4,2.29,12.18,13.23,12.42,13.38,1.13.65-2.85-5.2,1.54-2.67,2.25,1.3-5.45,11-5.22,11.15,6.33,3.65,10-29.49,15.28-26.45,2.85,1.65-1.41,14.48.7,15.7,1.54.89,6.4-14.51,7.88-13.66,9.48,5.47,1.21,21.05,4.23,22.79,4.57,2.64,8.48-16.57,9.29-16.1,1.72,1-.43,20.52,2.44,22.18,3.89,2.24,5.7-15.18,8-13.86,3,1.72-5,12.6,2.29,16.78,3.57,2.07-.44-1.55.56-1,2.35,1.35-3.59,18-2.56,18.54,5.46,3.16,10.59-26.25,14-24.27,9.2,5.31-16.4,16.55-9.26,20.67,6.28,3.62,7.18-16.71,9-15.64,14.77,8.53-14.86,26.1-.71,34.27,6.15,3.55,8.46-28.8,14.59-25.26,4.38,2.53-21.14,29.48-5.75,38.37,7.11,4.1,9.39-25.67,13.46-23.32,8.26,4.77-7.16,37.17-7,37.28,1,.55,11.74-26.14,14.25-24.68,5,2.86-6.83,11.29-2.84,13.59,9.18,5.3-6.56-13.34,4.14-7.16,6,3.47,11.73-4.51,17.5-1.18.17.1,1.25-21.28,9.53-16.5,4.16,2.4-1.35,15.73,7.26,20.69.51.3,3.47-18.46,8.86-15.34,8.44,4.87-.15,16.12,5.54,19.4.44.26,11-32.48,16.82-29.13,5,2.91-19.87,19.37-13.08,23.29,4.15,2.39,4.72-11.07,6-10.35,2.81,1.62-1.33,10.34,5,14s5.2-22.3,11-19c3.52,2-9.47,10.69-4,13.83,4.78,2.76,6.59-13.74,7.6-13.16,2.13,1.23-9.4,19.92-8.79,20.26,2.17,1.26,3.21-8.78,4.6-8,.23.13-5.4,12.33.57,15.78s12.78-27,14.9-25.79c5.47,3.16-9.71,20.72-8.64,21.34,2.82,1.63,7.45-23.9,12.22-21.15s-8.71,17.25-6.83,18.33c1,.6,8.66-17.69,9.83-17,4,2.32-8.55,19.83-.62,24.41,2.68,1.55.21-12.42,5.43-9.4,3.86,2.22-1.6,11.23,3.55,14.21,3.4,2,5-10.34,5.72-9.91,7.42,4.28-4.42,28.56-3.49,29.09,6.91,4,15.14-28.54,16.14-28,.17.1-7.11,18.77-4.88,20.06,1.46.84.21-1.86.86-1.49,8.72,5-6,19.9,5,26.27,7.22,4.17,9.75-24.17,12.9-22.35,4.23,2.44-18.93,19-12.85,22.49,1.58.91,2.86-8.66,4.46-7.73s4,5.31,5.91,6.39c9.15,5.29,13.27-24.29,13.84-24,6.61,3.82-11.19,23.63-5.2,27.09,4.26,2.46,9.81-20.09,11.15-19.31,1.15.66-8.53,12.3-6.12,13.68,8,4.64,7.32-26.32,13.22-22.91.1,0-3.52,14.65,4.62,19.34.23.14,7-15.73,8.56-14.82.78.46,6.61,17.14,8.89,18.45,5,2.9,2.22-8.25,4.12-7.15,2.4,1.39,5.05,1.89,9.17,4.27,3.58,2.07-1.61-4.51,1.55-2.68,3.4,2-1,20.31,1.88,22,4.68,2.7,6.52-24.62,12.29-21.29,6.2,3.58,5.8,21.81,5.91,21.87,2.52,1.46.29-11.4,5-8.67,10.47,6-16.32,21.09-5.37,27.42,1.35.77,10.18-31.86,16.34-28.3,18.79,10.85-13.63,43.95-10.42,45.8,4.2,2.43,7.48-17.31,9.37-16.22,1.31.76-9.77,13.62-5.41,16.13,2,1.17,1.88-22.2,10.08-17.46,1.63.94-21.65,29.12-9.87,35.92,8.35,4.83,9.3-34.78,17.39-30.12,6.76,3.91-30.92,44.66-25.86,47.58,16.06,9.27,19.39-44.73,24.22-41.94"/><path class="cls-2" d="M5.25,159.65c2,1.13,1.82-12.83,6-10.41,5.43,3.13-13.33,19.1-9.82,21.13,17.46,10.08,1.39-42.62,18.81-32.57,23.29,13.45-19.08,51.69-17.87,52.39,11.17,6.45,25.89-72.89,38-65.88C69,140.8-9.35,184,2.3,190.77c28.39,16.39,13-102.09,47.45-82.19C90.61,132.17-11.08,199,2.29,206.72c4.28,2.47-1.59-19.57,8.08-14,1.19.69-9.43,22-1.7,26.5,5.62,3.25-3.38-13.77,5.12-8.86.46.27-2.68,14.76-2.66,14.77,6.36,3.67.91-11.73,5.31-9.19,12.69,7.33-12.39,30.6-6.09,34.24,6.14,3.54,6-26.77,13.1-22.68,7.81,4.51-9.77,15.11-2.65,19.23.29.16,4.18-19.94,9.68-16.77,3.13,1.81-5.8,22.05-2.71,23.83,1.21.7,5.52-19.8,10-17.23S28.31,260.9,32,263c2.36,1.37,4.86-18.41,9.19-15.91,3.44,2-19,19.67-8.47,25.76,3.11,1.79,8.82-20.71,11.17-19.35,7.3,4.21-8.38,21.58-7.74,22,5.34,3.08,9.54-27.66,14.36-24.88,2.9,1.67-15.22,12.37-8.5,16.25,2.82,1.63,4.19-16.91,8.37-14.5,11.18,6.46-7.63,27.11,1.53,32.4,3.43,2,4.47-18.88,9.29-16.09,1.2.69,3.68,5.1,5.41,6.1,2.08,1.2-1.68-9.05,3.5-6.06,2.33,1.35.44,8.17,4.7,10.63.08,0,3-16.76,8-13.85,6.5,3.75-1,15.19.48,16.07,5.59,3.22,5.08-12.58,6.72-11.64,2.46,1.43,1.3,15.63,5.8,18.23,4.72,2.72,14.47-25.29,14.57-25.23,2.07,1.19-3.25,9.19,2.16,12.31,1.76,1,.93-10.79,4.91-8.5.65.38,11.75,10.78,13.09,11.56,2.84,1.63,1.63-17.84,8.13-14.09C148,269.58,142,289,142.08,289c2.22,1.28,4.66-16.82,8.45-14.63.76.44,3.38,2.84,4.05,3.23,7,4,4.37-9.94,5.4-9.34,3.54,2,5.8,10,6.8,10.58,1.24.71,3.53-11.46,5.85-10.13,5.32,3.07-2.44,13.92,1.23,16,1.86,1.08.16-14.52,6.33-11,3.69,2.13,3,11.41,3.41,11.66,3.37,1.94,8.09-27.83,14.08-24.38,1.13.66,3.45,15.87,5.19,16.87,1,.59,3.34-18.67,8.92-15.45,8.75,5.05-14,16.38-9.45,19,1.5.88.92-14.43,6.48-11.23,3.62,2.1,7.43,11.49,7.79,11.69,2.12,1.23,3.55-13.57,6.77-11.72,2.83,1.64-2,8.2.38,9.57s-1.63-7,2.62-4.54c4,2.31,8.6-1.1,10.89.22,6.15,3.56-1-3.47,1.27-2.19.27.16,4.4,10.17,9.18,12.92,5.54,3.2,5.72-18.4,9.4-16.28,1.12.65-5.55,13.25.06,16.49,1,.59,9.74-29.28,15.11-26.18,2.66,1.54,5.19,13.92,6,14.4,1.67,1,0-4.64,2-3.47,5.81,3.35,10.13,5.09,14.06,7.36,4.44,2.56,6.34-14.24,7.76-13.42,5.7,3.29-13.57,13-6.86,16.84,2.49,1.45,8.18-19.82,10.63-18.41.37.21,2.39,13.38,4.45,14.57,3.48,2-3.81-6.89,2-3.52.11.07-1.91,8.2.52,9.61,1,.58,10.08-25.44,13.53-23.45,2.68,1.55-12.77,13.43-6.78,16.89.59.34-3.45-9.15,3.1-5.37.84.48,2.63,6,6.58,8.32,5.29,3.05.52-11.68,5.19-9,.67.39,8.4,2.71,10,3.65,2.34,1.35,2.52-4.53,2.59-4.49,2.64,1.52,10.39,9.17,10.57,9.27,6.67,3.85,6.77-15.58,8.44-14.62,2.17,1.25,5.23,8.06,7.63,9.44,5.24,3,.18-1.86.85-1.47,4.25,2.45-13.27,12.62-6.41,16.59,6.71,3.87,1.07-18.9,8.45-14.63,3.38,1.94-7.31,11.47-3.42,13.71,3.18,1.83,10.74-28.92,15.21-26.34,9.22,5.33-12.65,25-8.64,27.32,2.13,1.24,8.53-22.39,11.83-20.48,1.65.95,2,3.86,4.58,5.35,3.24,1.88-6.32-3.83.08-.14,2.31,1.34,10.09.44,16.5,4.15s1.64-8.53,4.11-7.11c.86.5,1.82,8.47,3.59,9.5,3.86,2.22-2.49-8.69,3.14-5.44a21.26,21.26,0,0,0,7.62,2.09c3.53,2,2.37-21.1,9.73-16.85.11.06-12.79,14.21-6.56,17.8,2.44,1.41,4-15.09,7.53-13,4.41,2.55,1.95,16.72,6.39,19.28,3.18,1.84,8.19-16.6,9.24-16,8.77,5.07-1.49,21.24-.36,21.89.12.07,8.42-22.41,11.81-20.45,5.9,3.4-5.47,13.72.88,17.39,2.38,1.37,12.62-27.1,14.89-25.79.7.4,7.06,15.22,8.18,15.87.73.42,2.78-6,3.3-5.71,2,1.16-11.25,12.8-4.71,16.58,1.6.92,5-13.67,7.17-12.43s-1.73,4.38-.51,5.08c2.39,1.38,3.26-9.47,4.92-8.51,3.05,1.76-12.22,14.32-6.3,17.74,5.77,3.33,13.4-31.13,16.83-29.15,4,2.28-3.18,25.69-2.38,26.15,4.29,2.47,1.51-18.15,8.24-14.26,2.49,1.44-.9,6.56-.43,6.83s8.16-15.46,8.74-15.12c6.93,4-12.91,18.72-3,24.42.8.46,6.76-25.19,12.6-21.82,4.33,2.5-11.87,15.54-9.18,17.09,0,0,10.68-21.41,11.94-20.69,1,.61,5.1,13.72,10.68,16.94,1.85,1.06,10.19-19.79,11.12-19.25,3.46,2-7.85,17.8-3.82,20.12,4.64,2.68,6-25.41,12.51-21.67,9.22,5.33-13.84,27.54-10.91,29.24,5.3,3.06,14.4-25.53,14.66-25.39,5.31,3.07,1.79,15.6,2.69,16.12,2.83,1.64,2.91-19.4,9.13-15.81,4.09,2.36-5.09,18.28,2.57,22.7,5.45,3.15,13.33-24,13.74-23.8,8.93,5.16-2,21.76,1.21,23.62,1.38.79,14.38-25.86,14.8-25.62.67.39-6.81,21.44-3.28,23.47.89.52,10.5-21.82,12.07-20.91,9.59,5.53-15,19.14-11.57,21.1.16.09,5.58-12.1,6.63-11.5,1.38.79-1,13.67.09,14.29,3.1,1.79,6.75-24,12.1-21,3.29,1.9-17.27,17.05-7.36,22.77,4.27,2.46,5-19.67,9.77-16.92,1.74,1-5.33,8.88-3.78,9.77,4.36,2.52,4.82-20.07,9.9-17.14,7.16,4.13.64,19.68,1.76,20.32.16.1,4.27-10.89,5.78-10,4.75,2.75,11.4,5.27,15.05,7.38.59.34,6.21-23.54,11.75-20.35,5.78,3.35-8.11,16.36-2,19.92,4.93,2.85,8.9-19.37,10.61-18.38,7.41,4.28-2.37,16.45-.87,17.32,3.27,1.88,2.62-9,4.54-7.87,5.33,3.08,1.17,12.15,8.89,16.61.18.11,10.78-33.24,17.09-29.6,6.89,4,9.54,17.89,10.13,18.23,5.91,3.41,3.51-11.71,6-10.31,4.83,2.79,11.39,1,17,4.19,5.9,3.4-1.54-17,7-12.1s16.44-6.49,21.38-3.63c1.53.88,14.78-45.27,23.29-40.35,13.72,7.91-21.59,36.24-18.45,38,2.35,1.36,14.54-25.48,14.67-25.41"/></g></g></svg>