<svg xmlns="http://www.w3.org/2000/svg" viewBox="0 0 1815.6 567.08"><defs><style>.cls-1,.cls-2{fill:none;stroke-linecap:round;stroke-linejoin:round;stroke-width:2px;}.cls-1{stroke:#6cc7e2;}.cls-2{stroke:#00b4d5;}</style></defs><g id="Ebene_2" data-name="Ebene 2"><g id="Ebene_1-2" data-name="Ebene 1"><path class="cls-1" d="M85.58,109.7C94,115,99.4,59,112.24,67,182,110.61-16.13,203.41,41.39,239.35,119,287.86,95.61-29.23,177.31,21.83,289.16,91.72-53.49,250,33.5,304.35,168.79,388.89,125.74-52.3,219.68,6.4c88,55-337.76,220.5-185.46,315.67C147.15,392.64,122.93-42.56,223,20,376.4,115.83,28,358,42.28,366.88,202.82,467.2,222.44,5.24,255.39,25.82c143.67,89.78-234,343.91-217.08,354.5C212.24,489,153.72-32.14,256.07,31.82,269.16,40,27.09,365.07,46.78,377.38,92.92,406.21,209.11-11,266.9,25.12,334.56,67.4-83.19,293,59.92,382.4,194.06,466.22,233.31,6.69,277.46,34.28,414.77,120.08,8.35,356.81,77.35,399.92,213.17,484.79,227.87-1,299.79,43.94,373.5,90-43.42,337.63,72,409.74c67.92,42.44,185.93-374.92,220.7-353.19C297.32,59.44-84.54,315.3,85.87,421.79,213.79,501.71,277.26,37.1,312.49,59.12c178.31,111.42-352.4,283.54-206,375C137.81,453.71,189.45-8.34,328.65,78.64c158.8,99.23-280.79,324.68-223.81,360.28C210.66,505.05,228.83,4.39,334.93,70.7,368.82,91.87,46.64,394.35,110.29,434.12c7.37,4.61,199.55-369.66,222.16-355.53C413.43,129.2,19.6,372,119.09,434.16,292.28,542.38,209.21,2.6,338.34,83.29,416.55,132.16,18.18,367.41,144,446,312,551,263.55,35.37,362.07,96.93c102.12,63.81-240.74,341.26-204,364.22,58,36.28,118.72-399.43,212.85-340.62C494.34,197.65,107.7,425.87,181.66,472.09,323.73,560.87,354.54,105.45,395,130.72c55,34.38-257.5,319.73-196.52,357.83C288.86,545,319,79,416.36,139.83,480.82,180.1,63.11,403,224.25,503.71c15.56,9.73,83.63-424.53,214.27-342.9,119.4,74.6-264.89,315.73-211.87,348.86,88.23,55.14,190.18-361.68,216-345.58,120.18,75.1-331.81,266.4-206.93,344.43C395.51,608.4,309,100.23,439.76,181.91c122.55,76.58-240,311.41-184.27,346.27C349.63,587,307.55,89.26,467.36,189.12c2.35,1.47-334.84,255.57-206.86,335.55C303.09,551.28,317.79,94,470.12,189.21c56.14,35.08-211.45,344.53-201.24,350.9C431.81,641.93,343.36,110.16,483,197.43c1.55,1-357.27,237.4-195.19,338.68,104.3,65.18,131.07-371,203.51-325.69,107.18,67-323.95,241.68-182.15,330.29C403.8,599.83,470.1,198.63,508.1,222.37,643.05,306.7,288.87,521,333.71,549.06c37.58,23.48,63.22-404.69,199.62-319.46,135.81,84.86-252.69,283-177.63,329.93,35.56,22.22,142.2-344,194.52-311.3,56.65,35.39-266.07,226.57-153,297.22,128.82,80.49,87.54-329,172.44-276,96.92,60.56-257.24,212.8-150.22,279.67,88.45,55.27,83.23-340.57,176.42-282.34,98.72,61.68-153.47,272.92-153,273.2,59.81,37.37,92.23-303.53,162.3-259.75C660.71,315,440,485.31,487,514.7,527.54,540,604.93,268,631,284.27c80,50-243.84,154.52-134,223.18C547.47,539,597.46,252.37,639.87,278.87,674,300.22,515,465.44,544.49,483.86c94.34,58.94,44-257.66,128.15-205.09,36.48,22.79-90.22,182.06-82.59,186.82,13,8.12,46.08-241.27,121.37-194.23,37.41,23.38-101.83,154.36-74.93,171.17,68.83,43,39.62-233.71,116.15-185.89,20.41,12.76-90.88,162-77.63,170.27,23.7,14.8,105.81-208.07,123.22-197.19,13.91,8.7-108.09,157.86-83.73,173.08C743.69,421,817.57,192.64,837.89,205.34c76.34,47.7-168.24,157.76-103.82,198C755,416.44,835.87,160.25,871.91,182.77,873.83,184,737.2,378.19,752.83,388,802.7,419.12,819,138.72,883.42,179c14.92,9.33-108.91,188.39-92.83,198.44C853,416.4,916.56,137.08,934,148c32.48,20.29-128.05,197.09-105.08,211.44C861.82,380,935.33,99,975.83,124.25c67.37,42.11-174.36,167.9-110,208.12,96.91,60.55,43.14-289.11,142-227.31C1043.33,127.21,754.26,270.53,863,338.49,918.29,373,923.3,36.12,1015.83,94c65.11,40.68-156.19,186.25-104.73,218.41,68,42.47,41.19-283.25,138.86-222.22,86.43,54-110.53,213.52-105.74,216.51C953.55,312.48,1078.69,71.3,1087.74,77c14.24,8.89-179.63,187.12-120,224.36,44.87,28,123.73-229.27,137.78-220.49,52.06,32.53-116.26,196.83-108.38,201.75,36.5,22.8,108.1-202.84,121.51-194.46,66.27,41.41-88.35,187.6-84.26,190.16C1064.07,296.84,1140.49,74,1156,83.68c86.15,53.84-156.24,157.06-93,196.56,50.75,31.71,81-207.44,116-185.6,52.18,32.61-97.69,184.33-84.94,192.3,6.34,4,94.92-214.74,123.16-197.09,22.73,14.2-165.88,162.73-113,195.76,23.35,14.6,36.73-247.89,121.72-194.79,53.75,33.59-151.07,183.21-116.6,204.75,7.17,4.47,74.67-238.63,128.21-205.18,96.85,60.52-155.51,193.74-121.61,214.93,12,7.47,113.86-222.19,131.83-211,57.65,36-123.09,214.48-114.43,219.89,26.72,16.69,54.65-247.53,126.59-202.58,6.35,4-176.28,144.47-89,199,22.62,14.13,61.52-235.3,123-196.87,31.17,19.48-188.38,163.71-108.25,213.78,61,38.11,88.46-225.56,126.2-202,7,4.35-117,194.4-112,197.56C1220,335.8,1237.61,59.45,1328.9,116.49c2.84,1.77-160.2,199.35-131,217.61,92.29,57.67,106.15-217.23,127.43-203.94,10.88,6.8-191.91,145.94-105.11,200.18,96.42,60.25,102.58-207.59,122.1-195.4,77.31,48.32-203.79,144.19-120.54,196.21,24,15,44.68-253.53,126.48-202.41,85,53.11-137.23,206-125.5,213.35,90.14,56.33,126.08-213.28,131.25-210,80.54,50.33-177.73,177.42-125.87,209.82,32.13,20.08,37.15-265,129.51-207.26,2.36,1.48-192.43,158.31-118.13,204.74C1315,386.52,1335.92,103,1372.82,126c11.3,7.06-199.63,165.26-108.34,222.31,86.11,53.81,57.67-261,133.5-213.65,68.13,42.58-162.28,195.22-124.66,218.73,53.56,33.47,118.76-211.84,128.55-205.73C1424.79,162,1200.09,306.62,1274.29,353c53.43,33.38,76.69-237.55,128.29-205.31,100.2,62.62-187.25,178.87-118.77,221.66,12.41,7.75,140-231.92,143.53-229.71,7.51,4.69-170.5,209.88-126.78,237.2,10.33,6.46,95.78-250.81,139.61-223.42,34,21.26-147.6,221.16-138.72,226.7C1392.42,437,1360.66,111,1439,159.93c33.24,20.76-196.64,172.72-117.15,222.39,17,10.6,113.34-237.51,138.56-221.75,65.43,40.89-182,195-134.14,224.87,108.4,67.74,89.37-264.78,144.08-230.59C1568.26,216,1279.75,344.51,1346.11,386c20.06,12.53,108.54-236.23,136.65-218.67,46.11,28.81-221.89,173-117.39,238.28,104.1,65.05,119.47-271.22,155.44-248.75,8.86,5.54-206.25,218.75-133.42,264.26,72.19,45.1,95.3-304.67,163.68-261.94,59.61,37.25-163.42,250.89-133,269.92,84.9,53.05,77.34-322.85,166.8-266.95,104.33,65.19-292.38,184.85-163.45,265.41,95.37,59.6,143-273.69,163.17-261.12,19.25,12-265.57,186.24-146.11,260.88,27.32,17.07,67.32-328.86,166.7-266.76,24.08,15.05-187.53,252.35-149.16,276.33,61.42,38.38,38.78-344.54,165.73-265.21,68.59,42.86-160.15,275.67-158.34,276.8,70.67,44.16,103.91-320.06,173-276.88,89.93,56.2-222.37,250.76-150.23,295.84,77.93,48.69,150.56-330,190.58-305C1718.13,188.24,1440,425.4,1513,471c93.81,58.62,154.86-336.76,194.82-311.79,49,30.61-274.64,253.81-189.33,307.12,3.76,2.35,176-328.21,196.91-315.12,24.79,15.49-225.39,316.19-180.82,344C1699,598,1619.92,63.87,1752.38,146.64,1915,248.25,1417.3,420.73,1537.86,496.06c23.57,14.73,171-377.37,217.62-348.26C1923.68,252.9,1521.9,476,1557.19,498.07c64.58,40.35,55.54-436.39,211.71-338.81,92.87,58-316.7,256.42-183.43,339.7,35.54,22.21,165-356.36,206.48-330.43,32.87,20.54-331.17,217.61-180.24,311.92,24.28,15.17,143.8-308.55,179-286.53,53.89,33.68-231.46,212.65-142,268.58,28,17.5,115.67-232.27,136.87-219,51.43,32.14-92.87,105.59-59.79,126.26,2.15,1.35,2-39.3,18.22-29.14" transform="translate(0 0)"/><path class="cls-2" d="M115.38,76.13c12.82,8,12.1-66.09,33.09-53,4.19,2.61-8.71,15-4.07,17.9,7,4.37,16-37,21.13-33.82,12.08,7.55,17.38,16.62,22.86,20,5.84,3.65,3.24-21.2,10.43-16.7,6.17,3.85,13.45-.56,17.87,2.2.56.35.3-3.83,1.81-2.89a178.57,178.57,0,0,0,18.32,9.82c.06,0,8.88-14.41,9-14.35,11.65,7.28,4,30,4.75,30.43.09.05,3.66-16.67,8.52-13.63,4.34,2.71-.24,8.92,5,12.19,3.26,2-.05-13.16,5.9-9.44,1.73,1.08,11.18,12.89,15.33,15.48,1.56,1,1.48-7.84,3.93-6.3.06,0,13.91,25.24,18.8,28.29,4.27,2.68,4.85-8.37,5.12-8.2,2.91,1.82-2.21,25.35,1.74,27.82,2.48,1.54,10.83-18.12,11.19-17.9,3.41,2.13,6.64,17.15,8.27,18.17,1,.62,3-11.18,5.87-9.39,11.11,6.94,3,36.3,3.75,36.77,3.83,2.4,8.22-17.12,10-16,4.72,2.95,1.27,21,2.69,21.84,4.09,2.56,7-14.23,8.34-13.36,5,3.11,9,21.8,13,24.31,1.54,1,2.6-17.49,8.59-13.75,2.59,1.62-7.26,15.52-2.86,18.27,3,1.9-1.43-10,4.07-6.51,4.66,2.91-6.65,18.09-1.53,21.29,3.26,2,15.69-25.61,15.91-25.47,3,1.87-13.1,11.18-7.09,14.94,5.64,3.52,8.06-14,8.55-13.68,2.62,1.65-5.72,11.5-2.9,13.27,5.65,3.52,1.41-8,4-6.38,11.5,7.18-5.16,30.72-2.19,32.58,1.21.76,12.73-26.65,15.55-24.89,14.32,8.94,8.17,38.67,10.27,40,5.13,3.21,4.94-12.9,7.18-11.5,10.41,6.5,13.06,16.74,20.9,21.64,2.49,1.55,7-15.84,9.08-14.54,8.86,5.54-15.89,32.42-2.27,40.93,5.67,3.54,5-19.89,10.33-16.54,9,5.63,15.06,14.57,18.24,16.56,3.49,2.18-2.54-4.71,1.4-2.25,7.95,5,8.9,26.66,12,28.59,3.41,2.13,14.93-27.12,16.38-26.22,17.56,11-3.59,37.44,9.29,45.49,4.15,2.59,7.9-17.52,10.09-16.15,1,.65.77,5.05,1.61,5.58,2.48,1.55,6.14-11.43,6.86-11,6.19,3.87,1.37,25.66,13,32.94,3.64,2.28,4.31-11.58,6.41-10.27,5.09,3.18-1.36,12.41-1.33,12.43,2.32,1.46,3.54-13.27,7-11.13,3.62,2.26,6.35,8.75,10.06,11.06,3.16,2,7.41-14.55,8.62-13.8,1.8,1.13,8.48,15.1,10.59,16.42,4.74,3,5.87-19.22,10.28-16.47,3.63,2.27-14.7,24.6-10.32,27.33,5.11,3.2,8.54-16.25,9.7-15.52.54.34-4,8.61-1.26,10.32,6.39,4,7.14-15.55,9-14.39,2.25,1.41-13.53,12.93-6.14,17.55,6.15,3.84,4.2-16.15,8.44-13.5,3.13,2-2.9,13.74-1.86,14.38,5.55,3.48,10.38-23.46,13.46-21.54,12.25,7.66-8.12,25.43,1.54,31.47,6.08,3.8,3.44-17.64,8.89-14.24,4.87,3.05-3,10.46-1.24,11.58,4.63,2.89,5.89-25.12,12.94-20.71,2.79,1.74-3.89,14.71,2,18.41,1.67,1,3.59-11,6-9.56,1.38.87,3.35,10.8,6.65,12.86.08.06,11.47-29.36,16.42-26.27.94.59-8.67,21.17-4,24.11,1.62,1,3.21-21.82,10.71-17.13,1.22.76,14.16.46,22.23,5.5,5.94,3.71,7.29-12.5,7.67-12.26,11.54,7.21,30.57-11.79,38.28-7,11.07,6.92,2.62-17.2,8.47-13.54,7.87,4.92,21.76-12.73,35.43-4.19,9.86,6.15,6-36.85,18.24-29.19,4.4,2.75-23.89,20-15.36,25.3,9.5,5.93,1.92-34.82,16.19-25.91.38.24-1.08,9,.66,10.12,15,9.34,2.06-26.5,12.49-20,3.43,2.14,24.24-24.66,40.35-14.59,10.25,6.41,10.33-29.56,16.18-25.9,4.64,2.89-16.41,28.84-14.2,30.22,4.07,2.54,20.72-42.77,25-40.07,7.43,4.64,12.7,14.75,13.32,15.14,5.54,3.46,16.39-38.54,21.92-35.08.55.34,21.4-10.32,31.39-4.08,11.31,7.06,10.91-17.84,11.08-17.73,2.57,1.6,8.18,8.57,12,10.94,8.42,5.26,12.4-37.4,20.29-32.47,4.07,2.55,11.35,18.94,12.82,19.86,2.6,1.62,6.73-30.45,15.57-24.93,5.37,3.35,23.08,7.19,24.73,8.22,3,1.86,7.76-13.61,8.3-13.28,5.2,3.25,22-.42,26.41,2.31.38.24-.92-14.63,6.32-10.1,5.86,3.66-2.57,14-1,15,5.46,3.41,8.35-21.85,12.16-19.46,3.2,2-3.53,18.7,1.88,22.08s11.81-24.91,14.51-23.22c11.41,7.13,7.48,25,13.21,28.61,1.55,1,11.62-21.7,13-20.83.26.17.1,17.94,1.36,18.73,6.2,3.87,8.07-25.08,13.53-21.67,5.85,3.66,8.71,12.17,19.39,18.84.57.36-2.5-4.48,1.31-2.1,4.73,3,13,19.44,20.52,24.16,4.48,2.8,2-17.51,8.44-13.51.75.47,4.69,1.29,6,2.11.77.48,8.09-14.87,9-14.33,4.64,2.91-20.84,22.5-14.66,26.36,5.31,3.32,3.36-17.71,8.9-14.25,4.93,3.08,8.71,10.34,18.32,16.34,5.58,3.49,1.29-11.23,5.41-8.65,5.18,3.23,21.77-1.57,32.94,5.41,6.51,4.07.46-13.9,6.37-10.2,2.75,1.71,10.65,19.64,15.38,22.59,1,.66,6.24-16,9-14.34,8.79,5.49-4.08,25.35.1,28,2.63,1.64,10.91-30.45,16.75-26.8,12.92,8.07,8.5,22.73,15.62,27.18,2.38,1.49,2.9-19.2,9.45-15.1,2.46,1.54,6.72,17.67,13.92,22.18,3.94,2.46-.93-8.79,3.69-5.91.7.44,7.29.81,10.78,3,1.52,1,3.28-8.87,4.91-7.86,5.24,3.28,4.18,22.95,4.19,23,3.42,2.14,12.21-23.53,14-22.41,8.33,5.2,9.59,17.42,9.83,17.57,3.87,2.42-1.69-3.06.9-1.44,4.58,2.86,15.07,15.36,18,17.16.24.15,12.16-27.55,15.8-25.28,3.87,2.42,11.39,15.59,14.78,17.71,5,3.12,8.93-14.65,9.09-14.55,4.31,2.69,6.81,24.78,7,24.89,5.77,3.6.21-14.82,6.72-10.75,7.16,4.47,2.38,19.22,3.28,19.78,2.44,1.53,10.18-26,14.57-23.31,3,1.9,1,11.75,7.55,15.85,1.22.76.81-8.77,4.17-6.67,1.28.8,17,2.34,20.35,4.43,6.67,4.16,5.75-14.9,8.31-13.3,12,7.51,20.85,19.41,21,19.52,5,3.11.65-8.66,4.07-6.52.74.45,1.53-.71,2.26-.26.38.24-1.3-2.83.9-1.45,3.19,2-2.34,13-.4,14.2,5.12,3.2,5.11-18.4,9.71-15.53,10.32,6.45,13,9.41,20.21,13.89,4.64,2.9,8-18,10.35-16.57,3.47,2.17,17.4,10.4,23.81,14.41.63.39,5.55-15.24,8.41-13.46s1.58,5.1,3.82,6.49c.68.43,5.1-21.5,11.1-17.75.14.09,8.16,12.27,9.81,13.3,4.9,3.07,7.82-28.34,14.93-23.89,11.33,7.07-7.26,20.73,3.19,27.27,4.62,2.89,13.31-22,13.64-21.83,1.89,1.19,13.69,9.16,16.65,11,4.6,2.87,8.26-23.52,12.89-20.63,3.18,2,13.72,20.79,17.42,23.11,2.9,1.81,7.83-19,10.73-17.17,7.57,4.72-9.34,14.29-3.56,17.9,3.21,2,.38-4,1.9-3.05,3.94,2.46,4.93,5.4,7.12,6.76,5,3.12-3.41-8.44,2.83-4.53,2.17,1.35-.6,5.86,1.65,7.27.22.14-.54-.62.13-.2,10.43,6.52-5.58,30.8-4.55,31.44s6.58-26.73,13.86-22.18c8.89,5.56-8.13,42-6.79,42.86,5.91,3.69,9.88-24.35,13.72-22,58,36.21-78.84,125.69-61.09,136.78,36.51,22.82,45.34-82,49.59-79.36" transform="translate(0 0)"/><path class="cls-2" d="M79.06,106.06c8.6,5.37,13.9-51.28,27-43.13C176.3,106.86-23.62,200.3,34.36,236.53c14.38,9,7.63-45.89,22.76-36.43,37.48,23.42-59.95,83.45-30.8,101.67,14.33,9,11.35-40.31,21.3-34.09,13.43,8.39-43.88,37.38-20.64,51.9,10.51,6.57.48-21.47,9.79-15.65,25.29,15.8-6.52,62.88-4.17,64.35,5.9,3.69,2.19-6.2,3.41-5.44,7,4.38-8.21,18.38-7.39,18.9,6.37,4,3.78-14.39,7.53-12.05.3.19.48,8.85.93,9.13,1.68,1.05,7.06-16,9.17-14.67,3.3,2.06-3,15.39,3.94,19.75,4.85,3,3.6-9.31,5.2-8.32,9.44,5.9,7.43,23,12.17,25.94s6.07-15.46,8.65-13.85c4.71,2.94-21.38,19.07-14,23.67,2.44,1.52,5.64-11.8,6.89-11,.27.17-2.86,17,7,23.14,4.57,2.86,11.11-20.57,12.36-19.78,13.87,8.66-3.19,25.13,8.2,32.25,1.12.7,3-15.84,8-12.74,7.49,4.68-12.31,15.84-9.62,17.52,3.77,2.36,12.14-27.85,15.92-25.49,1.85,1.15-13.94,18.54-10.48,20.7.26.17,7.22-13.36,8-12.85,2.53,1.58-2.35,11,.75,12.92,6.18,3.86.68-11.35,5.29-8.47,5.37,3.35,10.85,15.06,19.48,20.45,6,3.76,1.7-10.56,5.22-8.35,6.17,3.85,6.63,22.23,8.85,23.62s-2.3-3.85,1.08-1.74c8,5,17.62,9.84,22.4,12.83,5.14,3.22,1.93-6.35,3.39-5.44,3.48,2.17,9.45,19.67,13.3,22.07,3.31,2.07,6.4-18.17,10-15.94,5.49,3.43,1.92,22.8,15.66,31.38.58.36,4.44-17.94,9.3-14.9,6.45,4-9.8,19.12-6.94,20.91,3.3,2.06,10.58-19.07,11.55-18.47,5.26,3.29-8,14-2.58,17.4,6,3.75-4.44-3.82.47-.75,8.82,5.51,15.12,18.25,19.14,20.75,3.61,2.26,5.38-22.26,11.51-18.42.1.06-11.81,11.63-6.52,14.94,1.64,1,3.71-19,9.57-15.31,4.31,2.69-2.13,30.52-1.35,31,6.36,4,10.68-29.22,16.13-25.81.09,0-6.57,16.31,2.65,22.06,4.13,2.58,4.64-13.8,7.51-12,6.19,3.87,5.35,12,13.55,17.1,3.85,2.4,4.63-10.85,6.17-9.88,9.52,5.94,14.65,17.12,17.81,19.09,1.61,1,5.81-22.26,11.64-18.62,11.59,7.25,3,26.55,9.44,30.56,1.65,1,10.17-21.68,12.6-20.17,4.78,3,16.78,4.25,26.33,10.22,7.59,4.74-2.64-6.92,2.37-3.79,6.35,4,10.73,6.48,17.74,10.87,6.54,4.08,12.48-35.29,19.36-31,7.33,4.58,3.27,23,3.3,23,4.89,3.06,8.61-26.55,14.35-23,6.17,3.85,23.89-4.45,29.11-1.18,3.8,2.37,7.46-17.37,9.9-15.85,2.7,1.68-3.67,6.45,0,8.76,4.83,3,7.19-20.57,11.26-18,5.45,3.4,31-7.79,35.74-4.86,10.24,6.4,1-21.87,10.1-16.16,6.29,3.93,33.87-2.5,35.19-1.68,1.55,1,4.71-27.56,13.71-21.94,6.53,4.08,27.9-3.85,32.6-.91,8.62,5.39,3.69-27.25,13.28-21.26,2.82,1.77,23.37,4.56,25.2,5.7,3,1.85,17.13-32.22,19.29-30.86,1.55,1,17.51,5.05,20.21,6.74,3.48,2.18,11.89-24.41,14.31-22.9,8.19,5.12-1.6,19.07,5.31,23.39,2.37,1.48,18.36-38.47,22.44-35.92.17.11-5,19.62-3.66,20.48,5.51,3.44,4.93-23.72,12.05-19.28,1.85,1.16,23.85,7.28,25.84,8.53,6.38,4,13.59-25.71,15.37-24.6,3.3,2.06,20.79,4.82,23.12,6.28,3.23,2,10.46-25.58,14.43-23.09,6.61,4.13,16.39-8.19,22.71-4.25,9.37,5.85-.75-20.07,8.81-14.1,3,1.88-20.84,14.44-11.62,20.21,5.34,3.33,10.66-37,19.6-31.37,7.87,4.92,22.69.66,28.91,4.55,6.53,4.08-1-19.32,8.41-13.46s24.79,6.46,25.31,6.78c.9.56,17.58-30.07,18.45-29.53,1.34.84,0,19.76,5.63,23.27,4.31,2.69,15.81-28.31,17.16-27.47,3.41,2.14,12.44,7.27,12.95,7.59,3.46,2.16,3.55-8.5,4.82-7.71,11.1,6.94,34.16-.89,34.85-.47,2.51,1.57,8.55-16.58,9.85-15.76,10,6.25,14,8.87,21.38,13.46,3.52,2.19.07-5.5,2.49-4,7.62,4.75,27.2,8.7,29.06,9.86.42.26,5.94-13.67,7.81-12.5,1.14.71-.25,9.41,2.4,11.06,1.54,1,.29-12.89,5.87-9.39,4.4,2.74-3.49,17.48-.67,19.24.46.29,8.25-21,11.75-18.8,11.34,7.08-9.06,26-5.1,28.46.78.48,13.53-24.24,14.69-23.51,7.54,4.71,1.66,31.59,2.8,32.3,1.71,1.06,3.63-16.06,8.23-13.18.9.56,17.06,1.72,29.43,9.45,1.42.89-1.06-6.93,2.81-4.51,3.19,2,3.81,16.22,12,21.34,3.79,2.37,2.32-8.93,4.67-7.46.3.19,9.33,2.88,9.56,3,1.25.78,1.33-14.69,7-11.16.27.16-11.55,20.37-8.81,22.08,5.69,3.56,3.68-8.81,5-8,.83.52,6.41,7.08,13,11.19,5.89,3.68,6.84-13.61,8-12.86,2.35,1.46-4.62,5.09-2.1,6.67,1.47.91-2.2-7.58,2.79-4.46,5.32,3.32-2.53,14.92-1.8,15.38,5.48,3.42,6.78-11.54,7.09-11.35,3.7,2.31-4.08,9.62-1.7,11.11,1.95,1.21-.56-11.55,5-8.05a47.76,47.76,0,0,0,6.36,5.51c4.55,2.84,6-14.51,8.2-13.12,1.26.8,6.55,15.68,16.78,22.07,5.1,3.19,1.85-12.95,6.34-10.14,4.17,2.6.21,13.76,2.51,15.2,3.15,2-.08-1.15.5-.79,0,0,.29.23.47.35,3.14,2-2.85-2.18.18-.29,7.59,4.75,4.17,13.36,9.36,16.61.72.45,13.63-22.28,13.84-22.15.83.52-1.9,26.59,2.94,29.61.59.37,5.47-14.34,8-12.77,2.24,1.4-7.68,15.68-7.09,16,5.19,3.24,1.21-11.89,5.68-9.09,2.45,1.53,8.9,7.59,14.77,11.26,1,.59,3-7.94,4.41-7.06,2.54,1.59-1.84,9,0,10.18,6,3.77,6.17-16.67,9.22-14.77,8.55,5.35.57,18.41,6.37,22,1.1.69,6.42-13.69,8-12.73,5.19,3.25,3.79,18.19,15.55,25.54,5.53,3.45,11.89-23.27,13.8-22.08,1.15.72-1.22,31.64,8.24,37.55,3.69,2.31,13.27-29,16.77-26.84,7.43,4.64,10.18,32.41,14,34.78,4.14,2.59,8.35-23.08,12.72-20.35,7,4.39-18.07,13.38-9.37,18.82,4.64,2.9,7.57-14.29,8.54-13.68s2.18,9.45,8.53,13.42c1.3.81,3.37-15.89,8.09-12.94,1.87,1.17,6.48,20.63,9.46,22.49,2.81,1.75-4.89-5.09.92-1.46,3.13,2,6.4,13,6.48,13,3.15,2,.83-8.19,3.91-6.27,8.54,5.34,12.05,20.92,18.9,25.2,3.26,2,8.15-16.77,9.82-15.73,3,1.9,11.54,16,16.9,19.32,3.71,2.31,1-5,2.53-4,.41.26,2.25-1.08,3-.63.15.09,2.76-6.24,3.58-5.73,2.35,1.47,8.3,32,12.52,34.61,6.17,3.86,9.84-26.8,14.81-23.7,10.73,6.71-19.44,19.53-11.48,24.5.88.55,12.25-23.49,14-22.4,10.85,6.78,2.35,24.12,4.62,25.54,2.45,1.53,1.89-16.19,7.81-12.49,6.14,3.83,8.1,13.6,16.91,19.1,1.83,1.14,15.61-29.74,17.75-28.41,1.43.9-1,10.55,5.52,14.65,1.67,1.05,5.34-13.95,7.77-12.43,3.9,2.44,13.07,6,19.56,10.11,4.57,2.85,21.6-42.27,25.06-40.11,21.67,13.54,35.67-40.38,49.6-31.67,7.58,4.74,23-164.33,80.31-128.51,26,16.28-50.69,79.48-45,83,17.73,11.09,7.74-42.08,21.08-33.74" transform="translate(0 0)"/></g></g></svg>